<?xml version="1.0" encoding="UTF-8" standalone="no"?>
<!DOCTYPE svg PUBLIC "-//W3C//DTD SVG 1.1//EN"
 "http://www.w3.org/Graphics/SVG/1.1/DTD/svg11.dtd">
<!-- Generated by graphviz version 12.1.0 (20240811.2233)
 -->
<!-- Title: src/crypto_utils.cpp Pages: 1 -->
<svg width="535pt" height="140pt"
 viewBox="0.00 0.00 535.00 140.00" xmlns="http://www.w3.org/2000/svg" xmlns:xlink="http://www.w3.org/1999/xlink">
<g id="graph0" class="graph" transform="scale(1 1) rotate(0) translate(4 136)">
<title>src/crypto_utils.cpp</title>
<!-- Node1 -->
<g id="Node000001" class="node">
<title>Node1</title>
<g id="a_Node000001"><a xlink:title=" ">
<polygon fill="#999999" stroke="#666666" points="358,-132 256.5,-132 256.5,-112 358,-112 358,-132"/>
<text text-anchor="middle" x="307.25" y="-118.5" font-family="Helvetica,sans-Serif" font-size="10.00">src/crypto_utils.cpp</text>
</a>
</g>
</g>
<!-- Node2 -->
<g id="Node000002" class="node">
<title>Node2</title>
<g id="a_Node000002"><a xlink:href="crypto__utils_8h.html" target="_top" xlink:title=" ">
<polygon fill="white" stroke="#666666" points="74.5,-76 0,-76 0,-56 74.5,-56 74.5,-76"/>
<text text-anchor="middle" x="37.25" y="-62.5" font-family="Helvetica,sans-Serif" font-size="10.00">crypto_utils.h</text>
</a>
</g>
</g>
<!-- Node1&#45;&gt;Node2 -->
<g id="edge1_Node000001_Node000002" class="edge">
<title>Node1&#45;&gt;Node2</title>
<g id="a_edge1_Node000001_Node000002"><a xlink:title=" ">
<path fill="none" stroke="#63b8ff" d="M259.91,-111.53C211.08,-101.77 135.3,-86.61 85.97,-76.74"/>
<polygon fill="#63b8ff" stroke="#63b8ff" points="86.93,-73.37 76.43,-74.84 85.55,-80.23 86.93,-73.37"/>
</a>
</g>
</g>
<!-- Node4 -->
<g id="Node000004" class="node">
<title>Node4</title>
<g id="a_Node000004"><a xlink:title=" ">
<polygon fill="#e0e0e0" stroke="#999999" points="169.62,-76 92.88,-76 92.88,-56 169.62,-56 169.62,-76"/>
<text text-anchor="middle" x="131.25" y="-62.5" font-family="Helvetica,sans-Serif" font-size="10.00">openssl/evp.h</text>
</a>
</g>
</g>
<!-- Node1&#45;&gt;Node4 -->
<g id="edge3_Node000001_Node000004" class="edge">
<title>Node1&#45;&gt;Node4</title>
<g id="a_edge3_Node000001_Node000004"><a xlink:title=" ">
<path fill="none" stroke="#63b8ff" d="M276.59,-111.59C247.87,-102.78 204.72,-89.54 172.89,-79.78"/>
<polygon fill="#63b8ff" stroke="#63b8ff" points="174.18,-76.51 163.59,-76.92 172.13,-83.2 174.18,-76.51"/>
</a>
</g>
</g>
<!-- Node5 -->
<g id="Node000005" class="node">
<title>Node5</title>
<g id="a_Node000005"><a xlink:title=" ">
<polygon fill="#e0e0e0" stroke="#999999" points="264.62,-76 187.88,-76 187.88,-56 264.62,-56 264.62,-76"/>
<text text-anchor="middle" x="226.25" y="-62.5" font-family="Helvetica,sans-Serif" font-size="10.00">openssl/sha.h</text>
</a>
</g>
</g>
<!-- Node1&#45;&gt;Node5 -->
<g id="edge4_Node000001_Node000005" class="edge">
<title>Node1&#45;&gt;Node5</title>
<g id="a_edge4_Node000001_Node000005"><a xlink:title=" ">
<path fill="none" stroke="#63b8ff" d="M293.14,-111.59C281.25,-103.67 263.98,-92.16 249.97,-82.82"/>
<polygon fill="#63b8ff" stroke="#63b8ff" points="251.99,-79.95 241.73,-77.32 248.11,-85.78 251.99,-79.95"/>
</a>
</g>
</g>
<!-- Node6 -->
<g id="Node000006" class="node">
<title>Node6</title>
<g id="a_Node000006"><a xlink:title=" ">
<polygon fill="#e0e0e0" stroke="#999999" points="331.75,-76 282.75,-76 282.75,-56 331.75,-56 331.75,-76"/>
<text text-anchor="middle" x="307.25" y="-62.5" font-family="Helvetica,sans-Serif" font-size="10.00">fstream</text>
</a>
</g>
</g>
<!-- Node1&#45;&gt;Node6 -->
<g id="edge5_Node000001_Node000006" class="edge">
<title>Node1&#45;&gt;Node6</title>
<g id="a_edge5_Node000001_Node000006"><a xlink:title=" ">
<path fill="none" stroke="#63b8ff" d="M307.25,-111.59C307.25,-105.01 307.25,-95.96 307.25,-87.73"/>
<polygon fill="#63b8ff" stroke="#63b8ff" points="310.75,-87.81 307.25,-77.81 303.75,-87.81 310.75,-87.81"/>
</a>
</g>
</g>
<!-- Node7 -->
<g id="Node000007" class="node">
<title>Node7</title>
<g id="a_Node000007"><a xlink:title=" ">
<polygon fill="#e0e0e0" stroke="#999999" points="392.75,-76 349.75,-76 349.75,-56 392.75,-56 392.75,-76"/>
<text text-anchor="middle" x="371.25" y="-62.5" font-family="Helvetica,sans-Serif" font-size="10.00">vector</text>
</a>
</g>
</g>
<!-- Node1&#45;&gt;Node7 -->
<g id="edge6_Node000001_Node000007" class="edge">
<title>Node1&#45;&gt;Node7</title>
<g id="a_edge6_Node000001_Node000007"><a xlink:title=" ">
<path fill="none" stroke="#63b8ff" d="M318.4,-111.59C327.58,-103.85 340.8,-92.69 351.73,-83.47"/>
<polygon fill="#63b8ff" stroke="#63b8ff" points="353.69,-86.4 359.07,-77.27 349.17,-81.05 353.69,-86.4"/>
</a>
</g>
</g>
<!-- Node8 -->
<g id="Node000008" class="node">
<title>Node8</title>
<g id="a_Node000008"><a xlink:title=" ">
<polygon fill="#e0e0e0" stroke="#999999" points="455.88,-76 410.62,-76 410.62,-56 455.88,-56 455.88,-76"/>
<text text-anchor="middle" x="433.25" y="-62.5" font-family="Helvetica,sans-Serif" font-size="10.00">cstring</text>
</a>
</g>
</g>
<!-- Node1&#45;&gt;Node8 -->
<g id="edge7_Node000001_Node000008" class="edge">
<title>Node1&#45;&gt;Node8</title>
<g id="a_edge7_Node000001_Node000008"><a xlink:title=" ">
<path fill="none" stroke="#63b8ff" d="M329.2,-111.59C348.95,-103.13 378.24,-90.58 400.72,-80.94"/>
<polygon fill="#63b8ff" stroke="#63b8ff" points="401.93,-84.23 409.74,-77.08 399.17,-77.8 401.93,-84.23"/>
</a>
</g>
</g>
<!-- Node9 -->
<g id="Node000009" class="node">
<title>Node9</title>
<g id="a_Node000009"><a xlink:title=" ">
<polygon fill="#e0e0e0" stroke="#999999" points="527,-76 473.5,-76 473.5,-56 527,-56 527,-76"/>
<text text-anchor="middle" x="500.25" y="-62.5" font-family="Helvetica,sans-Serif" font-size="10.00">iostream</text>
</a>
</g>
</g>
<!-- Node1&#45;&gt;Node9 -->
<g id="edge8_Node000001_Node000009" class="edge">
<title>Node1&#45;&gt;Node9</title>
<g id="a_edge8_Node000001_Node000009"><a xlink:title=" ">
<path fill="none" stroke="#63b8ff" d="M340.87,-111.59C374.78,-102.11 427.05,-87.48 462.4,-77.59"/>
<polygon fill="#63b8ff" stroke="#63b8ff" points="463.09,-81.03 471.78,-74.97 461.21,-74.29 463.09,-81.03"/>
</a>
</g>
</g>
<!-- Node3 -->
<g id="Node000003" class="node">
<title>Node3</title>
<g id="a_Node000003"><a xlink:title=" ">
<polygon fill="#e0e0e0" stroke="#999999" points="57.25,-20 17.25,-20 17.25,0 57.25,0 57.25,-20"/>
<text text-anchor="middle" x="37.25" y="-6.5" font-family="Helvetica,sans-Serif" font-size="10.00">string</text>
</a>
</g>
</g>
<!-- Node2&#45;&gt;Node3 -->
<g id="edge2_Node000002_Node000003" class="edge">
<title>Node2&#45;&gt;Node3</title>
<g id="a_edge2_Node000002_Node000003"><a xlink:title=" ">
<path fill="none" stroke="#63b8ff" d="M37.25,-55.59C37.25,-49.01 37.25,-39.96 37.25,-31.73"/>
<polygon fill="#63b8ff" stroke="#63b8ff" points="40.75,-31.81 37.25,-21.81 33.75,-31.81 40.75,-31.81"/>
</a>
</g>
</g>
</g>
</svg>
