<?xml version="1.0" encoding="UTF-8" standalone="no"?>
<!DOCTYPE svg PUBLIC "-//W3C//DTD SVG 1.1//EN"
 "http://www.w3.org/Graphics/SVG/1.1/DTD/svg11.dtd">
<!-- Generated by graphviz version 12.1.0 (20240811.2233)
 -->
<!-- Title: saveToFile Pages: 1 -->
<svg width="260pt" height="180pt"
 viewBox="0.00 0.00 260.00 180.00" xmlns="http://www.w3.org/2000/svg" xmlns:xlink="http://www.w3.org/1999/xlink">
<g id="graph0" class="graph" transform="scale(1 1) rotate(0) translate(4 176)">
<title>saveToFile</title>
<!-- Node1 -->
<g id="Node000001" class="node">
<title>Node1</title>
<g id="a_Node000001"><a xlink:title=" ">
<polygon fill="#999999" stroke="#666666" points="252,-96 188.75,-96 188.75,-76 252,-76 252,-96"/>
<text text-anchor="middle" x="220.38" y="-82.5" font-family="Helvetica,sans-Serif" font-size="10.00">saveToFile</text>
</a>
</g>
</g>
<!-- Node2 -->
<g id="Node000002" class="node">
<title>Node2</title>
<g id="a_Node000002"><a xlink:href="student__manager_8cpp.html#a296bc20e4de770091ae3270bbca51366" target="_top" xlink:title=" ">
<polygon fill="white" stroke="#666666" points="145.62,-172 80.12,-172 80.12,-152 145.62,-152 145.62,-172"/>
<text text-anchor="middle" x="112.88" y="-158.5" font-family="Helvetica,sans-Serif" font-size="10.00">addStudent</text>
</a>
</g>
</g>
<!-- Node1&#45;&gt;Node2 -->
<g id="edge1_Node000001_Node000002" class="edge">
<title>Node1&#45;&gt;Node2</title>
<g id="a_edge1_Node000001_Node000002"><a xlink:title=" ">
<path fill="none" stroke="#63b8ff" d="M198.33,-103.39C185.44,-113.79 168.45,-127.08 152.75,-138 145.98,-142.71 138.29,-147.56 131.55,-151.65"/>
<polygon fill="#63b8ff" stroke="#63b8ff" points="200.2,-106.38 205.74,-97.35 195.78,-100.95 200.2,-106.38"/>
</a>
</g>
</g>
<!-- Node3 -->
<g id="Node000003" class="node">
<title>Node3</title>
<g id="a_Node000003"><a xlink:href="main_8cpp.html#ae66f6b31b5ad750f1fe042a706a4e3d4" target="_top" xlink:title=" ">
<polygon fill="white" stroke="#666666" points="37,-96 0,-96 0,-76 37,-76 37,-96"/>
<text text-anchor="middle" x="18.5" y="-82.5" font-family="Helvetica,sans-Serif" font-size="10.00">main</text>
</a>
</g>
</g>
<!-- Node1&#45;&gt;Node3 -->
<g id="edge9_Node000001_Node000003" class="edge">
<title>Node1&#45;&gt;Node3</title>
<g id="a_edge9_Node000001_Node000003"><a xlink:title=" ">
<path fill="none" stroke="#63b8ff" d="M178.75,-99.51C170.25,-101.79 161.28,-103.81 152.75,-105 117.65,-109.91 107.93,-111.02 73,-105 60.76,-102.89 47.61,-98.26 37.41,-94.09"/>
<polygon fill="#63b8ff" stroke="#63b8ff" points="179.47,-102.95 188.12,-96.83 177.54,-96.22 179.47,-102.95"/>
</a>
</g>
</g>
<!-- Node4 -->
<g id="Node000004" class="node">
<title>Node4</title>
<g id="a_Node000004"><a xlink:href="student__manager_8cpp.html#ac27cdaec67b495d7e565e8b986072b54" target="_top" xlink:title=" ">
<polygon fill="white" stroke="#666666" points="150.88,-96 74.88,-96 74.88,-76 150.88,-76 150.88,-96"/>
<text text-anchor="middle" x="112.88" y="-82.5" font-family="Helvetica,sans-Serif" font-size="10.00">deleteStudent</text>
</a>
</g>
</g>
<!-- Node1&#45;&gt;Node4 -->
<g id="edge3_Node000001_Node000004" class="edge">
<title>Node1&#45;&gt;Node4</title>
<g id="a_edge3_Node000001_Node000004"><a xlink:title=" ">
<path fill="none" stroke="#63b8ff" d="M176.94,-86C168.38,-86 159.44,-86 151.07,-86"/>
<polygon fill="#63b8ff" stroke="#63b8ff" points="176.78,-89.5 186.78,-86 176.78,-82.5 176.78,-89.5"/>
</a>
</g>
</g>
<!-- Node5 -->
<g id="Node000005" class="node">
<title>Node5</title>
<g id="a_Node000005"><a xlink:href="student__manager_8cpp.html#ac68e9c50d3fd6078f5a0444642c6573e" target="_top" xlink:title=" ">
<polygon fill="white" stroke="#666666" points="145.62,-58 80.12,-58 80.12,-38 145.62,-38 145.62,-58"/>
<text text-anchor="middle" x="112.88" y="-44.5" font-family="Helvetica,sans-Serif" font-size="10.00">editStudent</text>
</a>
</g>
</g>
<!-- Node1&#45;&gt;Node5 -->
<g id="edge5_Node000001_Node000005" class="edge">
<title>Node1&#45;&gt;Node5</title>
<g id="a_edge5_Node000001_Node000005"><a xlink:title=" ">
<path fill="none" stroke="#63b8ff" d="M179.46,-71.62C167.3,-67.24 154.18,-62.52 142.89,-58.45"/>
<polygon fill="#63b8ff" stroke="#63b8ff" points="178.25,-74.91 188.84,-75 180.62,-68.32 178.25,-74.91"/>
</a>
</g>
</g>
<!-- Node6 -->
<g id="Node000006" class="node">
<title>Node6</title>
<g id="a_Node000006"><a xlink:href="student__manager_8cpp.html#a59cac15328c5b875dbe9096b5f9aa15d" target="_top" xlink:title=" ">
<polygon fill="white" stroke="#666666" points="152.75,-20 73,-20 73,0 152.75,0 152.75,-20"/>
<text text-anchor="middle" x="112.88" y="-6.5" font-family="Helvetica,sans-Serif" font-size="10.00">importFromTxt</text>
</a>
</g>
</g>
<!-- Node1&#45;&gt;Node6 -->
<g id="edge7_Node000001_Node000006" class="edge">
<title>Node1&#45;&gt;Node6</title>
<g id="a_edge7_Node000001_Node000006"><a xlink:title=" ">
<path fill="none" stroke="#63b8ff" d="M201.18,-68.22C188.33,-56.22 170.32,-40.54 152.75,-29 147.98,-25.87 142.61,-22.92 137.43,-20.32"/>
<polygon fill="#63b8ff" stroke="#63b8ff" points="198.44,-70.43 208.1,-74.79 203.26,-65.36 198.44,-70.43"/>
</a>
</g>
</g>
<!-- Node2&#45;&gt;Node3 -->
<g id="edge2_Node000002_Node000003" class="edge">
<title>Node2&#45;&gt;Node3</title>
<g id="a_edge2_Node000002_Node000003"><a xlink:title=" ">
<path fill="none" stroke="#63b8ff" d="M83.59,-145.55C79.94,-143.14 76.32,-140.59 73,-138 56.25,-124.94 39,-107.27 28.77,-96.26"/>
<polygon fill="#63b8ff" stroke="#63b8ff" points="81.52,-148.39 91.85,-150.75 85.25,-142.46 81.52,-148.39"/>
</a>
</g>
</g>
<!-- Node4&#45;&gt;Node3 -->
<g id="edge4_Node000004_Node000003" class="edge">
<title>Node4&#45;&gt;Node3</title>
<g id="a_edge4_Node000004_Node000003"><a xlink:title=" ">
<path fill="none" stroke="#63b8ff" d="M63.32,-86C54.06,-86 44.93,-86 37.42,-86"/>
<polygon fill="#63b8ff" stroke="#63b8ff" points="63.06,-89.5 73.06,-86 63.06,-82.5 63.06,-89.5"/>
</a>
</g>
</g>
<!-- Node5&#45;&gt;Node3 -->
<g id="edge6_Node000005_Node000003" class="edge">
<title>Node5&#45;&gt;Node3</title>
<g id="a_edge6_Node000005_Node000003"><a xlink:title=" ">
<path fill="none" stroke="#63b8ff" d="M76.31,-62.63C63,-68.11 48.44,-74.1 37.39,-78.64"/>
<polygon fill="#63b8ff" stroke="#63b8ff" points="77.32,-66 85.23,-58.96 74.65,-59.53 77.32,-66"/>
</a>
</g>
</g>
<!-- Node6&#45;&gt;Node3 -->
<g id="edge8_Node000006_Node000003" class="edge">
<title>Node6&#45;&gt;Node3</title>
<g id="a_edge8_Node000006_Node000003"><a xlink:title=" ">
<path fill="none" stroke="#63b8ff" d="M77.68,-25.8C76.07,-26.83 74.5,-27.9 73,-29 54.44,-42.7 36.94,-63.34 27.27,-75.66"/>
<polygon fill="#63b8ff" stroke="#63b8ff" points="78.96,-29.1 85.92,-21.11 75.5,-23.01 78.96,-29.1"/>
</a>
</g>
</g>
</g>
</svg>
