<?xml version="1.0" encoding="UTF-8" standalone="no"?>
<!DOCTYPE svg PUBLIC "-//W3C//DTD SVG 1.1//EN"
 "http://www.w3.org/Graphics/SVG/1.1/DTD/svg11.dtd">
<!-- Generated by graphviz version 12.1.0 (20240811.2233)
 -->
<!-- Title: include/file_operations.h Pages: 1 -->
<svg width="238pt" height="196pt"
 viewBox="0.00 0.00 237.50 196.00" xmlns="http://www.w3.org/2000/svg" xmlns:xlink="http://www.w3.org/1999/xlink">
<g id="graph0" class="graph" transform="scale(1 1) rotate(0) translate(4 192)">
<title>include/file_operations.h</title>
<!-- Node1 -->
<g id="Node000001" class="node">
<title>Node1</title>
<g id="a_Node000001"><a xlink:title=" ">
<polygon fill="#999999" stroke="#666666" points="121,-188 0,-188 0,-168 121,-168 121,-188"/>
<text text-anchor="middle" x="60.5" y="-174.5" font-family="Helvetica,sans-Serif" font-size="10.00">include/file_operations.h</text>
</a>
</g>
</g>
<!-- Node2 -->
<g id="Node000002" class="node">
<title>Node2</title>
<g id="a_Node000002"><a xlink:title=" ">
<polygon fill="#e0e0e0" stroke="#999999" points="54,-76 11,-76 11,-56 54,-56 54,-76"/>
<text text-anchor="middle" x="32.5" y="-62.5" font-family="Helvetica,sans-Serif" font-size="10.00">vector</text>
</a>
</g>
</g>
<!-- Node1&#45;&gt;Node2 -->
<g id="edge1_Node000001_Node000002" class="edge">
<title>Node1&#45;&gt;Node2</title>
<g id="a_edge1_Node000001_Node000002"><a xlink:title=" ">
<path fill="none" stroke="#63b8ff" d="M58.11,-167.62C53.61,-149.92 43.76,-111.24 37.67,-87.32"/>
<polygon fill="#63b8ff" stroke="#63b8ff" points="41.11,-86.65 35.25,-77.82 34.33,-88.38 41.11,-86.65"/>
</a>
</g>
</g>
<!-- Node3 -->
<g id="Node000003" class="node">
<title>Node3</title>
<g id="a_Node000003"><a xlink:href="student_8h.html" target="_top" xlink:title=" ">
<polygon fill="white" stroke="#666666" points="116.75,-132 60.25,-132 60.25,-112 116.75,-112 116.75,-132"/>
<text text-anchor="middle" x="88.5" y="-118.5" font-family="Helvetica,sans-Serif" font-size="10.00">student.h</text>
</a>
</g>
</g>
<!-- Node1&#45;&gt;Node3 -->
<g id="edge2_Node000001_Node000003" class="edge">
<title>Node1&#45;&gt;Node3</title>
<g id="a_edge2_Node000001_Node000003"><a xlink:title=" ">
<path fill="none" stroke="#63b8ff" d="M65.38,-167.59C68.99,-160.63 74.04,-150.89 78.5,-142.29"/>
<polygon fill="#63b8ff" stroke="#63b8ff" points="81.49,-144.13 82.98,-133.64 75.27,-140.91 81.49,-144.13"/>
</a>
</g>
</g>
<!-- Node3&#45;&gt;Node2 -->
<g id="edge4_Node000003_Node000002" class="edge">
<title>Node3&#45;&gt;Node2</title>
<g id="a_edge4_Node000003_Node000002"><a xlink:title=" ">
<path fill="none" stroke="#63b8ff" d="M78.75,-111.59C70.88,-104.01 59.6,-93.13 50.15,-84.02"/>
<polygon fill="#63b8ff" stroke="#63b8ff" points="52.86,-81.77 43.23,-77.35 48,-86.81 52.86,-81.77"/>
</a>
</g>
</g>
<!-- Node4 -->
<g id="Node000004" class="node">
<title>Node4</title>
<g id="a_Node000004"><a xlink:title=" ">
<polygon fill="#e0e0e0" stroke="#999999" points="229.5,-20 189.5,-20 189.5,0 229.5,0 229.5,-20"/>
<text text-anchor="middle" x="209.5" y="-6.5" font-family="Helvetica,sans-Serif" font-size="10.00">string</text>
</a>
</g>
</g>
<!-- Node3&#45;&gt;Node4 -->
<g id="edge3_Node000003_Node000004" class="edge">
<title>Node3&#45;&gt;Node4</title>
<g id="a_edge3_Node000003_Node000004"><a xlink:title=" ">
<path fill="none" stroke="#63b8ff" d="M116.93,-114.67C139,-108.37 168.88,-96.58 187.5,-76 198.75,-63.56 204.28,-45.15 206.98,-31.09"/>
<polygon fill="#63b8ff" stroke="#63b8ff" points="210.37,-32.04 208.46,-21.62 203.46,-30.96 210.37,-32.04"/>
</a>
</g>
</g>
<!-- Node5 -->
<g id="Node000005" class="node">
<title>Node5</title>
<g id="a_Node000005"><a xlink:title=" ">
<polygon fill="#e0e0e0" stroke="#999999" points="100.12,-20 48.88,-20 48.88,0 100.12,0 100.12,-20"/>
<text text-anchor="middle" x="74.5" y="-6.5" font-family="Helvetica,sans-Serif" font-size="10.00">memory</text>
</a>
</g>
</g>
<!-- Node3&#45;&gt;Node5 -->
<g id="edge5_Node000003_Node000005" class="edge">
<title>Node3&#45;&gt;Node5</title>
<g id="a_edge5_Node000003_Node000005"><a xlink:title=" ">
<path fill="none" stroke="#63b8ff" d="M87.31,-111.62C85.06,-94.01 80.18,-55.59 77.13,-31.65"/>
<polygon fill="#63b8ff" stroke="#63b8ff" points="80.62,-31.33 75.88,-21.86 73.67,-32.22 80.62,-31.33"/>
</a>
</g>
</g>
<!-- Node6 -->
<g id="Node000006" class="node">
<title>Node6</title>
<g id="a_Node000006"><a xlink:href="normative_8h.html" target="_top" xlink:title=" ">
<polygon fill="white" stroke="#666666" points="178,-76 111,-76 111,-56 178,-56 178,-76"/>
<text text-anchor="middle" x="144.5" y="-62.5" font-family="Helvetica,sans-Serif" font-size="10.00">normative.h</text>
</a>
</g>
</g>
<!-- Node3&#45;&gt;Node6 -->
<g id="edge6_Node000003_Node000006" class="edge">
<title>Node3&#45;&gt;Node6</title>
<g id="a_edge6_Node000003_Node000006"><a xlink:title=" ">
<path fill="none" stroke="#63b8ff" d="M98.25,-111.59C106.12,-104.01 117.4,-93.13 126.85,-84.02"/>
<polygon fill="#63b8ff" stroke="#63b8ff" points="129,-86.81 133.77,-77.35 124.14,-81.77 129,-86.81"/>
</a>
</g>
</g>
<!-- Node6&#45;&gt;Node4 -->
<g id="edge7_Node000006_Node000004" class="edge">
<title>Node6&#45;&gt;Node4</title>
<g id="a_edge7_Node000006_Node000004"><a xlink:title=" ">
<path fill="none" stroke="#63b8ff" d="M155.82,-55.59C165.14,-47.85 178.58,-36.69 189.68,-27.47"/>
<polygon fill="#63b8ff" stroke="#63b8ff" points="191.69,-30.35 197.14,-21.27 187.21,-24.96 191.69,-30.35"/>
</a>
</g>
</g>
<!-- Node6&#45;&gt;Node5 -->
<g id="edge8_Node000006_Node000005" class="edge">
<title>Node6&#45;&gt;Node5</title>
<g id="a_edge8_Node000006_Node000005"><a xlink:title=" ">
<path fill="none" stroke="#63b8ff" d="M132.31,-55.59C122.17,-47.77 107.51,-36.46 95.49,-27.19"/>
<polygon fill="#63b8ff" stroke="#63b8ff" points="97.81,-24.56 87.75,-21.22 93.53,-30.1 97.81,-24.56"/>
</a>
</g>
</g>
<!-- Node7 -->
<g id="Node000007" class="node">
<title>Node7</title>
<g id="a_Node000007"><a xlink:title=" ">
<polygon fill="#e0e0e0" stroke="#999999" points="171.25,-20 117.75,-20 117.75,0 171.25,0 171.25,-20"/>
<text text-anchor="middle" x="144.5" y="-6.5" font-family="Helvetica,sans-Serif" font-size="10.00">iostream</text>
</a>
</g>
</g>
<!-- Node6&#45;&gt;Node7 -->
<g id="edge9_Node000006_Node000007" class="edge">
<title>Node6&#45;&gt;Node7</title>
<g id="a_edge9_Node000006_Node000007"><a xlink:title=" ">
<path fill="none" stroke="#63b8ff" d="M144.5,-55.59C144.5,-49.01 144.5,-39.96 144.5,-31.73"/>
<polygon fill="#63b8ff" stroke="#63b8ff" points="148,-31.81 144.5,-21.81 141,-31.81 148,-31.81"/>
</a>
</g>
</g>
</g>
</svg>
