<?xml version="1.0" encoding="UTF-8" standalone="no"?>
<!DOCTYPE svg PUBLIC "-//W3C//DTD SVG 1.1//EN"
 "http://www.w3.org/Graphics/SVG/1.1/DTD/svg11.dtd">
<!-- Generated by graphviz version 12.1.0 (20240811.2233)
 -->
<!-- Title: include/file_operations.h Pages: 1 -->
<svg width="356pt" height="84pt"
 viewBox="0.00 0.00 356.25 84.00" xmlns="http://www.w3.org/2000/svg" xmlns:xlink="http://www.w3.org/1999/xlink">

<svg id="main" version="1.1" xmlns="http://www.w3.org/2000/svg" xmlns:xlink="http://www.w3.org/1999/xlink" xml:space="preserve">

<style type="text/css"><![CDATA[
.node, .edge {opacity: 0.7;}
.node.selected, .edge.selected {opacity: 1;}
.edge:hover path { stroke: red; }
.edge:hover polygon { stroke: red; fill: red; }
]]></style>
<script type="application/ecmascript" xlink:href="svg.min.js"/>
<svg id="graph" class="graph">
<g id="graph0" class="graph" transform="scale(1 1) rotate(0) translate(4 80)">
<title>include/file_operations.h</title>
<!-- Node1 -->
<g id="Node000001" class="node">
<title>Node1</title>
<g id="a_Node000001"><a xlink:title=" ">
<polygon fill="#999999" stroke="#666666" points="228.62,-76 107.62,-76 107.62,-56 228.62,-56 228.62,-76"/>
<text text-anchor="middle" x="168.12" y="-62.5" font-family="Helvetica,sans-Serif" font-size="10.00">include/file_operations.h</text>
</a>
</g>
</g>
<!-- Node2 -->
<g id="Node000002" class="node">
<title>Node2</title>
<g id="a_Node000002"><a xlink:href="file__operations_8cpp.html" target="_top" xlink:title=" ">
<polygon fill="white" stroke="#666666" points="114.25,-20 0,-20 0,0 114.25,0 114.25,-20"/>
<text text-anchor="middle" x="57.12" y="-6.5" font-family="Helvetica,sans-Serif" font-size="10.00">src/file_operations.cpp</text>
</a>
</g>
</g>
<!-- Node1&#45;&gt;Node2 -->
<g id="edge1_Node000001_Node000002" class="edge">
<title>Node1&#45;&gt;Node2</title>
<g id="a_edge1_Node000001_Node000002"><a xlink:title=" ">
<path fill="none" stroke="#63b8ff" d="M138.55,-50.61C118.93,-41.07 93.74,-28.81 76.61,-20.48"/>
<polygon fill="#63b8ff" stroke="#63b8ff" points="136.91,-53.7 147.43,-54.93 139.97,-47.41 136.91,-53.7"/>
</a>
</g>
</g>
<!-- Node3 -->
<g id="Node000003" class="node">
<title>Node3</title>
<g id="a_Node000003"><a xlink:href="main_8cpp.html" target="_top" xlink:title=" ">
<polygon fill="white" stroke="#666666" points="204.25,-20 132,-20 132,0 204.25,0 204.25,-20"/>
<text text-anchor="middle" x="168.12" y="-6.5" font-family="Helvetica,sans-Serif" font-size="10.00">src/main.cpp</text>
</a>
</g>
</g>
<!-- Node1&#45;&gt;Node3 -->
<g id="edge2_Node000001_Node000003" class="edge">
<title>Node1&#45;&gt;Node3</title>
<g id="a_edge2_Node000001_Node000003"><a xlink:title=" ">
<path fill="none" stroke="#63b8ff" d="M168.12,-44.13C168.12,-35.9 168.12,-26.85 168.12,-20.3"/>
<polygon fill="#63b8ff" stroke="#63b8ff" points="164.63,-44.08 168.13,-54.08 171.63,-44.08 164.63,-44.08"/>
</a>
</g>
</g>
<!-- Node4 -->
<g id="Node000004" class="node">
<title>Node4</title>
<g id="a_Node000004"><a xlink:href="student__manager_8cpp.html" target="_top" xlink:title=" ">
<polygon fill="white" stroke="#666666" points="348.25,-20 222,-20 222,0 348.25,0 348.25,-20"/>
<text text-anchor="middle" x="285.12" y="-6.5" font-family="Helvetica,sans-Serif" font-size="10.00">src/student_manager.cpp</text>
</a>
</g>
</g>
<!-- Node1&#45;&gt;Node4 -->
<g id="edge3_Node000001_Node000004" class="edge">
<title>Node1&#45;&gt;Node4</title>
<g id="a_edge3_Node000001_Node000004"><a xlink:title=" ">
<path fill="none" stroke="#63b8ff" d="M198.72,-50.88C219.48,-41.3 246.36,-28.89 264.59,-20.48"/>
<polygon fill="#63b8ff" stroke="#63b8ff" points="197.49,-47.59 189.88,-54.96 200.43,-53.95 197.49,-47.59"/>
</a>
</g>
</g>
</g>
</svg>
</svg>

<style type='text/css'>
<![CDATA[
[data-mouse-over-selected='false'] { opacity: 0.7; }
[data-mouse-over-selected='true']  { opacity: 1.0; }
]]>
</style>
<script type="application/ecmascript"><![CDATA[
document.addEventListener('DOMContentLoaded', (event) => {
  highlightEdges();
  highlightAdjacentNodes();
});
]]></script>
</svg>
