<?xml version="1.0" encoding="UTF-8" standalone="no"?>
<!DOCTYPE svg PUBLIC "-//W3C//DTD SVG 1.1//EN"
 "http://www.w3.org/Graphics/SVG/1.1/DTD/svg11.dtd">
<!-- Generated by graphviz version 12.1.0 (20240811.2233)
 -->
<!-- Title: src/file_operations.cpp Pages: 1 -->
<svg width="343pt" height="252pt"
 viewBox="0.00 0.00 343.00 252.00" xmlns="http://www.w3.org/2000/svg" xmlns:xlink="http://www.w3.org/1999/xlink">

<svg id="main" version="1.1" xmlns="http://www.w3.org/2000/svg" xmlns:xlink="http://www.w3.org/1999/xlink" xml:space="preserve">

<style type="text/css"><![CDATA[
.node, .edge {opacity: 0.7;}
.node.selected, .edge.selected {opacity: 1;}
.edge:hover path { stroke: red; }
.edge:hover polygon { stroke: red; fill: red; }
]]></style>
<script type="application/ecmascript" xlink:href="svg.min.js"/>
<svg id="graph" class="graph">
<g id="graph0" class="graph" transform="scale(1 1) rotate(0) translate(4 248)">
<title>src/file_operations.cpp</title>
<!-- Node1 -->
<g id="Node000001" class="node">
<title>Node1</title>
<g id="a_Node000001"><a xlink:title=" ">
<polygon fill="#999999" stroke="#666666" points="271.38,-244 157.12,-244 157.12,-224 271.38,-224 271.38,-244"/>
<text text-anchor="middle" x="214.25" y="-230.5" font-family="Helvetica,sans-Serif" font-size="10.00">src/file_operations.cpp</text>
</a>
</g>
</g>
<!-- Node2 -->
<g id="Node000002" class="node">
<title>Node2</title>
<g id="a_Node000002"><a xlink:href="file__operations_8h.html" target="_top" xlink:title=" ">
<polygon fill="white" stroke="#666666" points="185.88,-188 98.62,-188 98.62,-168 185.88,-168 185.88,-188"/>
<text text-anchor="middle" x="142.25" y="-174.5" font-family="Helvetica,sans-Serif" font-size="10.00">file_operations.h</text>
</a>
</g>
</g>
<!-- Node1&#45;&gt;Node2 -->
<g id="edge1_Node000001_Node000002" class="edge">
<title>Node1&#45;&gt;Node2</title>
<g id="a_edge1_Node000001_Node000002"><a xlink:title=" ">
<path fill="none" stroke="#63b8ff" d="M201.71,-223.59C191.28,-215.77 176.2,-204.46 163.84,-195.19"/>
<polygon fill="#63b8ff" stroke="#63b8ff" points="165.96,-192.41 155.86,-189.21 161.76,-198.01 165.96,-192.41"/>
</a>
</g>
</g>
<!-- Node7 -->
<g id="Node000007" class="node">
<title>Node7</title>
<g id="a_Node000007"><a xlink:href="normative_8h.html" target="_top" xlink:title=" ">
<polygon fill="white" stroke="#666666" points="278.75,-76 211.75,-76 211.75,-56 278.75,-56 278.75,-76"/>
<text text-anchor="middle" x="245.25" y="-62.5" font-family="Helvetica,sans-Serif" font-size="10.00">normative.h</text>
</a>
</g>
</g>
<!-- Node1&#45;&gt;Node7 -->
<g id="edge13_Node000001_Node000007" class="edge">
<title>Node1&#45;&gt;Node7</title>
<g id="a_edge13_Node000001_Node000007"><a xlink:title=" ">
<path fill="none" stroke="#63b8ff" d="M216.01,-223.6C220.89,-197.46 234.7,-123.48 241.45,-87.36"/>
<polygon fill="#63b8ff" stroke="#63b8ff" points="244.84,-88.26 243.24,-77.79 237.96,-86.97 244.84,-88.26"/>
</a>
</g>
</g>
<!-- Node8 -->
<g id="Node000008" class="node">
<title>Node8</title>
<g id="a_Node000008"><a xlink:title=" ">
<polygon fill="#e0e0e0" stroke="#999999" points="335,-20 281.5,-20 281.5,0 335,0 335,-20"/>
<text text-anchor="middle" x="308.25" y="-6.5" font-family="Helvetica,sans-Serif" font-size="10.00">iostream</text>
</a>
</g>
</g>
<!-- Node1&#45;&gt;Node8 -->
<g id="edge12_Node000001_Node000008" class="edge">
<title>Node1&#45;&gt;Node8</title>
<g id="a_edge12_Node000001_Node000008"><a xlink:title=" ">
<path fill="none" stroke="#63b8ff" d="M250.76,-223.64C269.17,-216.91 289.93,-205.79 301.25,-188 332.27,-139.24 321.52,-66.69 313.61,-31.55"/>
<polygon fill="#63b8ff" stroke="#63b8ff" points="317.02,-30.77 311.26,-21.88 310.22,-32.42 317.02,-30.77"/>
</a>
</g>
</g>
<!-- Node9 -->
<g id="Node000009" class="node">
<title>Node9</title>
<g id="a_Node000009"><a xlink:title=" ">
<polygon fill="#e0e0e0" stroke="#999999" points="291.75,-188 242.75,-188 242.75,-168 291.75,-168 291.75,-188"/>
<text text-anchor="middle" x="267.25" y="-174.5" font-family="Helvetica,sans-Serif" font-size="10.00">fstream</text>
</a>
</g>
</g>
<!-- Node1&#45;&gt;Node9 -->
<g id="edge11_Node000001_Node000009" class="edge">
<title>Node1&#45;&gt;Node9</title>
<g id="a_edge11_Node000001_Node000009"><a xlink:title=" ">
<path fill="none" stroke="#63b8ff" d="M223.48,-223.59C230.85,-216.08 241.38,-205.35 250.27,-196.3"/>
<polygon fill="#63b8ff" stroke="#63b8ff" points="252.56,-198.97 257.06,-189.38 247.56,-194.06 252.56,-198.97"/>
</a>
</g>
</g>
<!-- Node10 -->
<g id="Node000010" class="node">
<title>Node10</title>
<g id="a_Node000010"><a xlink:href="crypto__utils_8h.html" target="_top" xlink:title=" ">
<polygon fill="white" stroke="#666666" points="74.5,-132 0,-132 0,-112 74.5,-112 74.5,-132"/>
<text text-anchor="middle" x="37.25" y="-118.5" font-family="Helvetica,sans-Serif" font-size="10.00">crypto_utils.h</text>
</a>
</g>
</g>
<!-- Node1&#45;&gt;Node10 -->
<g id="edge14_Node000001_Node000010" class="edge">
<title>Node1&#45;&gt;Node10</title>
<g id="a_edge14_Node000001_Node000010"><a xlink:title=" ">
<path fill="none" stroke="#63b8ff" d="M170.35,-223.54C145,-216.6 113.45,-205.31 89.25,-188 72.03,-175.69 57.5,-156.19 48.21,-141.76"/>
<polygon fill="#63b8ff" stroke="#63b8ff" points="51.42,-140.3 43.2,-133.61 45.46,-143.96 51.42,-140.3"/>
</a>
</g>
</g>
<!-- Node3 -->
<g id="Node000003" class="node">
<title>Node3</title>
<g id="a_Node000003"><a xlink:title=" ">
<polygon fill="#e0e0e0" stroke="#999999" points="116.75,-76 73.75,-76 73.75,-56 116.75,-56 116.75,-76"/>
<text text-anchor="middle" x="95.25" y="-62.5" font-family="Helvetica,sans-Serif" font-size="10.00">vector</text>
</a>
</g>
</g>
<!-- Node2&#45;&gt;Node3 -->
<g id="edge2_Node000002_Node000003" class="edge">
<title>Node2&#45;&gt;Node3</title>
<g id="a_edge2_Node000002_Node000003"><a xlink:title=" ">
<path fill="none" stroke="#63b8ff" d="M137.75,-167.76C133.39,-158.71 126.66,-144.5 121.25,-132 114.74,-116.97 107.88,-99.75 102.84,-86.82"/>
<polygon fill="#63b8ff" stroke="#63b8ff" points="106.2,-85.8 99.34,-77.74 99.67,-88.33 106.2,-85.8"/>
</a>
</g>
</g>
<!-- Node4 -->
<g id="Node000004" class="node">
<title>Node4</title>
<g id="a_Node000004"><a xlink:href="student_8h.html" target="_top" xlink:title=" ">
<polygon fill="white" stroke="#666666" points="186.5,-132 130,-132 130,-112 186.5,-112 186.5,-132"/>
<text text-anchor="middle" x="158.25" y="-118.5" font-family="Helvetica,sans-Serif" font-size="10.00">student.h</text>
</a>
</g>
</g>
<!-- Node2&#45;&gt;Node4 -->
<g id="edge3_Node000002_Node000004" class="edge">
<title>Node2&#45;&gt;Node4</title>
<g id="a_edge3_Node000002_Node000004"><a xlink:title=" ">
<path fill="none" stroke="#63b8ff" d="M145.04,-167.59C147.03,-160.86 149.8,-151.53 152.28,-143.15"/>
<polygon fill="#63b8ff" stroke="#63b8ff" points="155.58,-144.33 155.06,-133.75 148.87,-142.34 155.58,-144.33"/>
</a>
</g>
</g>
<!-- Node4&#45;&gt;Node3 -->
<g id="edge5_Node000004_Node000003" class="edge">
<title>Node4&#45;&gt;Node3</title>
<g id="a_edge5_Node000004_Node000003"><a xlink:title=" ">
<path fill="none" stroke="#63b8ff" d="M147.28,-111.59C138.33,-103.93 125.48,-92.91 114.79,-83.75"/>
<polygon fill="#63b8ff" stroke="#63b8ff" points="117.12,-81.13 107.25,-77.28 112.56,-86.45 117.12,-81.13"/>
</a>
</g>
</g>
<!-- Node5 -->
<g id="Node000005" class="node">
<title>Node5</title>
<g id="a_Node000005"><a xlink:title=" ">
<polygon fill="#e0e0e0" stroke="#999999" points="165.25,-20 125.25,-20 125.25,0 165.25,0 165.25,-20"/>
<text text-anchor="middle" x="145.25" y="-6.5" font-family="Helvetica,sans-Serif" font-size="10.00">string</text>
</a>
</g>
</g>
<!-- Node4&#45;&gt;Node5 -->
<g id="edge4_Node000004_Node000005" class="edge">
<title>Node4&#45;&gt;Node5</title>
<g id="a_edge4_Node000004_Node000005"><a xlink:title=" ">
<path fill="none" stroke="#63b8ff" d="M157.14,-111.62C155.06,-94.01 150.52,-55.59 147.69,-31.65"/>
<polygon fill="#63b8ff" stroke="#63b8ff" points="151.18,-31.38 146.53,-21.86 144.23,-32.2 151.18,-31.38"/>
</a>
</g>
</g>
<!-- Node6 -->
<g id="Node000006" class="node">
<title>Node6</title>
<g id="a_Node000006"><a xlink:title=" ">
<polygon fill="#e0e0e0" stroke="#999999" points="252.88,-20 201.62,-20 201.62,0 252.88,0 252.88,-20"/>
<text text-anchor="middle" x="227.25" y="-6.5" font-family="Helvetica,sans-Serif" font-size="10.00">memory</text>
</a>
</g>
</g>
<!-- Node4&#45;&gt;Node6 -->
<g id="edge6_Node000004_Node000006" class="edge">
<title>Node4&#45;&gt;Node6</title>
<g id="a_edge6_Node000004_Node000006"><a xlink:title=" ">
<path fill="none" stroke="#63b8ff" d="M164.13,-111.62C175.44,-93.6 200.39,-53.81 215.32,-30.02"/>
<polygon fill="#63b8ff" stroke="#63b8ff" points="218.23,-31.97 220.58,-21.64 212.3,-28.25 218.23,-31.97"/>
</a>
</g>
</g>
<!-- Node4&#45;&gt;Node7 -->
<g id="edge7_Node000004_Node000007" class="edge">
<title>Node4&#45;&gt;Node7</title>
<g id="a_edge7_Node000004_Node000007"><a xlink:title=" ">
<path fill="none" stroke="#63b8ff" d="M173.4,-111.59C186.3,-103.59 205.08,-91.93 220.21,-82.54"/>
<polygon fill="#63b8ff" stroke="#63b8ff" points="222.04,-85.53 228.69,-77.28 218.35,-79.58 222.04,-85.53"/>
</a>
</g>
</g>
<!-- Node7&#45;&gt;Node5 -->
<g id="edge8_Node000007_Node000005" class="edge">
<title>Node7&#45;&gt;Node5</title>
<g id="a_edge8_Node000007_Node000005"><a xlink:title=" ">
<path fill="none" stroke="#63b8ff" d="M227.83,-55.59C212.58,-47.36 190.17,-35.26 172.54,-25.74"/>
<polygon fill="#63b8ff" stroke="#63b8ff" points="174.6,-22.87 164.14,-21.2 171.27,-29.03 174.6,-22.87"/>
</a>
</g>
</g>
<!-- Node7&#45;&gt;Node6 -->
<g id="edge9_Node000007_Node000006" class="edge">
<title>Node7&#45;&gt;Node6</title>
<g id="a_edge9_Node000007_Node000006"><a xlink:title=" ">
<path fill="none" stroke="#63b8ff" d="M242.11,-55.59C239.87,-48.86 236.76,-39.53 233.97,-31.15"/>
<polygon fill="#63b8ff" stroke="#63b8ff" points="237.31,-30.11 230.83,-21.73 230.67,-32.33 237.31,-30.11"/>
</a>
</g>
</g>
<!-- Node7&#45;&gt;Node8 -->
<g id="edge10_Node000007_Node000008" class="edge">
<title>Node7&#45;&gt;Node8</title>
<g id="a_edge10_Node000007_Node000008"><a xlink:title=" ">
<path fill="none" stroke="#63b8ff" d="M256.22,-55.59C265.17,-47.93 278.02,-36.91 288.71,-27.75"/>
<polygon fill="#63b8ff" stroke="#63b8ff" points="290.94,-30.45 296.25,-21.28 286.38,-25.13 290.94,-30.45"/>
</a>
</g>
</g>
<!-- Node10&#45;&gt;Node5 -->
<g id="edge15_Node000010_Node000005" class="edge">
<title>Node10&#45;&gt;Node5</title>
<g id="a_edge15_Node000010_Node000005"><a xlink:title=" ">
<path fill="none" stroke="#63b8ff" d="M39.28,-111.56C42.62,-97.9 50.46,-72.44 65.25,-56 78.71,-41.03 98.37,-29.88 114.83,-22.42"/>
<polygon fill="#63b8ff" stroke="#63b8ff" points="115.87,-25.78 123.69,-18.64 113.12,-19.34 115.87,-25.78"/>
</a>
</g>
</g>
</g>
</svg>
</svg>

<style type='text/css'>
<![CDATA[
[data-mouse-over-selected='false'] { opacity: 0.7; }
[data-mouse-over-selected='true']  { opacity: 1.0; }
]]>
</style>
<script type="application/ecmascript"><![CDATA[
document.addEventListener('DOMContentLoaded', (event) => {
  highlightEdges();
  highlightAdjacentNodes();
});
]]></script>
</svg>
