<?xml version="1.0" encoding="UTF-8" standalone="no"?>
<!DOCTYPE svg PUBLIC "-//W3C//DTD SVG 1.1//EN"
 "http://www.w3.org/Graphics/SVG/1.1/DTD/svg11.dtd">
<!-- Generated by graphviz version 12.1.0 (20240811.2233)
 -->
<!-- Title: Graphical Class Hierarchy Pages: 1 -->
<svg width="160pt" height="142pt"
 viewBox="0.00 0.00 160.00 142.00" xmlns="http://www.w3.org/2000/svg" xmlns:xlink="http://www.w3.org/1999/xlink">
<g id="graph0" class="graph" transform="scale(1 1) rotate(0) translate(4 138)">
<title>Graphical Class Hierarchy</title>
<!-- Node0 -->
<g id="Node000000" class="node">
<title>Node0</title>
<g id="a_Node000000"><a xlink:href="structNormative.html" target="_top" xlink:title=" ">
<polygon fill="white" stroke="#666666" points="61,-77 0,-77 0,-57 61,-57 61,-77"/>
<text text-anchor="middle" x="30.5" y="-63.5" font-family="Helvetica,sans-Serif" font-size="10.00">Normative</text>
</a>
</g>
</g>
<!-- Node1 -->
<g id="Node000001" class="node">
<title>Node1</title>
<g id="a_Node000001"><a xlink:href="structPullUps.html" target="_top" xlink:title=" ">
<polygon fill="white" stroke="#666666" points="149.75,-134 99.25,-134 99.25,-114 149.75,-114 149.75,-134"/>
<text text-anchor="middle" x="124.5" y="-120.5" font-family="Helvetica,sans-Serif" font-size="10.00">PullUps</text>
</a>
</g>
</g>
<!-- Node0&#45;&gt;Node1 -->
<g id="edge1_Node000000_Node000001" class="edge">
<title>Node0&#45;&gt;Node1</title>
<g id="a_edge1_Node000000_Node000001"><a xlink:title=" ">
<path fill="none" stroke="#63b8ff" d="M58.06,-83.45C73.75,-93.18 93.15,-105.19 106.73,-113.61"/>
<polygon fill="#63b8ff" stroke="#63b8ff" points="60,-80.54 49.66,-78.25 56.32,-86.49 60,-80.54"/>
</a>
</g>
</g>
<!-- Node2 -->
<g id="Node000002" class="node">
<title>Node2</title>
<g id="a_Node000002"><a xlink:href="structRun100.html" target="_top" xlink:title=" ">
<polygon fill="white" stroke="#666666" points="149.38,-96 99.62,-96 99.62,-76 149.38,-76 149.38,-96"/>
<text text-anchor="middle" x="124.5" y="-82.5" font-family="Helvetica,sans-Serif" font-size="10.00">Run100</text>
</a>
</g>
</g>
<!-- Node0&#45;&gt;Node2 -->
<g id="edge2_Node000000_Node000002" class="edge">
<title>Node0&#45;&gt;Node2</title>
<g id="a_edge2_Node000000_Node000002"><a xlink:title=" ">
<path fill="none" stroke="#63b8ff" d="M72.36,-75.44C81.56,-77.34 91.04,-79.3 99.3,-81"/>
<polygon fill="#63b8ff" stroke="#63b8ff" points="73.35,-72.07 62.85,-73.47 71.94,-78.93 73.35,-72.07"/>
</a>
</g>
</g>
<!-- Node3 -->
<g id="Node000003" class="node">
<title>Node3</title>
<g id="a_Node000003"><a xlink:href="structRun1000.html" target="_top" xlink:title=" ">
<polygon fill="white" stroke="#666666" points="152,-58 97,-58 97,-38 152,-38 152,-58"/>
<text text-anchor="middle" x="124.5" y="-44.5" font-family="Helvetica,sans-Serif" font-size="10.00">Run1000</text>
</a>
</g>
</g>
<!-- Node0&#45;&gt;Node3 -->
<g id="edge3_Node000000_Node000003" class="edge">
<title>Node0&#45;&gt;Node3</title>
<g id="a_edge3_Node000000_Node000003"><a xlink:title=" ">
<path fill="none" stroke="#63b8ff" d="M72.61,-58.51C80.74,-56.83 89.07,-55.11 96.58,-53.56"/>
<polygon fill="#63b8ff" stroke="#63b8ff" points="71.94,-55.07 62.85,-60.53 73.35,-61.93 71.94,-55.07"/>
</a>
</g>
</g>
<!-- Node4 -->
<g id="Node000004" class="node">
<title>Node4</title>
<g id="a_Node000004"><a xlink:href="structSwim.html" target="_top" xlink:title=" ">
<polygon fill="white" stroke="#666666" points="144.88,-20 104.12,-20 104.12,0 144.88,0 144.88,-20"/>
<text text-anchor="middle" x="124.5" y="-6.5" font-family="Helvetica,sans-Serif" font-size="10.00">Swim</text>
</a>
</g>
</g>
<!-- Node0&#45;&gt;Node4 -->
<g id="edge4_Node000000_Node000004" class="edge">
<title>Node0&#45;&gt;Node4</title>
<g id="a_edge4_Node000000_Node000004"><a xlink:title=" ">
<path fill="none" stroke="#63b8ff" d="M58.06,-50.55C73.75,-40.82 93.15,-28.81 106.73,-20.39"/>
<polygon fill="#63b8ff" stroke="#63b8ff" points="56.32,-47.51 49.66,-55.75 60,-53.46 56.32,-47.51"/>
</a>
</g>
</g>
</g>
</svg>
