<?xml version="1.0" encoding="UTF-8" standalone="no"?>
<!DOCTYPE svg PUBLIC "-//W3C//DTD SVG 1.1//EN"
 "http://www.w3.org/Graphics/SVG/1.1/DTD/svg11.dtd">
<!-- Generated by graphviz version 12.1.0 (20240811.2233)
 -->
<!-- Title: main Pages: 1 -->
<!--zoomable 548 -->

<svg id="main" version="1.1" xmlns="http://www.w3.org/2000/svg" xmlns:xlink="http://www.w3.org/1999/xlink" xml:space="preserve" onload="init(evt)">

<style type="text/css"><![CDATA[
.node, .edge {opacity: 0.7;}
.node.selected, .edge.selected {opacity: 1;}
.edge:hover path { stroke: red; }
.edge:hover polygon { stroke: red; fill: red; }
]]></style>

<defs>
  <circle id="rim" cx="0" cy="0" r="7"/>
  <circle id="rim2" cx="0" cy="0" r="3.5"/>
  <g id="zoomPlus">
    <use xlink:href="#rim" fill="#404040"><set attributeName="fill" to="#808080" begin="zoomplus.mouseover" end="zoomplus.mouseout"/></use>
    <path d="M-4,0h8M0,-4v8" fill="none" stroke="white" stroke-width="1.5" pointer-events="none"/>
  </g>
  <g id="zoomMin">
    <use xlink:href="#rim" fill="#404040"><set attributeName="fill" to="#808080" begin="zoomminus.mouseover" end="zoomminus.mouseout"/></use>
    <path d="M-4,0h8" fill="none" stroke="white" stroke-width="1.5" pointer-events="none"/>
  </g>
  <g id="arrowUp" transform="translate(30 24)">
    <use xlink:href="#rim"/>
    <path pointer-events="none" fill="none" stroke="white" stroke-width="1.5" d="M0,-3.0v7 M-2.5,-0.5L0,-3.0L2.5,-0.5"/>
  </g>
  <g id="arrowRight" transform="rotate(90) translate(36 -43)">
    <use xlink:href="#rim"/>
    <path pointer-events="none" fill="none" stroke="white" stroke-width="1.5" d="M0,-3.0v7 M-2.5,-0.5L0,-3.0L2.5,-0.5"/>
  </g>
  <g id="arrowDown" transform="rotate(180) translate(-30 -48)">
    <use xlink:href="#rim"/>
    <path pointer-events="none" fill="none" stroke="white" stroke-width="1.5" d="M0,-3.0v7 M-2.5,-0.5L0,-3.0L2.5,-0.5"/>
  </g>
  <g id="arrowLeft" transform="rotate(270) translate(-36 17)">
    <use xlink:href="#rim"/>
    <path pointer-events="none" fill="none" stroke="white" stroke-width="1.5" d="M0,-3.0v7 M-2.5,-0.5L0,-3.0L2.5,-0.5"/>
  </g>
  <g id="resetDef">
    <use xlink:href="#rim2" fill="#404040"><set attributeName="fill" to="#808080" begin="reset.mouseover" end="reset.mouseout"/></use>
  </g>
</defs>
<script type="application/ecmascript">
var viewWidth = 499;
var viewHeight = 548;
var sectionId = 'dynsection-1';
</script>
<script type="application/ecmascript" xlink:href="svg.min.js"/>
<svg id="graph" class="graph">
<g id="viewport">
<title>main</title>
<!-- Node1 -->
<g id="Node000001" class="node">
<title>Node1</title>
<g id="a_Node000001"><a xlink:title=" ">
<polygon fill="#999999" stroke="#666666" points="37,-362 0,-362 0,-342 37,-342 37,-362"/>
<text text-anchor="middle" x="18.5" y="-348.5" font-family="Helvetica,sans-Serif" font-size="10.00">main</text>
</a>
</g>
</g>
<!-- Node2 -->
<g id="Node000002" class="node">
<title>Node2</title>
<g id="a_Node000002"><a xlink:href="student__manager_8cpp.html#a296bc20e4de770091ae3270bbca51366" target="_top" xlink:title=" ">
<polygon fill="white" stroke="#666666" points="165.5,-286 100,-286 100,-266 165.5,-266 165.5,-286"/>
<text text-anchor="middle" x="132.75" y="-272.5" font-family="Helvetica,sans-Serif" font-size="10.00">addStudent</text>
</a>
</g>
</g>
<!-- Node1&#45;&gt;Node2 -->
<g id="edge1_Node000001_Node000002" class="edge">
<title>Node1&#45;&gt;Node2</title>
<g id="a_edge1_Node000001_Node000002"><a xlink:title=" ">
<path fill="none" stroke="#63b8ff" d="M26.63,-341.65C35.91,-328.93 53.28,-307.5 73,-295 77.91,-291.89 83.38,-289.24 88.94,-287"/>
<polygon fill="#63b8ff" stroke="#63b8ff" points="89.98,-290.35 98.23,-283.69 87.63,-283.75 89.98,-290.35"/>
</a>
</g>
</g>
<!-- Node3 -->
<g id="Node000003" class="node">
<title>Node3</title>
<g id="a_Node000003"><a xlink:href="validation_8cpp.html#a22d7c3e857afba4903a76181f91ea9fb" target="_top" xlink:title=" ">
<polygon fill="white" stroke="#666666" points="335.25,-476 251,-476 251,-456 335.25,-456 335.25,-476"/>
<text text-anchor="middle" x="293.12" y="-462.5" font-family="Helvetica,sans-Serif" font-size="10.00">clearInputBuffer</text>
</a>
</g>
</g>
<!-- Node1&#45;&gt;Node3 -->
<g id="edge9_Node000001_Node000003" class="edge">
<title>Node1&#45;&gt;Node3</title>
<g id="a_edge9_Node000001_Node000003"><a xlink:title=" ">
<path fill="none" stroke="#63b8ff" d="M18.98,-362.39C18.06,-393.17 20.11,-484.13 73,-523 133.99,-567.83 227.21,-512.97 269.66,-483.02"/>
<polygon fill="#63b8ff" stroke="#63b8ff" points="271.58,-485.96 277.63,-477.25 267.47,-480.29 271.58,-485.96"/>
</a>
</g>
</g>
<!-- Node8 -->
<g id="Node000008" class="node">
<title>Node8</title>
<g id="a_Node000008"><a xlink:href="file__operations_8cpp.html#a3218cc673e0643b611aa88e43c12bfb0" target="_top" xlink:title=" ">
<polygon fill="white" stroke="#666666" points="324.75,-438 261.5,-438 261.5,-418 324.75,-418 324.75,-438"/>
<text text-anchor="middle" x="293.12" y="-424.5" font-family="Helvetica,sans-Serif" font-size="10.00">saveToFile</text>
</a>
</g>
</g>
<!-- Node1&#45;&gt;Node8 -->
<g id="edge34_Node000001_Node000008" class="edge">
<title>Node1&#45;&gt;Node8</title>
<g id="a_edge34_Node000001_Node000008"><a xlink:title=" ">
<path fill="none" stroke="#63b8ff" d="M37.43,-351.59C69.42,-351.39 138.05,-353.29 192.5,-371 220.58,-380.13 249.53,-397.79 268.93,-411.04"/>
<polygon fill="#63b8ff" stroke="#63b8ff" points="266.72,-413.76 276.92,-416.64 270.74,-408.03 266.72,-413.76"/>
</a>
</g>
</g>
<!-- Node10 -->
<g id="Node000010" class="node">
<title>Node10</title>
<g id="a_Node000010"><a xlink:href="student__manager_8cpp.html#ac27cdaec67b495d7e565e8b986072b54" target="_top" xlink:title=" ">
<polygon fill="white" stroke="#666666" points="170.75,-438 94.75,-438 94.75,-418 170.75,-418 170.75,-438"/>
<text text-anchor="middle" x="132.75" y="-424.5" font-family="Helvetica,sans-Serif" font-size="10.00">deleteStudent</text>
</a>
</g>
</g>
<!-- Node1&#45;&gt;Node10 -->
<g id="edge10_Node000001_Node000010" class="edge">
<title>Node1&#45;&gt;Node10</title>
<g id="a_edge10_Node000001_Node000010"><a xlink:title=" ">
<path fill="none" stroke="#63b8ff" d="M26.63,-362.35C35.91,-375.07 53.28,-396.5 73,-409 76.46,-411.2 80.2,-413.16 84.06,-414.91"/>
<polygon fill="#63b8ff" stroke="#63b8ff" points="82.44,-418.03 93.03,-418.5 85.05,-411.53 82.44,-418.03"/>
</a>
</g>
</g>
<!-- Node11 -->
<g id="Node000011" class="node">
<title>Node11</title>
<g id="a_Node000011"><a xlink:href="student__manager_8cpp.html#ac68e9c50d3fd6078f5a0444642c6573e" target="_top" xlink:title=" ">
<polygon fill="white" stroke="#666666" points="165.5,-324 100,-324 100,-304 165.5,-304 165.5,-324"/>
<text text-anchor="middle" x="132.75" y="-310.5" font-family="Helvetica,sans-Serif" font-size="10.00">editStudent</text>
</a>
</g>
</g>
<!-- Node1&#45;&gt;Node11 -->
<g id="edge13_Node000001_Node000011" class="edge">
<title>Node1&#45;&gt;Node11</title>
<g id="a_edge13_Node000001_Node000011"><a xlink:title=" ">
<path fill="none" stroke="#63b8ff" d="M37.29,-345.98C51.48,-341.17 71.95,-334.25 90.2,-328.07"/>
<polygon fill="#63b8ff" stroke="#63b8ff" points="91.13,-331.44 99.48,-324.92 88.89,-324.81 91.13,-331.44"/>
</a>
</g>
</g>
<!-- Node12 -->
<g id="Node000012" class="node">
<title>Node12</title>
<g id="a_Node000012"><a xlink:href="student__manager_8cpp.html#a59cac15328c5b875dbe9096b5f9aa15d" target="_top" xlink:title=" ">
<polygon fill="white" stroke="#666666" points="172.62,-400 92.88,-400 92.88,-380 172.62,-380 172.62,-400"/>
<text text-anchor="middle" x="132.75" y="-386.5" font-family="Helvetica,sans-Serif" font-size="10.00">importFromTxt</text>
</a>
</g>
</g>
<!-- Node1&#45;&gt;Node12 -->
<g id="edge20_Node000001_Node000012" class="edge">
<title>Node1&#45;&gt;Node12</title>
<g id="a_edge20_Node000001_Node000012"><a xlink:title=" ">
<path fill="none" stroke="#63b8ff" d="M37.29,-358.02C51.48,-362.83 71.95,-369.75 90.2,-375.93"/>
<polygon fill="#63b8ff" stroke="#63b8ff" points="88.89,-379.19 99.48,-379.08 91.13,-372.56 88.89,-379.19"/>
</a>
</g>
</g>
<!-- Node14 -->
<g id="Node000014" class="node">
<title>Node14</title>
<g id="a_Node000014"><a xlink:href="file__operations_8cpp.html#a4e140f80f8c5260bbb80e7e06e0b9e55" target="_top" xlink:title=" ">
<polygon fill="white" stroke="#666666" points="168.88,-248 96.62,-248 96.62,-228 168.88,-228 168.88,-248"/>
<text text-anchor="middle" x="132.75" y="-234.5" font-family="Helvetica,sans-Serif" font-size="10.00">loadFromFile</text>
</a>
</g>
</g>
<!-- Node1&#45;&gt;Node14 -->
<g id="edge28_Node000001_Node000014" class="edge">
<title>Node1&#45;&gt;Node14</title>
<g id="a_edge28_Node000001_Node000014"><a xlink:title=" ">
<path fill="none" stroke="#63b8ff" d="M22.49,-341.77C28.67,-322.38 44.72,-280.12 73,-257 76.89,-253.82 81.32,-251.17 85.96,-248.96"/>
<polygon fill="#63b8ff" stroke="#63b8ff" points="86.97,-252.33 94.94,-245.36 84.36,-245.83 86.97,-252.33"/>
</a>
</g>
</g>
<!-- Node16 -->
<g id="Node000016" class="node">
<title>Node16</title>
<g id="a_Node000016"><a xlink:href="student__manager_8cpp.html#ab0cbebb5901286c6adb31d16dfb9b3e2" target="_top" xlink:title=" ">
<polygon fill="white" stroke="#666666" points="155.75,-210 109.75,-210 109.75,-190 155.75,-190 155.75,-210"/>
<text text-anchor="middle" x="132.75" y="-196.5" font-family="Helvetica,sans-Serif" font-size="10.00">printAll</text>
</a>
</g>
</g>
<!-- Node1&#45;&gt;Node16 -->
<g id="edge30_Node000001_Node000016" class="edge">
<title>Node1&#45;&gt;Node16</title>
<g id="a_edge30_Node000001_Node000016"><a xlink:title=" ">
<path fill="none" stroke="#63b8ff" d="M20.68,-341.69C24.06,-316.9 36.05,-253.46 73,-219 80.02,-212.45 89.32,-208.16 98.45,-205.35"/>
<polygon fill="#63b8ff" stroke="#63b8ff" points="99.02,-208.81 107.86,-202.97 97.31,-202.02 99.02,-208.81"/>
</a>
</g>
</g>
<!-- Node18 -->
<g id="Node000018" class="node">
<title>Node18</title>
<g id="a_Node000018"><a xlink:href="student__manager_8cpp.html#a15e7f6f8aa15eac4382c790faa278a04" target="_top" xlink:title=" ">
<polygon fill="white" stroke="#666666" points="185.38,-514 80.12,-514 80.12,-494 185.38,-494 185.38,-514"/>
<text text-anchor="middle" x="132.75" y="-500.5" font-family="Helvetica,sans-Serif" font-size="10.00">printDebtorsByNorm</text>
</a>
</g>
</g>
<!-- Node1&#45;&gt;Node18 -->
<g id="edge32_Node000001_Node000018" class="edge">
<title>Node1&#45;&gt;Node18</title>
<g id="a_edge32_Node000001_Node000018"><a xlink:title=" ">
<path fill="none" stroke="#63b8ff" d="M20.68,-362.31C24.06,-387.1 36.05,-450.54 73,-485 73.92,-485.86 74.88,-486.68 75.88,-487.46"/>
<polygon fill="#63b8ff" stroke="#63b8ff" points="73.97,-490.4 84.3,-492.75 77.69,-484.47 73.97,-490.4"/>
</a>
</g>
</g>
<!-- Node19 -->
<g id="Node000019" class="node">
<title>Node19</title>
<g id="a_Node000019"><a xlink:href="student__manager_8cpp.html#aba5bd9067aa6f261123165a337c7957d" target="_top" xlink:title=" ">
<polygon fill="white" stroke="#666666" points="164.38,-172 101.12,-172 101.12,-152 164.38,-152 164.38,-172"/>
<text text-anchor="middle" x="132.75" y="-158.5" font-family="Helvetica,sans-Serif" font-size="10.00">showMenu</text>
</a>
</g>
</g>
<!-- Node1&#45;&gt;Node19 -->
<g id="edge35_Node000001_Node000019" class="edge">
<title>Node1&#45;&gt;Node19</title>
<g id="a_edge35_Node000001_Node000019"><a xlink:title=" ">
<path fill="none" stroke="#63b8ff" d="M19.61,-341.92C20.48,-312.75 27.03,-227.41 73,-181 77.74,-176.22 83.68,-172.64 89.96,-169.96"/>
<polygon fill="#63b8ff" stroke="#63b8ff" points="90.95,-173.32 99.25,-166.74 88.66,-166.71 90.95,-173.32"/>
</a>
</g>
</g>
<!-- Node20 -->
<g id="Node000020" class="node">
<title>Node20</title>
<g id="a_Node000020"><a xlink:href="student__manager_8cpp.html#ac8f01328323e90040f53c9effab02c19" target="_top" xlink:title=" ">
<polygon fill="white" stroke="#666666" points="192.5,-476 73,-476 73,-456 192.5,-456 192.5,-476"/>
<text text-anchor="middle" x="132.75" y="-462.5" font-family="Helvetica,sans-Serif" font-size="10.00">sortGroupsByAvgGrade</text>
</a>
</g>
</g>
<!-- Node1&#45;&gt;Node20 -->
<g id="edge36_Node000001_Node000020" class="edge">
<title>Node1&#45;&gt;Node20</title>
<g id="a_edge36_Node000001_Node000020"><a xlink:title=" ">
<path fill="none" stroke="#63b8ff" d="M22.49,-362.23C28.67,-381.62 44.72,-423.88 73,-447 74.32,-448.08 75.71,-449.1 77.14,-450.06"/>
<polygon fill="#63b8ff" stroke="#63b8ff" points="75.44,-453.12 85.88,-454.89 78.82,-446.99 75.44,-453.12"/>
</a>
</g>
</g>
<!-- Node2&#45;&gt;Node3 -->
<g id="edge2_Node000002_Node000003" class="edge">
<title>Node2&#45;&gt;Node3</title>
<g id="a_edge2_Node000002_Node000003"><a xlink:title=" ">
<path fill="none" stroke="#63b8ff" d="M165.73,-280.13C175.51,-282.87 185.52,-287.44 192.5,-295 239.58,-346.02 180.84,-396.52 228.5,-447 231.84,-450.54 235.8,-453.42 240.1,-455.78"/>
<polygon fill="#63b8ff" stroke="#63b8ff" points="238.63,-458.96 249.2,-459.76 241.44,-452.54 238.63,-458.96"/>
</a>
</g>
</g>
<!-- Node4 -->
<g id="Node000004" class="node">
<title>Node4</title>
<g id="a_Node000004"><a xlink:href="validation_8cpp.html#a5af6e666c07b7851889ae4f3ec81ff77" target="_top" xlink:title=" ">
<polygon fill="white" stroke="#666666" points="475,-362 409.5,-362 409.5,-342 475,-342 475,-362"/>
<text text-anchor="middle" x="442.25" y="-348.5" font-family="Helvetica,sans-Serif" font-size="10.00">isValidDate</text>
</a>
</g>
</g>
<!-- Node2&#45;&gt;Node4 -->
<g id="edge3_Node000002_Node000004" class="edge">
<title>Node2&#45;&gt;Node4</title>
<g id="a_edge3_Node000002_Node000004"><a xlink:title=" ">
<path fill="none" stroke="#63b8ff" d="M165.83,-283.21C174.87,-286.06 184.43,-289.91 192.5,-295 212.18,-307.41 207.56,-322.87 228.5,-333 282.43,-359.1 353.02,-359.82 397.77,-356.81"/>
<polygon fill="#63b8ff" stroke="#63b8ff" points="397.91,-360.31 407.61,-356.04 397.37,-353.33 397.91,-360.31"/>
</a>
</g>
</g>
<!-- Node5 -->
<g id="Node000005" class="node">
<title>Node5</title>
<g id="a_Node000005"><a xlink:href="validation_8cpp.html#a2c5bd10f6a2cf42d366fcb1c79442d16" target="_top" xlink:title=" ">
<polygon fill="white" stroke="#666666" points="490.75,-172 393.75,-172 393.75,-152 490.75,-152 490.75,-172"/>
<text text-anchor="middle" x="442.25" y="-158.5" font-family="Helvetica,sans-Serif" font-size="10.00">isValidGroupName</text>
</a>
</g>
</g>
<!-- Node2&#45;&gt;Node5 -->
<g id="edge4_Node000002_Node000005" class="edge">
<title>Node2&#45;&gt;Node5</title>
<g id="a_edge4_Node000002_Node000005"><a xlink:title=" ">
<path fill="none" stroke="#63b8ff" d="M165.77,-271.13C175.33,-268.34 185.19,-263.93 192.5,-257 224.96,-226.21 191.7,-188.44 228.5,-163 278.04,-128.75 350.78,-137.73 397.07,-148.76"/>
<polygon fill="#63b8ff" stroke="#63b8ff" points="395.94,-152.08 406.49,-151.13 397.65,-145.29 395.94,-152.08"/>
</a>
</g>
</g>
<!-- Node6 -->
<g id="Node000006" class="node">
<title>Node6</title>
<g id="a_Node000006"><a xlink:href="validation_8cpp.html#a56a7f8014e1247ef1241f603bf8b98b9" target="_top" xlink:title=" ">
<polygon fill="white" stroke="#666666" points="477.62,-210 406.88,-210 406.88,-190 477.62,-190 477.62,-210"/>
<text text-anchor="middle" x="442.25" y="-196.5" font-family="Helvetica,sans-Serif" font-size="10.00">isValidName</text>
</a>
</g>
</g>
<!-- Node2&#45;&gt;Node6 -->
<g id="edge5_Node000002_Node000006" class="edge">
<title>Node2&#45;&gt;Node6</title>
<g id="a_edge5_Node000002_Node000006"><a xlink:title=" ">
<path fill="none" stroke="#63b8ff" d="M165.96,-270.49C175.31,-267.66 185,-263.41 192.5,-257 219.4,-234.01 198.35,-204.52 228.5,-186 282.88,-152.6 360.49,-170.53 405.39,-185.81"/>
<polygon fill="#63b8ff" stroke="#63b8ff" points="404.05,-189.05 414.64,-189.1 406.39,-182.45 404.05,-189.05"/>
</a>
</g>
</g>
<!-- Node7 -->
<g id="Node000007" class="node">
<title>Node7</title>
<g id="a_Node000007"><a xlink:href="validation_8cpp.html#a61544b32391e0579f222c45b1a0af56a" target="_top" xlink:title=" ">
<polygon fill="white" stroke="#666666" points="474.25,-286 410.25,-286 410.25,-266 474.25,-266 474.25,-286"/>
<text text-anchor="middle" x="442.25" y="-272.5" font-family="Helvetica,sans-Serif" font-size="10.00">isValidYear</text>
</a>
</g>
</g>
<!-- Node2&#45;&gt;Node7 -->
<g id="edge6_Node000002_Node000007" class="edge">
<title>Node2&#45;&gt;Node7</title>
<g id="a_edge6_Node000002_Node000007"><a xlink:title=" ">
<path fill="none" stroke="#63b8ff" d="M165.64,-270.1C183.96,-267.01 207.44,-263.55 228.5,-262 285.79,-257.79 300.5,-257.23 357.75,-262 371.23,-263.12 385.81,-265.25 398.96,-267.51"/>
<polygon fill="#63b8ff" stroke="#63b8ff" points="398.13,-270.92 408.59,-269.24 399.37,-264.03 398.13,-270.92"/>
</a>
</g>
</g>
<!-- Node2&#45;&gt;Node8 -->
<g id="edge7_Node000002_Node000008" class="edge">
<title>Node2&#45;&gt;Node8</title>
<g id="a_edge7_Node000002_Node000008"><a xlink:title=" ">
<path fill="none" stroke="#63b8ff" d="M165.96,-281.51C175.31,-284.34 185,-288.59 192.5,-295 219.4,-317.99 207.55,-337.49 228.5,-366 240.67,-382.56 257.41,-398.68 270.66,-410.33"/>
<polygon fill="#63b8ff" stroke="#63b8ff" points="268.16,-412.8 278.03,-416.65 272.72,-407.48 268.16,-412.8"/>
</a>
</g>
</g>
<!-- Node9 -->
<g id="Node000009" class="node">
<title>Node9</title>
<g id="a_Node000009"><a xlink:href="crypto__utils_8cpp.html#a016d5dccebf13f0174419222835f5f80" target="_top" xlink:title=" ">
<polygon fill="white" stroke="#666666" points="474.25,-438 410.25,-438 410.25,-418 474.25,-418 474.25,-438"/>
<text text-anchor="middle" x="442.25" y="-424.5" font-family="Helvetica,sans-Serif" font-size="10.00">encryptFile</text>
</a>
</g>
</g>
<!-- Node8&#45;&gt;Node9 -->
<g id="edge8_Node000008_Node000009" class="edge">
<title>Node8&#45;&gt;Node9</title>
<g id="a_edge8_Node000008_Node000009"><a xlink:title=" ">
<path fill="none" stroke="#63b8ff" d="M324.97,-428C346.3,-428 374.98,-428 398.51,-428"/>
<polygon fill="#63b8ff" stroke="#63b8ff" points="398.43,-431.5 408.43,-428 398.43,-424.5 398.43,-431.5"/>
</a>
</g>
</g>
<!-- Node10&#45;&gt;Node3 -->
<g id="edge11_Node000010_Node000003" class="edge">
<title>Node10&#45;&gt;Node3</title>
<g id="a_edge11_Node000010_Node000003"><a xlink:title=" ">
<path fill="none" stroke="#63b8ff" d="M170.88,-436.91C191.37,-441.83 217.16,-448.01 239.68,-453.42"/>
<polygon fill="#63b8ff" stroke="#63b8ff" points="238.76,-456.79 249.3,-455.72 240.39,-449.99 238.76,-456.79"/>
</a>
</g>
</g>
<!-- Node10&#45;&gt;Node8 -->
<g id="edge12_Node000010_Node000008" class="edge">
<title>Node10&#45;&gt;Node8</title>
<g id="a_edge12_Node000010_Node000008"><a xlink:title=" ">
<path fill="none" stroke="#63b8ff" d="M170.88,-428C194.45,-428 225.03,-428 249.58,-428"/>
<polygon fill="#63b8ff" stroke="#63b8ff" points="249.57,-431.5 259.57,-428 249.57,-424.5 249.57,-431.5"/>
</a>
</g>
</g>
<!-- Node11&#45;&gt;Node3 -->
<g id="edge14_Node000011_Node000003" class="edge">
<title>Node11&#45;&gt;Node3</title>
<g id="a_edge14_Node000011_Node000003"><a xlink:title=" ">
<path fill="none" stroke="#63b8ff" d="M146.75,-324.24C159.62,-334.87 179.26,-352.51 192.5,-371 214.26,-401.39 200.14,-422.66 228.5,-447 231.94,-449.96 235.83,-452.45 239.95,-454.56"/>
<polygon fill="#63b8ff" stroke="#63b8ff" points="238.56,-457.77 249.13,-458.45 241.29,-451.33 238.56,-457.77"/>
</a>
</g>
</g>
<!-- Node11&#45;&gt;Node4 -->
<g id="edge15_Node000011_Node000004" class="edge">
<title>Node11&#45;&gt;Node4</title>
<g id="a_edge15_Node000011_Node000004"><a xlink:title=" ">
<path fill="none" stroke="#63b8ff" d="M163.78,-324.44C173.23,-328.2 183.54,-332.81 192.5,-338 210.05,-348.15 209.33,-359.42 228.5,-366 284.75,-385.3 354.18,-374.86 398.1,-364.41"/>
<polygon fill="#63b8ff" stroke="#63b8ff" points="398.91,-367.82 407.76,-362 397.21,-361.03 398.91,-367.82"/>
</a>
</g>
</g>
<!-- Node11&#45;&gt;Node5 -->
<g id="edge16_Node000011_Node000005" class="edge">
<title>Node11&#45;&gt;Node5</title>
<g id="a_edge16_Node000011_Node000005"><a xlink:title=" ">
<path fill="none" stroke="#63b8ff" d="M165.91,-308.43C175.26,-305.61 184.97,-301.36 192.5,-295 218.93,-272.68 201.85,-248.05 228.5,-226 272.2,-189.85 335.89,-174.12 382.19,-167.27"/>
<polygon fill="#63b8ff" stroke="#63b8ff" points="382.63,-170.74 392.06,-165.92 381.68,-163.8 382.63,-170.74"/>
</a>
</g>
</g>
<!-- Node11&#45;&gt;Node6 -->
<g id="edge17_Node000011_Node000006" class="edge">
<title>Node11&#45;&gt;Node6</title>
<g id="a_edge17_Node000011_Node000006"><a xlink:title=" ">
<path fill="none" stroke="#63b8ff" d="M165.72,-304.48C174.49,-301.65 183.93,-298.39 192.5,-295 208.95,-288.49 212.18,-284.83 228.5,-278 287.09,-253.48 356.4,-228.87 399.6,-214.03"/>
<polygon fill="#63b8ff" stroke="#63b8ff" points="400.5,-217.42 408.83,-210.87 398.24,-210.8 400.5,-217.42"/>
</a>
</g>
</g>
<!-- Node11&#45;&gt;Node7 -->
<g id="edge18_Node000011_Node000007" class="edge">
<title>Node11&#45;&gt;Node7</title>
<g id="a_edge18_Node000011_Node000007"><a xlink:title=" ">
<path fill="none" stroke="#63b8ff" d="M165.62,-306.71C183.93,-302.75 207.41,-298.05 228.5,-295 287.04,-286.54 355.22,-281.25 398.31,-278.46"/>
<polygon fill="#63b8ff" stroke="#63b8ff" points="398.49,-281.95 408.25,-277.83 398.05,-274.97 398.49,-281.95"/>
</a>
</g>
</g>
<!-- Node11&#45;&gt;Node8 -->
<g id="edge19_Node000011_Node000008" class="edge">
<title>Node11&#45;&gt;Node8</title>
<g id="a_edge19_Node000011_Node000008"><a xlink:title=" ">
<path fill="none" stroke="#63b8ff" d="M165.89,-322.61C175.23,-326.24 184.94,-331.24 192.5,-338 217.41,-360.27 203.29,-382.07 228.5,-404 234.87,-409.54 242.64,-413.86 250.54,-417.2"/>
<polygon fill="#63b8ff" stroke="#63b8ff" points="249.25,-420.46 259.85,-420.66 251.69,-413.9 249.25,-420.46"/>
</a>
</g>
</g>
<!-- Node12&#45;&gt;Node3 -->
<g id="edge21_Node000012_Node000003" class="edge">
<title>Node12&#45;&gt;Node3</title>
<g id="a_edge21_Node000012_Node000003"><a xlink:title=" ">
<path fill="none" stroke="#63b8ff" d="M172.91,-399.63C179.71,-402.14 186.52,-405.23 192.5,-409 212.18,-421.41 208.68,-434.81 228.5,-447 232.21,-449.28 236.2,-451.3 240.32,-453.09"/>
<polygon fill="#63b8ff" stroke="#63b8ff" points="238.72,-456.22 249.31,-456.53 241.22,-449.68 238.72,-456.22"/>
</a>
</g>
</g>
<!-- Node12&#45;&gt;Node8 -->
<g id="edge27_Node000012_Node000008" class="edge">
<title>Node12&#45;&gt;Node8</title>
<g id="a_edge27_Node000012_Node000008"><a xlink:title=" ">
<path fill="none" stroke="#63b8ff" d="M172.9,-399.39C196.38,-405.03 226.25,-412.19 250.21,-417.94"/>
<polygon fill="#63b8ff" stroke="#63b8ff" points="249.09,-421.27 259.63,-420.2 250.72,-414.47 249.09,-421.27"/>
</a>
</g>
</g>
<!-- Node13 -->
<g id="Node000013" class="node">
<title>Node13</title>
<g id="a_Node000013"><a xlink:href="txt__importer_8cpp.html#ad73ed2db7747f4eba6e23d45d6c0d658" target="_top" xlink:title=" ">
<polygon fill="white" stroke="#666666" points="352.5,-324 233.75,-324 233.75,-304 352.5,-304 352.5,-324"/>
<text text-anchor="middle" x="293.12" y="-310.5" font-family="Helvetica,sans-Serif" font-size="10.00">importStudentsFromTxt</text>
</a>
</g>
</g>
<!-- Node12&#45;&gt;Node13 -->
<g id="edge22_Node000012_Node000013" class="edge">
<title>Node12&#45;&gt;Node13</title>
<g id="a_edge22_Node000012_Node000013"><a xlink:title=" ">
<path fill="none" stroke="#63b8ff" d="M155.44,-379.59C182.49,-366.61 228.97,-344.3 260.12,-329.36"/>
<polygon fill="#63b8ff" stroke="#63b8ff" points="261.58,-332.54 269.08,-325.06 258.55,-326.23 261.58,-332.54"/>
</a>
</g>
</g>
<!-- Node13&#45;&gt;Node4 -->
<g id="edge23_Node000013_Node000004" class="edge">
<title>Node13&#45;&gt;Node4</title>
<g id="a_edge23_Node000013_Node000004"><a xlink:title=" ">
<path fill="none" stroke="#63b8ff" d="M334.72,-324.48C354.43,-329.58 378.13,-335.7 398.17,-340.87"/>
<polygon fill="#63b8ff" stroke="#63b8ff" points="397.15,-344.23 407.71,-343.34 398.9,-337.45 397.15,-344.23"/>
</a>
</g>
</g>
<!-- Node13&#45;&gt;Node5 -->
<g id="edge24_Node000013_Node000005" class="edge">
<title>Node13&#45;&gt;Node5</title>
<g id="a_edge24_Node000013_Node000005"><a xlink:title=" ">
<path fill="none" stroke="#63b8ff" d="M299.19,-303.84C311.86,-279.39 347.28,-216.64 393.75,-181 395.25,-179.85 396.83,-178.76 398.47,-177.72"/>
<polygon fill="#63b8ff" stroke="#63b8ff" points="399.82,-180.97 406.96,-173.14 396.49,-174.81 399.82,-180.97"/>
</a>
</g>
</g>
<!-- Node13&#45;&gt;Node6 -->
<g id="edge25_Node000013_Node000006" class="edge">
<title>Node13&#45;&gt;Node6</title>
<g id="a_edge25_Node000013_Node000006"><a xlink:title=" ">
<path fill="none" stroke="#63b8ff" d="M307.44,-303.68C332.83,-284.01 388.37,-240.98 419.32,-217"/>
<polygon fill="#63b8ff" stroke="#63b8ff" points="421.11,-220.03 426.87,-211.14 416.83,-214.5 421.11,-220.03"/>
</a>
</g>
</g>
<!-- Node13&#45;&gt;Node7 -->
<g id="edge26_Node000013_Node000007" class="edge">
<title>Node13&#45;&gt;Node7</title>
<g id="a_edge26_Node000013_Node000007"><a xlink:title=" ">
<path fill="none" stroke="#63b8ff" d="M334.72,-303.52C354.72,-298.35 378.82,-292.12 399.04,-286.9"/>
<polygon fill="#63b8ff" stroke="#63b8ff" points="399.85,-290.31 408.66,-284.42 398.1,-283.53 399.85,-290.31"/>
</a>
</g>
</g>
<!-- Node15 -->
<g id="Node000015" class="node">
<title>Node15</title>
<g id="a_Node000015"><a xlink:href="crypto__utils_8cpp.html#a2c1450c0c81741af5ed7ae240e7eef80" target="_top" xlink:title=" ">
<polygon fill="white" stroke="#666666" points="325.12,-58 261.12,-58 261.12,-38 325.12,-38 325.12,-58"/>
<text text-anchor="middle" x="293.12" y="-44.5" font-family="Helvetica,sans-Serif" font-size="10.00">decryptFile</text>
</a>
</g>
</g>
<!-- Node14&#45;&gt;Node15 -->
<g id="edge29_Node000014_Node000015" class="edge">
<title>Node14&#45;&gt;Node15</title>
<g id="a_edge29_Node000014_Node000015"><a xlink:title=" ">
<path fill="none" stroke="#63b8ff" d="M169.37,-232.72C177.93,-229.91 186.37,-225.59 192.5,-219 238.3,-169.74 183.89,-122.34 228.5,-72 234.27,-65.49 241.99,-60.74 250.06,-57.27"/>
<polygon fill="#63b8ff" stroke="#63b8ff" points="251.1,-60.62 259.32,-53.93 248.72,-54.03 251.1,-60.62"/>
</a>
</g>
</g>
<!-- Node17 -->
<g id="Node000017" class="node">
<title>Node17</title>
<g id="a_Node000017"><a xlink:href="structStudent.html#aca9046ad65e7403231633cf276043555" target="_top" xlink:title=" ">
<polygon fill="white" stroke="#666666" points="357.75,-20 228.5,-20 228.5,0 357.75,0 357.75,-20"/>
<text text-anchor="middle" x="293.12" y="-6.5" font-family="Helvetica,sans-Serif" font-size="10.00">Student::printTableHeader</text>
</a>
</g>
</g>
<!-- Node16&#45;&gt;Node17 -->
<g id="edge31_Node000016_Node000017" class="edge">
<title>Node16&#45;&gt;Node17</title>
<g id="a_edge31_Node000016_Node000017"><a xlink:title=" ">
<path fill="none" stroke="#63b8ff" d="M156.15,-198.06C168.51,-195.83 183.19,-191.08 192.5,-181 239.58,-129.98 180.84,-79.48 228.5,-29 229.11,-28.36 229.74,-27.73 230.39,-27.13"/>
<polygon fill="#63b8ff" stroke="#63b8ff" points="232.42,-29.98 238.51,-21.3 228.34,-24.29 232.42,-29.98"/>
</a>
</g>
</g>
<!-- Node18&#45;&gt;Node3 -->
<g id="edge33_Node000018_Node000003" class="edge">
<title>Node18&#45;&gt;Node3</title>
<g id="a_edge33_Node000018_Node000003"><a xlink:title=" ">
<path fill="none" stroke="#63b8ff" d="M177.45,-493.52C196.76,-488.88 219.62,-483.4 239.84,-478.55"/>
<polygon fill="#63b8ff" stroke="#63b8ff" points="240.37,-482.02 249.28,-476.28 238.74,-475.21 240.37,-482.02"/>
</a>
</g>
</g>
<!-- Node20&#45;&gt;Node3 -->
<g id="edge37_Node000020_Node000003" class="edge">
<title>Node20&#45;&gt;Node3</title>
<g id="a_edge37_Node000020_Node000003"><a xlink:title=" ">
<path fill="none" stroke="#63b8ff" d="M192.72,-466C208.14,-466 224.65,-466 239.71,-466"/>
<polygon fill="#63b8ff" stroke="#63b8ff" points="239.38,-469.5 249.38,-466 239.37,-462.5 239.38,-469.5"/>
</a>
</g>
</g>
</g>
</svg>

<g id="navigator" transform="translate(0 0)" fill="#404254">
  <rect fill="#f2f5e9" fill-opacity="0.5" stroke="#606060" stroke-width=".5" x="0" y="0" width="60" height="60"/>
  <use id="zoomplus" xlink:href="#zoomPlus" x="17" y="9" onmousedown="handleZoom(evt,'in')"/>
  <use id="zoomminus" xlink:href="#zoomMin" x="42" y="9" onmousedown="handleZoom(evt,'out')"/>
  <use id="reset" xlink:href="#resetDef" x="30" y="36" onmousedown="handleReset()"/>
   <use id="arrowup" xlink:href="#arrowUp" x="0" y="0" onmousedown="handlePan(0,-1)"/>
  <use id="arrowright" xlink:href="#arrowRight" x="0" y="0" onmousedown="handlePan(1,0)"/>
  <use id="arrowdown" xlink:href="#arrowDown" x="0" y="0" onmousedown="handlePan(0,1)"/>
  <use id="arrowleft" xlink:href="#arrowLeft" x="0" y="0" onmousedown="handlePan(-1,0)"/>
</g>
<svg viewBox="0 0 15 15" width="100%" height="30px" preserveAspectRatio="xMaxYMin meet">
 <g id="arrow_out" transform="scale(0.3 0.3)">
  <a xlink:href="main_8cpp_ae66f6b31b5ad750f1fe042a706a4e3d4_cgraph_org.svg" target="_base">
   <rect id="button" ry="5" rx="5" y="6" x="6" height="38" width="38"
        fill="#f2f5e9" fill-opacity="0.5" stroke="#606060" stroke-width="1.0"/>
   <path id="arrow"
     d="M 11.500037,31.436501 C 11.940474,20.09759 22.043105,11.32322 32.158766,21.979434 L 37.068811,17.246167 C 37.068811,17.246167 37.088388,32 37.088388,32 L 22.160133,31.978069 C 22.160133,31.978069 26.997745,27.140456 26.997745,27.140456 C 18.528582,18.264221 13.291696,25.230495 11.500037,31.436501 z"
     style="fill:#404040;"/>
  </a>
 </g>
</svg>

<style type='text/css'>
<![CDATA[
[data-mouse-over-selected='false'] { opacity: 0.7; }
[data-mouse-over-selected='true']  { opacity: 1.0; }
]]>
</style>
<script type="application/ecmascript"><![CDATA[
document.addEventListener('DOMContentLoaded', (event) => {
  highlightEdges();
  highlightAdjacentNodes();
});
]]></script>
</svg>
