<?xml version="1.0" encoding="UTF-8" standalone="no"?>
<!DOCTYPE svg PUBLIC "-//W3C//DTD SVG 1.1//EN"
 "http://www.w3.org/Graphics/SVG/1.1/DTD/svg11.dtd">
<!-- Generated by graphviz version 12.1.0 (20240811.2233)
 -->
<!-- Title: src/main.cpp Pages: 1 -->
<svg width="370pt" height="252pt"
 viewBox="0.00 0.00 370.41 252.00" xmlns="http://www.w3.org/2000/svg" xmlns:xlink="http://www.w3.org/1999/xlink">
<g id="graph0" class="graph" transform="scale(1 1) rotate(0) translate(4 248)">
<title>src/main.cpp</title>
<!-- Node1 -->
<g id="Node000001" class="node">
<title>Node1</title>
<g id="a_Node000001"><a xlink:title=" ">
<polygon fill="#999999" stroke="#666666" points="225.78,-244 153.53,-244 153.53,-224 225.78,-224 225.78,-244"/>
<text text-anchor="middle" x="189.66" y="-230.5" font-family="Helvetica,sans-Serif" font-size="10.00">src/main.cpp</text>
</a>
</g>
</g>
<!-- Node2 -->
<g id="Node000002" class="node">
<title>Node2</title>
<g id="a_Node000002"><a xlink:title=" ">
<polygon fill="#e0e0e0" stroke="#999999" points="79.41,-20 25.91,-20 25.91,0 79.41,0 79.41,-20"/>
<text text-anchor="middle" x="52.66" y="-6.5" font-family="Helvetica,sans-Serif" font-size="10.00">iostream</text>
</a>
</g>
</g>
<!-- Node1&#45;&gt;Node2 -->
<g id="edge1_Node000001_Node000002" class="edge">
<title>Node1&#45;&gt;Node2</title>
<g id="a_edge1_Node000001_Node000002"><a xlink:title=" ">
<path fill="none" stroke="#63b8ff" d="M153.25,-228.17C109.79,-221.56 41.05,-208.19 25.66,-188 15.78,-175.05 -27.22,-253.4 26.66,-56 29.17,-46.78 34.05,-37.49 38.91,-29.77"/>
<polygon fill="#63b8ff" stroke="#63b8ff" points="41.73,-31.85 44.45,-21.61 35.94,-27.91 41.73,-31.85"/>
</a>
</g>
</g>
<!-- Node3 -->
<g id="Node000003" class="node">
<title>Node3</title>
<g id="a_Node000003"><a xlink:title=" ">
<polygon fill="#e0e0e0" stroke="#999999" points="337.41,-188 295.91,-188 295.91,-168 337.41,-168 337.41,-188"/>
<text text-anchor="middle" x="316.66" y="-174.5" font-family="Helvetica,sans-Serif" font-size="10.00">locale</text>
</a>
</g>
</g>
<!-- Node1&#45;&gt;Node3 -->
<g id="edge2_Node000001_Node000003" class="edge">
<title>Node1&#45;&gt;Node3</title>
<g id="a_edge2_Node000001_Node000003"><a xlink:title=" ">
<path fill="none" stroke="#63b8ff" d="M211.78,-223.59C232.05,-214.97 262.3,-202.11 285.11,-192.41"/>
<polygon fill="#63b8ff" stroke="#63b8ff" points="286.41,-195.67 294.24,-188.53 283.67,-189.22 286.41,-195.67"/>
</a>
</g>
</g>
<!-- Node4 -->
<g id="Node000004" class="node">
<title>Node4</title>
<g id="a_Node000004"><a xlink:href="student__manager_8h.html" target="_top" xlink:title=" ">
<polygon fill="white" stroke="#666666" points="239.28,-188 140.03,-188 140.03,-168 239.28,-168 239.28,-188"/>
<text text-anchor="middle" x="189.66" y="-174.5" font-family="Helvetica,sans-Serif" font-size="10.00">student_manager.h</text>
</a>
</g>
</g>
<!-- Node1&#45;&gt;Node4 -->
<g id="edge3_Node000001_Node000004" class="edge">
<title>Node1&#45;&gt;Node4</title>
<g id="a_edge3_Node000001_Node000004"><a xlink:title=" ">
<path fill="none" stroke="#63b8ff" d="M189.66,-223.59C189.66,-217.01 189.66,-207.96 189.66,-199.73"/>
<polygon fill="#63b8ff" stroke="#63b8ff" points="193.16,-199.81 189.66,-189.81 186.16,-199.81 193.16,-199.81"/>
</a>
</g>
</g>
<!-- Node10 -->
<g id="Node000010" class="node">
<title>Node10</title>
<g id="a_Node000010"><a xlink:href="file__operations_8h.html" target="_top" xlink:title=" ">
<polygon fill="white" stroke="#666666" points="122.28,-188 35.03,-188 35.03,-168 122.28,-168 122.28,-188"/>
<text text-anchor="middle" x="78.66" y="-174.5" font-family="Helvetica,sans-Serif" font-size="10.00">file_operations.h</text>
</a>
</g>
</g>
<!-- Node1&#45;&gt;Node10 -->
<g id="edge14_Node000001_Node000010" class="edge">
<title>Node1&#45;&gt;Node10</title>
<g id="a_edge14_Node000001_Node000010"><a xlink:title=" ">
<path fill="none" stroke="#63b8ff" d="M170.32,-223.59C153.24,-215.28 128.05,-203.03 108.4,-193.47"/>
<polygon fill="#63b8ff" stroke="#63b8ff" points="110.03,-190.37 99.5,-189.14 106.96,-196.66 110.03,-190.37"/>
</a>
</g>
</g>
<!-- Node11 -->
<g id="Node000011" class="node">
<title>Node11</title>
<g id="a_Node000011"><a xlink:href="validation_8h.html" target="_top" xlink:title=" ">
<polygon fill="white" stroke="#666666" points="362.41,-132 296.91,-132 296.91,-112 362.41,-112 362.41,-132"/>
<text text-anchor="middle" x="329.66" y="-118.5" font-family="Helvetica,sans-Serif" font-size="10.00">validation.h</text>
</a>
</g>
</g>
<!-- Node1&#45;&gt;Node11 -->
<g id="edge17_Node000001_Node000011" class="edge">
<title>Node1&#45;&gt;Node11</title>
<g id="a_edge17_Node000001_Node000011"><a xlink:title=" ">
<path fill="none" stroke="#63b8ff" d="M201.93,-223.78C213.91,-214.74 232.63,-200.54 248.66,-188 269.55,-171.65 293.18,-152.63 309.5,-139.4"/>
<polygon fill="#63b8ff" stroke="#63b8ff" points="311.46,-142.32 317.02,-133.3 307.05,-136.89 311.46,-142.32"/>
</a>
</g>
</g>
<!-- Node5 -->
<g id="Node000005" class="node">
<title>Node5</title>
<g id="a_Node000005"><a xlink:title=" ">
<polygon fill="#e0e0e0" stroke="#999999" points="78.16,-76 35.16,-76 35.16,-56 78.16,-56 78.16,-76"/>
<text text-anchor="middle" x="56.66" y="-62.5" font-family="Helvetica,sans-Serif" font-size="10.00">vector</text>
</a>
</g>
</g>
<!-- Node4&#45;&gt;Node5 -->
<g id="edge4_Node000004_Node000005" class="edge">
<title>Node4&#45;&gt;Node5</title>
<g id="a_edge4_Node000004_Node000005"><a xlink:title=" ">
<path fill="none" stroke="#63b8ff" d="M173.91,-167.59C159.95,-158.98 139.26,-145.56 122.66,-132 104.46,-117.15 85.55,-98.09 72.66,-84.46"/>
<polygon fill="#63b8ff" stroke="#63b8ff" points="75.54,-82.42 66.16,-77.49 70.42,-87.19 75.54,-82.42"/>
</a>
</g>
</g>
<!-- Node6 -->
<g id="Node000006" class="node">
<title>Node6</title>
<g id="a_Node000006"><a xlink:title=" ">
<polygon fill="#e0e0e0" stroke="#999999" points="269.66,-20 229.66,-20 229.66,0 269.66,0 269.66,-20"/>
<text text-anchor="middle" x="249.66" y="-6.5" font-family="Helvetica,sans-Serif" font-size="10.00">string</text>
</a>
</g>
</g>
<!-- Node4&#45;&gt;Node6 -->
<g id="edge5_Node000004_Node000006" class="edge">
<title>Node4&#45;&gt;Node6</title>
<g id="a_edge5_Node000004_Node000006"><a xlink:title=" ">
<path fill="none" stroke="#63b8ff" d="M194.16,-167.71C202.55,-150.13 220.83,-110.63 232.66,-76 237.68,-61.28 242.09,-44.25 245.15,-31.32"/>
<polygon fill="#63b8ff" stroke="#63b8ff" points="248.5,-32.39 247.32,-21.86 241.68,-30.83 248.5,-32.39"/>
</a>
</g>
</g>
<!-- Node7 -->
<g id="Node000007" class="node">
<title>Node7</title>
<g id="a_Node000007"><a xlink:href="student_8h.html" target="_top" xlink:title=" ">
<polygon fill="white" stroke="#666666" points="187.91,-132 131.41,-132 131.41,-112 187.91,-112 187.91,-132"/>
<text text-anchor="middle" x="159.66" y="-118.5" font-family="Helvetica,sans-Serif" font-size="10.00">student.h</text>
</a>
</g>
</g>
<!-- Node4&#45;&gt;Node7 -->
<g id="edge6_Node000004_Node000007" class="edge">
<title>Node4&#45;&gt;Node7</title>
<g id="a_edge6_Node000004_Node000007"><a xlink:title=" ">
<path fill="none" stroke="#63b8ff" d="M184.43,-167.59C180.56,-160.63 175.15,-150.89 170.37,-142.29"/>
<polygon fill="#63b8ff" stroke="#63b8ff" points="173.47,-140.66 165.56,-133.62 167.35,-144.06 173.47,-140.66"/>
</a>
</g>
</g>
<!-- Node7&#45;&gt;Node5 -->
<g id="edge8_Node000007_Node000005" class="edge">
<title>Node7&#45;&gt;Node5</title>
<g id="a_edge8_Node000007_Node000005"><a xlink:title=" ">
<path fill="none" stroke="#63b8ff" d="M141.71,-111.59C126.01,-103.36 102.92,-91.26 84.77,-81.74"/>
<polygon fill="#63b8ff" stroke="#63b8ff" points="86.56,-78.73 76.08,-77.18 83.31,-84.93 86.56,-78.73"/>
</a>
</g>
</g>
<!-- Node7&#45;&gt;Node6 -->
<g id="edge7_Node000007_Node000006" class="edge">
<title>Node7&#45;&gt;Node6</title>
<g id="a_edge7_Node000007_Node000006"><a xlink:title=" ">
<path fill="none" stroke="#63b8ff" d="M172.69,-111.67C183.9,-103.21 200.06,-89.96 211.66,-76 223.27,-62.02 233.48,-44.05 240.38,-30.54"/>
<polygon fill="#63b8ff" stroke="#63b8ff" points="243.41,-32.32 244.69,-21.8 237.13,-29.22 243.41,-32.32"/>
</a>
</g>
</g>
<!-- Node8 -->
<g id="Node000008" class="node">
<title>Node8</title>
<g id="a_Node000008"><a xlink:title=" ">
<polygon fill="#e0e0e0" stroke="#999999" points="163.28,-20 112.03,-20 112.03,0 163.28,0 163.28,-20"/>
<text text-anchor="middle" x="137.66" y="-6.5" font-family="Helvetica,sans-Serif" font-size="10.00">memory</text>
</a>
</g>
</g>
<!-- Node7&#45;&gt;Node8 -->
<g id="edge9_Node000007_Node000008" class="edge">
<title>Node7&#45;&gt;Node8</title>
<g id="a_edge9_Node000007_Node000008"><a xlink:title=" ">
<path fill="none" stroke="#63b8ff" d="M150.01,-111.68C142.01,-103.24 131.24,-90 126.66,-76 121.86,-61.34 125.16,-44.11 129.36,-31.07"/>
<polygon fill="#63b8ff" stroke="#63b8ff" points="132.57,-32.48 132.75,-21.89 126,-30.06 132.57,-32.48"/>
</a>
</g>
</g>
<!-- Node9 -->
<g id="Node000009" class="node">
<title>Node9</title>
<g id="a_Node000009"><a xlink:href="normative_8h.html" target="_top" xlink:title=" ">
<polygon fill="white" stroke="#666666" points="202.16,-76 135.16,-76 135.16,-56 202.16,-56 202.16,-76"/>
<text text-anchor="middle" x="168.66" y="-62.5" font-family="Helvetica,sans-Serif" font-size="10.00">normative.h</text>
</a>
</g>
</g>
<!-- Node7&#45;&gt;Node9 -->
<g id="edge10_Node000007_Node000009" class="edge">
<title>Node7&#45;&gt;Node9</title>
<g id="a_edge10_Node000007_Node000009"><a xlink:title=" ">
<path fill="none" stroke="#63b8ff" d="M161.22,-111.59C162.33,-104.93 163.87,-95.75 165.25,-87.44"/>
<polygon fill="#63b8ff" stroke="#63b8ff" points="168.67,-88.23 166.86,-77.79 161.76,-87.08 168.67,-88.23"/>
</a>
</g>
</g>
<!-- Node9&#45;&gt;Node2 -->
<g id="edge13_Node000009_Node000002" class="edge">
<title>Node9&#45;&gt;Node2</title>
<g id="a_edge13_Node000009_Node000002"><a xlink:title=" ">
<path fill="none" stroke="#63b8ff" d="M148.45,-55.59C130.43,-47.21 103.79,-34.8 83.17,-25.21"/>
<polygon fill="#63b8ff" stroke="#63b8ff" points="84.93,-22.17 74.39,-21.12 81.98,-28.51 84.93,-22.17"/>
</a>
</g>
</g>
<!-- Node9&#45;&gt;Node6 -->
<g id="edge11_Node000009_Node000006" class="edge">
<title>Node9&#45;&gt;Node6</title>
<g id="a_edge11_Node000009_Node000006"><a xlink:title=" ">
<path fill="none" stroke="#63b8ff" d="M182.77,-55.59C194.66,-47.67 211.92,-36.16 225.93,-26.82"/>
<polygon fill="#63b8ff" stroke="#63b8ff" points="227.8,-29.78 234.18,-21.32 223.92,-23.95 227.8,-29.78"/>
</a>
</g>
</g>
<!-- Node9&#45;&gt;Node8 -->
<g id="edge12_Node000009_Node000008" class="edge">
<title>Node9&#45;&gt;Node8</title>
<g id="a_edge12_Node000009_Node000008"><a xlink:title=" ">
<path fill="none" stroke="#63b8ff" d="M163.26,-55.59C159.21,-48.55 153.54,-38.67 148.56,-30"/>
<polygon fill="#63b8ff" stroke="#63b8ff" points="151.76,-28.54 143.75,-21.61 145.69,-32.03 151.76,-28.54"/>
</a>
</g>
</g>
<!-- Node10&#45;&gt;Node5 -->
<g id="edge15_Node000010_Node000005" class="edge">
<title>Node10&#45;&gt;Node5</title>
<g id="a_edge15_Node000010_Node000005"><a xlink:title=" ">
<path fill="none" stroke="#63b8ff" d="M76.78,-167.62C73.24,-149.92 65.5,-111.24 60.72,-87.32"/>
<polygon fill="#63b8ff" stroke="#63b8ff" points="64.22,-86.96 58.82,-77.84 57.35,-88.33 64.22,-86.96"/>
</a>
</g>
</g>
<!-- Node10&#45;&gt;Node7 -->
<g id="edge16_Node000010_Node000007" class="edge">
<title>Node10&#45;&gt;Node7</title>
<g id="a_edge16_Node000010_Node000007"><a xlink:title=" ">
<path fill="none" stroke="#63b8ff" d="M92.77,-167.59C104.66,-159.67 121.92,-148.16 135.93,-138.82"/>
<polygon fill="#63b8ff" stroke="#63b8ff" points="137.8,-141.78 144.18,-133.32 133.92,-135.95 137.8,-141.78"/>
</a>
</g>
</g>
<!-- Node11&#45;&gt;Node6 -->
<g id="edge18_Node000011_Node000006" class="edge">
<title>Node11&#45;&gt;Node6</title>
<g id="a_edge18_Node000011_Node000006"><a xlink:title=" ">
<path fill="none" stroke="#63b8ff" d="M322.98,-111.73C313.89,-99.11 297.08,-75.81 282.66,-56 276.32,-47.3 269.27,-37.68 263.32,-29.57"/>
<polygon fill="#63b8ff" stroke="#63b8ff" points="266.14,-27.5 257.4,-21.51 260.5,-31.64 266.14,-27.5"/>
</a>
</g>
</g>
</g>
</svg>
