<?xml version="1.0" encoding="UTF-8" standalone="no"?>
<!DOCTYPE svg PUBLIC "-//W3C//DTD SVG 1.1//EN"
 "http://www.w3.org/Graphics/SVG/1.1/DTD/svg11.dtd">
<!-- Generated by graphviz version 12.1.0 (20240811.2233)
 -->
<!-- Title: include/normative.h Pages: 1 -->
<svg width="631pt" height="196pt"
 viewBox="0.00 0.00 630.62 196.00" xmlns="http://www.w3.org/2000/svg" xmlns:xlink="http://www.w3.org/1999/xlink">
<g id="graph0" class="graph" transform="scale(1 1) rotate(0) translate(4 192)">
<title>include/normative.h</title>
<!-- Node1 -->
<g id="Node000001" class="node">
<title>Node1</title>
<g id="a_Node000001"><a xlink:title=" ">
<polygon fill="#999999" stroke="#666666" points="402.5,-188 301.75,-188 301.75,-168 402.5,-168 402.5,-188"/>
<text text-anchor="middle" x="352.12" y="-174.5" font-family="Helvetica,sans-Serif" font-size="10.00">include/normative.h</text>
</a>
</g>
</g>
<!-- Node2 -->
<g id="Node000002" class="node">
<title>Node2</title>
<g id="a_Node000002"><a xlink:href="student_8h.html" target="_top" xlink:title=" ">
<polygon fill="white" stroke="#666666" points="397.25,-132 307,-132 307,-112 397.25,-112 397.25,-132"/>
<text text-anchor="middle" x="352.12" y="-118.5" font-family="Helvetica,sans-Serif" font-size="10.00">include/student.h</text>
</a>
</g>
</g>
<!-- Node1&#45;&gt;Node2 -->
<g id="edge1_Node000001_Node000002" class="edge">
<title>Node1&#45;&gt;Node2</title>
<g id="a_edge1_Node000001_Node000002"><a xlink:title=" ">
<path fill="none" stroke="#63b8ff" d="M352.12,-156.13C352.12,-147.9 352.12,-138.85 352.12,-132.3"/>
<polygon fill="#63b8ff" stroke="#63b8ff" points="348.63,-156.08 352.13,-166.08 355.63,-156.08 348.63,-156.08"/>
</a>
</g>
</g>
<!-- Node4 -->
<g id="Node000004" class="node">
<title>Node4</title>
<g id="a_Node000004"><a xlink:href="file__operations_8cpp.html" target="_top" xlink:title=" ">
<polygon fill="white" stroke="#666666" points="114.25,-20 0,-20 0,0 114.25,0 114.25,-20"/>
<text text-anchor="middle" x="57.12" y="-6.5" font-family="Helvetica,sans-Serif" font-size="10.00">src/file_operations.cpp</text>
</a>
</g>
</g>
<!-- Node1&#45;&gt;Node4 -->
<g id="edge13_Node000001_Node000004" class="edge">
<title>Node1&#45;&gt;Node4</title>
<g id="a_edge13_Node000001_Node000004"><a xlink:title=" ">
<path fill="none" stroke="#63b8ff" d="M290.45,-171.1C227.19,-161.74 130.33,-137.67 74.12,-76 59.83,-60.31 57.27,-34.08 56.98,-20.22"/>
<polygon fill="#63b8ff" stroke="#63b8ff" points="289.58,-174.52 299.96,-172.43 290.54,-167.58 289.58,-174.52"/>
</a>
</g>
</g>
<!-- Node9 -->
<g id="Node000009" class="node">
<title>Node9</title>
<g id="a_Node000009"><a xlink:href="txt__importer_8cpp.html" target="_top" xlink:title=" ">
<polygon fill="white" stroke="#666666" points="622.62,-20 519.62,-20 519.62,0 622.62,0 622.62,-20"/>
<text text-anchor="middle" x="571.12" y="-6.5" font-family="Helvetica,sans-Serif" font-size="10.00">src/txt_importer.cpp</text>
</a>
</g>
</g>
<!-- Node1&#45;&gt;Node9 -->
<g id="edge14_Node000001_Node000009" class="edge">
<title>Node1&#45;&gt;Node9</title>
<g id="a_edge14_Node000001_Node000009"><a xlink:title=" ">
<path fill="none" stroke="#63b8ff" d="M414.12,-170.2C471.69,-160.22 554.31,-135.76 594.12,-76 605.94,-58.27 590.2,-33.77 579.52,-20.49"/>
<polygon fill="#63b8ff" stroke="#63b8ff" points="413.77,-166.71 404.46,-171.76 414.89,-173.62 413.77,-166.71"/>
</a>
</g>
</g>
<!-- Node3 -->
<g id="Node000003" class="node">
<title>Node3</title>
<g id="a_Node000003"><a xlink:href="file__operations_8h.html" target="_top" xlink:title=" ">
<polygon fill="white" stroke="#666666" points="204.62,-76 83.62,-76 83.62,-56 204.62,-56 204.62,-76"/>
<text text-anchor="middle" x="144.12" y="-62.5" font-family="Helvetica,sans-Serif" font-size="10.00">include/file_operations.h</text>
</a>
</g>
</g>
<!-- Node2&#45;&gt;Node3 -->
<g id="edge2_Node000002_Node000003" class="edge">
<title>Node2&#45;&gt;Node3</title>
<g id="a_edge2_Node000002_Node000003"><a xlink:title=" ">
<path fill="none" stroke="#63b8ff" d="M305.18,-108.81C267.47,-99.02 215.27,-85.47 180.64,-76.48"/>
<polygon fill="#63b8ff" stroke="#63b8ff" points="303.87,-112.09 314.43,-111.21 305.63,-105.31 303.87,-112.09"/>
</a>
</g>
</g>
<!-- Node7 -->
<g id="Node000007" class="node">
<title>Node7</title>
<g id="a_Node000007"><a xlink:href="student__manager_8h.html" target="_top" xlink:title=" ">
<polygon fill="white" stroke="#666666" points="355.62,-76 222.62,-76 222.62,-56 355.62,-56 355.62,-76"/>
<text text-anchor="middle" x="289.12" y="-62.5" font-family="Helvetica,sans-Serif" font-size="10.00">include/student_manager.h</text>
</a>
</g>
</g>
<!-- Node2&#45;&gt;Node7 -->
<g id="edge6_Node000002_Node000007" class="edge">
<title>Node2&#45;&gt;Node7</title>
<g id="a_edge6_Node000002_Node000007"><a xlink:title=" ">
<path fill="none" stroke="#63b8ff" d="M332.44,-104.13C321.72,-94.94 308.88,-83.93 299.97,-76.3"/>
<polygon fill="#63b8ff" stroke="#63b8ff" points="330.13,-106.76 340,-110.61 334.69,-101.44 330.13,-106.76"/>
</a>
</g>
</g>
<!-- Node8 -->
<g id="Node000008" class="node">
<title>Node8</title>
<g id="a_Node000008"><a xlink:href="txt__importer_8h.html" target="_top" xlink:title=" ">
<polygon fill="white" stroke="#666666" points="585,-76 475.25,-76 475.25,-56 585,-56 585,-76"/>
<text text-anchor="middle" x="530.12" y="-62.5" font-family="Helvetica,sans-Serif" font-size="10.00">include/txt_importer.h</text>
</a>
</g>
</g>
<!-- Node2&#45;&gt;Node8 -->
<g id="edge9_Node000002_Node000008" class="edge">
<title>Node2&#45;&gt;Node8</title>
<g id="a_edge9_Node000002_Node000008"><a xlink:title=" ">
<path fill="none" stroke="#63b8ff" d="M393.97,-108.31C426.1,-98.56 469.75,-85.32 498.88,-76.48"/>
<polygon fill="#63b8ff" stroke="#63b8ff" points="393.13,-104.9 384.58,-111.15 395.16,-111.6 393.13,-104.9"/>
</a>
</g>
</g>
<!-- Node10 -->
<g id="Node000010" class="node">
<title>Node10</title>
<g id="a_Node000010"><a xlink:href="student_8cpp.html" target="_top" xlink:title=" ">
<polygon fill="white" stroke="#666666" points="456.88,-76 373.38,-76 373.38,-56 456.88,-56 456.88,-76"/>
<text text-anchor="middle" x="415.12" y="-62.5" font-family="Helvetica,sans-Serif" font-size="10.00">src/student.cpp</text>
</a>
</g>
</g>
<!-- Node2&#45;&gt;Node10 -->
<g id="edge12_Node000002_Node000010" class="edge">
<title>Node2&#45;&gt;Node10</title>
<g id="a_edge12_Node000002_Node000010"><a xlink:title=" ">
<path fill="none" stroke="#63b8ff" d="M371.81,-104.13C382.53,-94.94 395.37,-83.93 404.28,-76.3"/>
<polygon fill="#63b8ff" stroke="#63b8ff" points="369.56,-101.44 364.25,-110.61 374.12,-106.76 369.56,-101.44"/>
</a>
</g>
</g>
<!-- Node3&#45;&gt;Node4 -->
<g id="edge3_Node000003_Node000004" class="edge">
<title>Node3&#45;&gt;Node4</title>
<g id="a_edge3_Node000003_Node000004"><a xlink:title=" ">
<path fill="none" stroke="#63b8ff" d="M119.22,-49.54C104.12,-40.17 85.33,-28.51 72.4,-20.48"/>
<polygon fill="#63b8ff" stroke="#63b8ff" points="117.34,-52.5 127.68,-54.8 121.03,-46.55 117.34,-52.5"/>
</a>
</g>
</g>
<!-- Node5 -->
<g id="Node000005" class="node">
<title>Node5</title>
<g id="a_Node000005"><a xlink:href="main_8cpp.html" target="_top" xlink:title=" ">
<polygon fill="white" stroke="#666666" points="207.25,-20 135,-20 135,0 207.25,0 207.25,-20"/>
<text text-anchor="middle" x="171.12" y="-6.5" font-family="Helvetica,sans-Serif" font-size="10.00">src/main.cpp</text>
</a>
</g>
</g>
<!-- Node3&#45;&gt;Node5 -->
<g id="edge4_Node000003_Node000005" class="edge">
<title>Node3&#45;&gt;Node5</title>
<g id="a_edge4_Node000003_Node000005"><a xlink:title=" ">
<path fill="none" stroke="#63b8ff" d="M153.84,-45.58C158.14,-36.97 163.01,-27.24 166.48,-20.3"/>
<polygon fill="#63b8ff" stroke="#63b8ff" points="150.85,-43.73 149.5,-54.24 157.11,-46.86 150.85,-43.73"/>
</a>
</g>
</g>
<!-- Node6 -->
<g id="Node000006" class="node">
<title>Node6</title>
<g id="a_Node000006"><a xlink:href="student__manager_8cpp.html" target="_top" xlink:title=" ">
<polygon fill="white" stroke="#666666" points="352.25,-20 226,-20 226,0 352.25,0 352.25,-20"/>
<text text-anchor="middle" x="289.12" y="-6.5" font-family="Helvetica,sans-Serif" font-size="10.00">src/student_manager.cpp</text>
</a>
</g>
</g>
<!-- Node3&#45;&gt;Node6 -->
<g id="edge5_Node000003_Node000006" class="edge">
<title>Node3&#45;&gt;Node6</title>
<g id="a_edge5_Node000003_Node000006"><a xlink:title=" ">
<path fill="none" stroke="#63b8ff" d="M179.94,-51.66C205.93,-41.98 240.46,-29.12 263.67,-20.48"/>
<polygon fill="#63b8ff" stroke="#63b8ff" points="178.95,-48.3 170.8,-55.07 181.39,-54.86 178.95,-48.3"/>
</a>
</g>
</g>
<!-- Node7&#45;&gt;Node5 -->
<g id="edge7_Node000007_Node000005" class="edge">
<title>Node7&#45;&gt;Node5</title>
<g id="a_edge7_Node000007_Node000005"><a xlink:title=" ">
<path fill="none" stroke="#63b8ff" d="M258.26,-50.88C237.33,-41.3 210.22,-28.89 191.84,-20.48"/>
<polygon fill="#63b8ff" stroke="#63b8ff" points="256.65,-53.99 267.19,-54.96 259.56,-47.62 256.65,-53.99"/>
</a>
</g>
</g>
<!-- Node7&#45;&gt;Node6 -->
<g id="edge8_Node000007_Node000006" class="edge">
<title>Node7&#45;&gt;Node6</title>
<g id="a_edge8_Node000007_Node000006"><a xlink:title=" ">
<path fill="none" stroke="#63b8ff" d="M289.12,-44.13C289.12,-35.9 289.12,-26.85 289.12,-20.3"/>
<polygon fill="#63b8ff" stroke="#63b8ff" points="285.63,-44.08 289.13,-54.08 292.63,-44.08 285.63,-44.08"/>
</a>
</g>
</g>
<!-- Node8&#45;&gt;Node6 -->
<g id="edge10_Node000008_Node000006" class="edge">
<title>Node8&#45;&gt;Node6</title>
<g id="a_edge10_Node000008_Node000006"><a xlink:title=" ">
<path fill="none" stroke="#63b8ff" d="M476.85,-53.06C433.04,-43.25 371.8,-29.52 331.33,-20.46"/>
<polygon fill="#63b8ff" stroke="#63b8ff" points="475.87,-56.43 486.39,-55.2 477.4,-49.6 475.87,-56.43"/>
</a>
</g>
</g>
<!-- Node8&#45;&gt;Node9 -->
<g id="edge11_Node000008_Node000009" class="edge">
<title>Node8&#45;&gt;Node9</title>
<g id="a_edge11_Node000008_Node000009"><a xlink:title=" ">
<path fill="none" stroke="#63b8ff" d="M544.22,-46.44C550.91,-37.62 558.62,-27.47 564.07,-20.3"/>
<polygon fill="#63b8ff" stroke="#63b8ff" points="541.44,-44.31 538.18,-54.39 547.02,-48.54 541.44,-44.31"/>
</a>
</g>
</g>
</g>
</svg>
