<?xml version="1.0" encoding="UTF-8" standalone="no"?>
<!DOCTYPE svg PUBLIC "-//W3C//DTD SVG 1.1//EN"
 "http://www.w3.org/Graphics/SVG/1.1/DTD/svg11.dtd">
<!-- Generated by graphviz version 12.1.0 (20240811.2233)
 -->
<!-- Title: Normative Pages: 1 -->
<svg width="289pt" height="308pt"
 viewBox="0.00 0.00 289.00 308.00" xmlns="http://www.w3.org/2000/svg" xmlns:xlink="http://www.w3.org/1999/xlink">
<g id="graph0" class="graph" transform="scale(1 1) rotate(0) translate(4 304)">
<title>Normative</title>
<!-- Node1 -->
<g id="Node000001" class="node">
<title>Node1</title>
<g id="a_Node000001"><a xlink:title=" ">
<polygon fill="#999999" stroke="none" points="181.5,-300 106.5,-300 106.5,-136 181.5,-136 181.5,-300"/>
<text text-anchor="start" x="121.5" y="-286.5" font-family="Helvetica,sans-Serif" font-size="10.00">Normative</text>
<text text-anchor="start" x="110.5" y="-270.5" font-family="Helvetica,sans-Serif" font-size="10.00">+</text>
<text text-anchor="start" x="120.5" y="-270.5" font-family="Helvetica,sans-Serif" font-size="10.00">name</text>
<text text-anchor="start" x="110.5" y="-254.5" font-family="Helvetica,sans-Serif" font-size="10.00">+</text>
<text text-anchor="start" x="120.5" y="-254.5" font-family="Helvetica,sans-Serif" font-size="10.00">date</text>
<text text-anchor="start" x="110.5" y="-238.5" font-family="Helvetica,sans-Serif" font-size="10.00">+</text>
<text text-anchor="start" x="120.5" y="-238.5" font-family="Helvetica,sans-Serif" font-size="10.00">result</text>
<text text-anchor="start" x="110.5" y="-222.5" font-family="Helvetica,sans-Serif" font-size="10.00">+</text>
<text text-anchor="start" x="120.5" y="-222.5" font-family="Helvetica,sans-Serif" font-size="10.00">grade</text>
<text text-anchor="start" x="110.5" y="-206.5" font-family="Helvetica,sans-Serif" font-size="10.00">+</text>
<text text-anchor="start" x="120.5" y="-206.5" font-family="Helvetica,sans-Serif" font-size="10.00">Normative()</text>
<text text-anchor="start" x="110.5" y="-190.5" font-family="Helvetica,sans-Serif" font-size="10.00">+</text>
<text text-anchor="start" x="120.5" y="-190.5" font-family="Helvetica,sans-Serif" font-size="10.00">Normative()</text>
<text text-anchor="start" x="110.5" y="-174.5" font-family="Helvetica,sans-Serif" font-size="10.00">+</text>
<text text-anchor="start" x="120.5" y="-174.5" font-family="Helvetica,sans-Serif" font-size="10.00">~Normative()</text>
<text text-anchor="start" x="110.5" y="-158.5" font-family="Helvetica,sans-Serif" font-size="10.00">+</text>
<text text-anchor="start" x="120.5" y="-158.5" font-family="Helvetica,sans-Serif" font-size="10.00">print()</text>
<text text-anchor="start" x="110.5" y="-142.5" font-family="Helvetica,sans-Serif" font-size="10.00">+</text>
<text text-anchor="start" x="120.5" y="-142.5" font-family="Helvetica,sans-Serif" font-size="10.00">clone()</text>
<polygon fill="#666666" stroke="#666666" points="106.5,-282 106.5,-282 181.5,-282 181.5,-282 106.5,-282"/>
<polygon fill="#666666" stroke="#666666" points="106.5,-218 106.5,-218 118.5,-218 118.5,-218 106.5,-218"/>
<polygon fill="#666666" stroke="#666666" points="118.5,-218 118.5,-218 181.5,-218 181.5,-218 118.5,-218"/>
<polygon fill="none" stroke="#666666" points="106.5,-136 106.5,-300 181.5,-300 181.5,-136 106.5,-136"/>
</a>
</g>
</g>
<!-- Node2 -->
<g id="Node000002" class="node">
<title>Node2</title>
<g id="a_Node000002"><a xlink:href="structPullUps.html" target="_top" xlink:title=" ">
<polygon fill="white" stroke="none" points="58,-100 0,-100 0,0 58,0 58,-100"/>
<text text-anchor="start" x="11.75" y="-86.5" font-family="Helvetica,sans-Serif" font-size="10.00">PullUps</text>
<text text-anchor="start" x="27.5" y="-70.5" font-family="Helvetica,sans-Serif" font-size="10.00"> </text>
<text text-anchor="start" x="4" y="-54.5" font-family="Helvetica,sans-Serif" font-size="10.00">+</text>
<text text-anchor="start" x="14" y="-54.5" font-family="Helvetica,sans-Serif" font-size="10.00">PullUps()</text>
<text text-anchor="start" x="4" y="-38.5" font-family="Helvetica,sans-Serif" font-size="10.00">+</text>
<text text-anchor="start" x="14" y="-38.5" font-family="Helvetica,sans-Serif" font-size="10.00">PullUps()</text>
<text text-anchor="start" x="4" y="-22.5" font-family="Helvetica,sans-Serif" font-size="10.00">+</text>
<text text-anchor="start" x="14" y="-22.5" font-family="Helvetica,sans-Serif" font-size="10.00">print()</text>
<text text-anchor="start" x="4" y="-6.5" font-family="Helvetica,sans-Serif" font-size="10.00">+</text>
<text text-anchor="start" x="14" y="-6.5" font-family="Helvetica,sans-Serif" font-size="10.00">clone()</text>
<polygon fill="#666666" stroke="#666666" points="0,-82 0,-82 58,-82 58,-82 0,-82"/>
<polygon fill="#666666" stroke="#666666" points="0,-66 0,-66 58,-66 58,-66 0,-66"/>
<polygon fill="none" stroke="#666666" points="0,0 0,-100 58,-100 58,0 0,0"/>
</a>
</g>
</g>
<!-- Node1&#45;&gt;Node2 -->
<g id="edge1_Node000001_Node000002" class="edge">
<title>Node1&#45;&gt;Node2</title>
<g id="a_edge1_Node000001_Node000002"><a xlink:title=" ">
<path fill="none" stroke="#63b8ff" d="M100.26,-153.86C86.1,-133.42 70.76,-111.28 57.96,-92.8"/>
<polygon fill="none" stroke="#63b8ff" points="97.23,-155.63 105.8,-161.86 102.98,-151.65 97.23,-155.63"/>
</a>
</g>
</g>
<!-- Node3 -->
<g id="Node000003" class="node">
<title>Node3</title>
<g id="a_Node000003"><a xlink:href="structRun100.html" target="_top" xlink:title=" ">
<polygon fill="white" stroke="none" points="133.5,-100 76.5,-100 76.5,0 133.5,0 133.5,-100"/>
<text text-anchor="start" x="88.12" y="-86.5" font-family="Helvetica,sans-Serif" font-size="10.00">Run100</text>
<text text-anchor="start" x="103.5" y="-70.5" font-family="Helvetica,sans-Serif" font-size="10.00"> </text>
<text text-anchor="start" x="80.5" y="-54.5" font-family="Helvetica,sans-Serif" font-size="10.00">+</text>
<text text-anchor="start" x="90.5" y="-54.5" font-family="Helvetica,sans-Serif" font-size="10.00">Run100()</text>
<text text-anchor="start" x="80.5" y="-38.5" font-family="Helvetica,sans-Serif" font-size="10.00">+</text>
<text text-anchor="start" x="90.5" y="-38.5" font-family="Helvetica,sans-Serif" font-size="10.00">Run100()</text>
<text text-anchor="start" x="80.5" y="-22.5" font-family="Helvetica,sans-Serif" font-size="10.00">+</text>
<text text-anchor="start" x="90.5" y="-22.5" font-family="Helvetica,sans-Serif" font-size="10.00">print()</text>
<text text-anchor="start" x="80.5" y="-6.5" font-family="Helvetica,sans-Serif" font-size="10.00">+</text>
<text text-anchor="start" x="90.5" y="-6.5" font-family="Helvetica,sans-Serif" font-size="10.00">clone()</text>
<polygon fill="#666666" stroke="#666666" points="76.5,-82 76.5,-82 133.5,-82 133.5,-82 76.5,-82"/>
<polygon fill="#666666" stroke="#666666" points="76.5,-66 76.5,-66 133.5,-66 133.5,-66 76.5,-66"/>
<polygon fill="none" stroke="#666666" points="76.5,0 76.5,-100 133.5,-100 133.5,0 76.5,0"/>
</a>
</g>
</g>
<!-- Node1&#45;&gt;Node3 -->
<g id="edge2_Node000001_Node000003" class="edge">
<title>Node1&#45;&gt;Node3</title>
<g id="a_edge2_Node000001_Node000003"><a xlink:title=" ">
<path fill="none" stroke="#63b8ff" d="M122.45,-125.26C120.38,-116.47 118.35,-107.81 116.44,-99.69"/>
<polygon fill="none" stroke="#63b8ff" points="119.03,-126.02 124.73,-134.96 125.85,-124.42 119.03,-126.02"/>
</a>
</g>
</g>
<!-- Node4 -->
<g id="Node000004" class="node">
<title>Node4</title>
<g id="a_Node000004"><a xlink:href="structRun1000.html" target="_top" xlink:title=" ">
<polygon fill="white" stroke="none" points="214.5,-100 151.5,-100 151.5,0 214.5,0 214.5,-100"/>
<text text-anchor="start" x="163.5" y="-86.5" font-family="Helvetica,sans-Serif" font-size="10.00">Run1000</text>
<text text-anchor="start" x="181.5" y="-70.5" font-family="Helvetica,sans-Serif" font-size="10.00"> </text>
<text text-anchor="start" x="155.5" y="-54.5" font-family="Helvetica,sans-Serif" font-size="10.00">+</text>
<text text-anchor="start" x="165.5" y="-54.5" font-family="Helvetica,sans-Serif" font-size="10.00">Run1000()</text>
<text text-anchor="start" x="155.5" y="-38.5" font-family="Helvetica,sans-Serif" font-size="10.00">+</text>
<text text-anchor="start" x="165.5" y="-38.5" font-family="Helvetica,sans-Serif" font-size="10.00">Run1000()</text>
<text text-anchor="start" x="155.5" y="-22.5" font-family="Helvetica,sans-Serif" font-size="10.00">+</text>
<text text-anchor="start" x="165.5" y="-22.5" font-family="Helvetica,sans-Serif" font-size="10.00">print()</text>
<text text-anchor="start" x="155.5" y="-6.5" font-family="Helvetica,sans-Serif" font-size="10.00">+</text>
<text text-anchor="start" x="165.5" y="-6.5" font-family="Helvetica,sans-Serif" font-size="10.00">clone()</text>
<polygon fill="#666666" stroke="#666666" points="151.5,-82 151.5,-82 214.5,-82 214.5,-82 151.5,-82"/>
<polygon fill="#666666" stroke="#666666" points="151.5,-66 151.5,-66 214.5,-66 214.5,-66 151.5,-66"/>
<polygon fill="none" stroke="#666666" points="151.5,0 151.5,-100 214.5,-100 214.5,0 151.5,0"/>
</a>
</g>
</g>
<!-- Node1&#45;&gt;Node4 -->
<g id="edge3_Node000001_Node000004" class="edge">
<title>Node1&#45;&gt;Node4</title>
<g id="a_edge3_Node000001_Node000004"><a xlink:title=" ">
<path fill="none" stroke="#63b8ff" d="M165.55,-125.26C167.62,-116.47 169.65,-107.81 171.56,-99.69"/>
<polygon fill="none" stroke="#63b8ff" points="162.15,-124.42 163.27,-134.96 168.97,-126.02 162.15,-124.42"/>
</a>
</g>
</g>
<!-- Node5 -->
<g id="Node000005" class="node">
<title>Node5</title>
<g id="a_Node000005"><a xlink:href="structSwim.html" target="_top" xlink:title=" ">
<polygon fill="white" stroke="none" points="281,-100 233,-100 233,0 281,0 281,-100"/>
<text text-anchor="start" x="244.62" y="-86.5" font-family="Helvetica,sans-Serif" font-size="10.00">Swim</text>
<text text-anchor="start" x="255.5" y="-70.5" font-family="Helvetica,sans-Serif" font-size="10.00"> </text>
<text text-anchor="start" x="237" y="-54.5" font-family="Helvetica,sans-Serif" font-size="10.00">+</text>
<text text-anchor="start" x="247" y="-54.5" font-family="Helvetica,sans-Serif" font-size="10.00">Swim()</text>
<text text-anchor="start" x="237" y="-38.5" font-family="Helvetica,sans-Serif" font-size="10.00">+</text>
<text text-anchor="start" x="247" y="-38.5" font-family="Helvetica,sans-Serif" font-size="10.00">Swim()</text>
<text text-anchor="start" x="237" y="-22.5" font-family="Helvetica,sans-Serif" font-size="10.00">+</text>
<text text-anchor="start" x="247" y="-22.5" font-family="Helvetica,sans-Serif" font-size="10.00">print()</text>
<text text-anchor="start" x="237" y="-6.5" font-family="Helvetica,sans-Serif" font-size="10.00">+</text>
<text text-anchor="start" x="247" y="-6.5" font-family="Helvetica,sans-Serif" font-size="10.00">clone()</text>
<polygon fill="#666666" stroke="#666666" points="233,-82 233,-82 281,-82 281,-82 233,-82"/>
<polygon fill="#666666" stroke="#666666" points="233,-66 233,-66 281,-66 281,-66 233,-66"/>
<polygon fill="none" stroke="#666666" points="233,0 233,-100 281,-100 281,0 233,0"/>
</a>
</g>
</g>
<!-- Node1&#45;&gt;Node5 -->
<g id="edge4_Node000001_Node000005" class="edge">
<title>Node1&#45;&gt;Node5</title>
<g id="a_edge4_Node000001_Node000005"><a xlink:title=" ">
<path fill="none" stroke="#63b8ff" d="M187.76,-153.17C199.55,-135.93 212.28,-117.27 224,-100 226.94,-95.67 230.01,-91.12 233.06,-86.61"/>
<polygon fill="none" stroke="#63b8ff" points="184.93,-151.11 182.18,-161.34 190.71,-155.06 184.93,-151.11"/>
</a>
</g>
</g>
</g>
</svg>
