<?xml version="1.0" encoding="UTF-8" standalone="no"?>
<!DOCTYPE svg PUBLIC "-//W3C//DTD SVG 1.1//EN"
 "http://www.w3.org/Graphics/SVG/1.1/DTD/svg11.dtd">
<!-- Generated by graphviz version 12.1.0 (20240811.2233)
 -->
<!-- Title: include/student.h Pages: 1 -->
<svg width="214pt" height="140pt"
 viewBox="0.00 0.00 213.62 140.00" xmlns="http://www.w3.org/2000/svg" xmlns:xlink="http://www.w3.org/1999/xlink">

<svg id="main" version="1.1" xmlns="http://www.w3.org/2000/svg" xmlns:xlink="http://www.w3.org/1999/xlink" xml:space="preserve">

<style type="text/css"><![CDATA[
.node, .edge {opacity: 0.7;}
.node.selected, .edge.selected {opacity: 1;}
.edge:hover path { stroke: red; }
.edge:hover polygon { stroke: red; fill: red; }
]]></style>
<script type="application/ecmascript" xlink:href="svg.min.js"/>
<svg id="graph" class="graph">
<g id="graph0" class="graph" transform="scale(1 1) rotate(0) translate(4 136)">
<title>include/student.h</title>
<!-- Node1 -->
<g id="Node000001" class="node">
<title>Node1</title>
<g id="a_Node000001"><a xlink:title=" ">
<polygon fill="#999999" stroke="#666666" points="126.12,-132 35.88,-132 35.88,-112 126.12,-112 126.12,-132"/>
<text text-anchor="middle" x="81" y="-118.5" font-family="Helvetica,sans-Serif" font-size="10.00">include/student.h</text>
</a>
</g>
</g>
<!-- Node2 -->
<g id="Node000002" class="node">
<title>Node2</title>
<g id="a_Node000002"><a xlink:title=" ">
<polygon fill="#e0e0e0" stroke="#999999" points="40,-20 0,-20 0,0 40,0 40,-20"/>
<text text-anchor="middle" x="20" y="-6.5" font-family="Helvetica,sans-Serif" font-size="10.00">string</text>
</a>
</g>
</g>
<!-- Node1&#45;&gt;Node2 -->
<g id="edge1_Node000001_Node000002" class="edge">
<title>Node1&#45;&gt;Node2</title>
<g id="a_edge1_Node000001_Node000002"><a xlink:title=" ">
<path fill="none" stroke="#63b8ff" d="M56.21,-111.53C41.04,-104.29 22.9,-92.69 14,-76 6.74,-62.37 8.91,-44.83 12.52,-31.41"/>
<polygon fill="#63b8ff" stroke="#63b8ff" points="15.85,-32.5 15.56,-21.91 9.18,-30.37 15.85,-32.5"/>
</a>
</g>
</g>
<!-- Node3 -->
<g id="Node000003" class="node">
<title>Node3</title>
<g id="a_Node000003"><a xlink:title=" ">
<polygon fill="#e0e0e0" stroke="#999999" points="66.5,-76 23.5,-76 23.5,-56 66.5,-56 66.5,-76"/>
<text text-anchor="middle" x="45" y="-62.5" font-family="Helvetica,sans-Serif" font-size="10.00">vector</text>
</a>
</g>
</g>
<!-- Node1&#45;&gt;Node3 -->
<g id="edge2_Node000001_Node000003" class="edge">
<title>Node1&#45;&gt;Node3</title>
<g id="a_edge2_Node000001_Node000003"><a xlink:title=" ">
<path fill="none" stroke="#63b8ff" d="M74.73,-111.59C69.98,-104.47 63.3,-94.45 57.48,-85.72"/>
<polygon fill="#63b8ff" stroke="#63b8ff" points="60.5,-83.94 52.04,-77.56 54.67,-87.82 60.5,-83.94"/>
</a>
</g>
</g>
<!-- Node4 -->
<g id="Node000004" class="node">
<title>Node4</title>
<g id="a_Node000004"><a xlink:title=" ">
<polygon fill="#e0e0e0" stroke="#999999" points="205.62,-20 154.38,-20 154.38,0 205.62,0 205.62,-20"/>
<text text-anchor="middle" x="180" y="-6.5" font-family="Helvetica,sans-Serif" font-size="10.00">memory</text>
</a>
</g>
</g>
<!-- Node1&#45;&gt;Node4 -->
<g id="edge3_Node000001_Node000004" class="edge">
<title>Node1&#45;&gt;Node4</title>
<g id="a_edge3_Node000001_Node000004"><a xlink:title=" ">
<path fill="none" stroke="#63b8ff" d="M108.75,-111.63C126.1,-104.44 147.62,-92.84 161,-76 171.08,-63.31 175.81,-45.45 178.04,-31.66"/>
<polygon fill="#63b8ff" stroke="#63b8ff" points="181.49,-32.26 179.26,-21.91 174.54,-31.39 181.49,-32.26"/>
</a>
</g>
</g>
<!-- Node5 -->
<g id="Node000005" class="node">
<title>Node5</title>
<g id="a_Node000005"><a xlink:href="normative_8h.html" target="_top" xlink:title=" ">
<polygon fill="white" stroke="#666666" points="151.5,-76 84.5,-76 84.5,-56 151.5,-56 151.5,-76"/>
<text text-anchor="middle" x="118" y="-62.5" font-family="Helvetica,sans-Serif" font-size="10.00">normative.h</text>
</a>
</g>
</g>
<!-- Node1&#45;&gt;Node5 -->
<g id="edge4_Node000001_Node000005" class="edge">
<title>Node1&#45;&gt;Node5</title>
<g id="a_edge4_Node000001_Node000005"><a xlink:title=" ">
<path fill="none" stroke="#63b8ff" d="M87.44,-111.59C92.33,-104.47 99.19,-94.45 105.18,-85.72"/>
<polygon fill="#63b8ff" stroke="#63b8ff" points="108.01,-87.77 110.77,-77.55 102.23,-83.82 108.01,-87.77"/>
</a>
</g>
</g>
<!-- Node5&#45;&gt;Node2 -->
<g id="edge5_Node000005_Node000002" class="edge">
<title>Node5&#45;&gt;Node2</title>
<g id="a_edge5_Node000005_Node000002"><a xlink:title=" ">
<path fill="none" stroke="#63b8ff" d="M100.93,-55.59C86.12,-47.44 64.43,-35.48 47.23,-26"/>
<polygon fill="#63b8ff" stroke="#63b8ff" points="48.98,-22.97 38.53,-21.21 45.6,-29.1 48.98,-22.97"/>
</a>
</g>
</g>
<!-- Node5&#45;&gt;Node4 -->
<g id="edge6_Node000005_Node000004" class="edge">
<title>Node5&#45;&gt;Node4</title>
<g id="a_edge6_Node000005_Node000004"><a xlink:title=" ">
<path fill="none" stroke="#63b8ff" d="M128.8,-55.59C137.6,-47.93 150.25,-36.91 160.77,-27.75"/>
<polygon fill="#63b8ff" stroke="#63b8ff" points="162.94,-30.5 168.18,-21.29 158.34,-25.22 162.94,-30.5"/>
</a>
</g>
</g>
<!-- Node6 -->
<g id="Node000006" class="node">
<title>Node6</title>
<g id="a_Node000006"><a xlink:title=" ">
<polygon fill="#e0e0e0" stroke="#999999" points="136.75,-20 83.25,-20 83.25,0 136.75,0 136.75,-20"/>
<text text-anchor="middle" x="110" y="-6.5" font-family="Helvetica,sans-Serif" font-size="10.00">iostream</text>
</a>
</g>
</g>
<!-- Node5&#45;&gt;Node6 -->
<g id="edge7_Node000005_Node000006" class="edge">
<title>Node5&#45;&gt;Node6</title>
<g id="a_edge7_Node000005_Node000006"><a xlink:title=" ">
<path fill="none" stroke="#63b8ff" d="M116.61,-55.59C115.62,-48.93 114.26,-39.75 113.03,-31.44"/>
<polygon fill="#63b8ff" stroke="#63b8ff" points="116.53,-31.17 111.6,-21.8 109.6,-32.2 116.53,-31.17"/>
</a>
</g>
</g>
</g>
</svg>
</svg>

<style type='text/css'>
<![CDATA[
[data-mouse-over-selected='false'] { opacity: 0.7; }
[data-mouse-over-selected='true']  { opacity: 1.0; }
]]>
</style>
<script type="application/ecmascript"><![CDATA[
document.addEventListener('DOMContentLoaded', (event) => {
  highlightEdges();
  highlightAdjacentNodes();
});
]]></script>
</svg>
