<?xml version="1.0" encoding="UTF-8" standalone="no"?>
<!DOCTYPE svg PUBLIC "-//W3C//DTD SVG 1.1//EN"
 "http://www.w3.org/Graphics/SVG/1.1/DTD/svg11.dtd">
<!-- Generated by graphviz version 12.1.0 (20240811.2233)
 -->
<!-- Title: importFromTxt Pages: 1 -->
<svg width="376pt" height="180pt"
 viewBox="0.00 0.00 375.50 180.00" xmlns="http://www.w3.org/2000/svg" xmlns:xlink="http://www.w3.org/1999/xlink">

<svg id="main" version="1.1" xmlns="http://www.w3.org/2000/svg" xmlns:xlink="http://www.w3.org/1999/xlink" xml:space="preserve">

<style type="text/css"><![CDATA[
.node, .edge {opacity: 0.7;}
.node.selected, .edge.selected {opacity: 1;}
.edge:hover path { stroke: red; }
.edge:hover polygon { stroke: red; fill: red; }
]]></style>
<script type="application/ecmascript" xlink:href="svg.min.js"/>
<svg id="graph" class="graph">
<g id="graph0" class="graph" transform="scale(1 1) rotate(0) translate(4 176)">
<title>importFromTxt</title>
<!-- Node1 -->
<g id="Node000001" class="node">
<title>Node1</title>
<g id="a_Node000001"><a xlink:title=" ">
<polygon fill="#999999" stroke="#666666" points="79.75,-96 0,-96 0,-76 79.75,-76 79.75,-96"/>
<text text-anchor="middle" x="39.88" y="-82.5" font-family="Helvetica,sans-Serif" font-size="10.00">importFromTxt</text>
</a>
</g>
</g>
<!-- Node2 -->
<g id="Node000002" class="node">
<title>Node2</title>
<g id="a_Node000002"><a xlink:href="validation_8cpp.html#a22d7c3e857afba4903a76181f91ea9fb" target="_top" xlink:title=" ">
<polygon fill="white" stroke="#666666" points="217.25,-134 133,-134 133,-114 217.25,-114 217.25,-134"/>
<text text-anchor="middle" x="175.12" y="-120.5" font-family="Helvetica,sans-Serif" font-size="10.00">clearInputBuffer</text>
</a>
</g>
</g>
<!-- Node1&#45;&gt;Node2 -->
<g id="edge1_Node000001_Node000002" class="edge">
<title>Node1&#45;&gt;Node2</title>
<g id="a_edge1_Node000001_Node000002"><a xlink:title=" ">
<path fill="none" stroke="#63b8ff" d="M77.64,-96.48C92.79,-100.8 110.53,-105.86 126.64,-110.46"/>
<polygon fill="#63b8ff" stroke="#63b8ff" points="125.45,-113.76 136.03,-113.13 127.37,-107.03 125.45,-113.76"/>
</a>
</g>
</g>
<!-- Node3 -->
<g id="Node000003" class="node">
<title>Node3</title>
<g id="a_Node000003"><a xlink:href="txt__importer_8cpp.html#ad73ed2db7747f4eba6e23d45d6c0d658" target="_top" xlink:title=" ">
<polygon fill="white" stroke="#666666" points="234.5,-96 115.75,-96 115.75,-76 234.5,-76 234.5,-96"/>
<text text-anchor="middle" x="175.12" y="-82.5" font-family="Helvetica,sans-Serif" font-size="10.00">importStudentsFromTxt</text>
</a>
</g>
</g>
<!-- Node1&#45;&gt;Node3 -->
<g id="edge2_Node000001_Node000003" class="edge">
<title>Node1&#45;&gt;Node3</title>
<g id="a_edge2_Node000001_Node000003"><a xlink:title=" ">
<path fill="none" stroke="#63b8ff" d="M80.13,-86C87.73,-86 95.91,-86 104.15,-86"/>
<polygon fill="#63b8ff" stroke="#63b8ff" points="103.88,-89.5 113.88,-86 103.88,-82.5 103.88,-89.5"/>
</a>
</g>
</g>
<!-- Node8 -->
<g id="Node000008" class="node">
<title>Node8</title>
<g id="a_Node000008"><a xlink:href="file__operations_8cpp.html#a3218cc673e0643b611aa88e43c12bfb0" target="_top" xlink:title=" ">
<polygon fill="white" stroke="#666666" points="206.75,-39 143.5,-39 143.5,-19 206.75,-19 206.75,-39"/>
<text text-anchor="middle" x="175.12" y="-25.5" font-family="Helvetica,sans-Serif" font-size="10.00">saveToFile</text>
</a>
</g>
</g>
<!-- Node1&#45;&gt;Node8 -->
<g id="edge7_Node000001_Node000008" class="edge">
<title>Node1&#45;&gt;Node8</title>
<g id="a_edge7_Node000001_Node000008"><a xlink:title=" ">
<path fill="none" stroke="#63b8ff" d="M65.32,-75.55C86.07,-66.67 116.11,-53.82 139.36,-43.87"/>
<polygon fill="#63b8ff" stroke="#63b8ff" points="140.63,-47.13 148.45,-39.98 137.88,-40.7 140.63,-47.13"/>
</a>
</g>
</g>
<!-- Node4 -->
<g id="Node000004" class="node">
<title>Node4</title>
<g id="a_Node000004"><a xlink:href="validation_8cpp.html#a5af6e666c07b7851889ae4f3ec81ff77" target="_top" xlink:title=" ">
<polygon fill="white" stroke="#666666" points="351.75,-172 286.25,-172 286.25,-152 351.75,-152 351.75,-172"/>
<text text-anchor="middle" x="319" y="-158.5" font-family="Helvetica,sans-Serif" font-size="10.00">isValidDate</text>
</a>
</g>
</g>
<!-- Node3&#45;&gt;Node4 -->
<g id="edge3_Node000003_Node000004" class="edge">
<title>Node3&#45;&gt;Node4</title>
<g id="a_edge3_Node000003_Node000004"><a xlink:title=" ">
<path fill="none" stroke="#63b8ff" d="M217.18,-96.47C223.22,-98.82 229.18,-101.64 234.5,-105 254.17,-117.43 251.25,-129.93 270.5,-143 272.32,-144.23 274.23,-145.41 276.2,-146.52"/>
<polygon fill="#63b8ff" stroke="#63b8ff" points="274.49,-149.58 285,-150.9 277.61,-143.31 274.49,-149.58"/>
</a>
</g>
</g>
<!-- Node5 -->
<g id="Node000005" class="node">
<title>Node5</title>
<g id="a_Node000005"><a xlink:href="validation_8cpp.html#a2c5bd10f6a2cf42d366fcb1c79442d16" target="_top" xlink:title=" ">
<polygon fill="white" stroke="#666666" points="367.5,-134 270.5,-134 270.5,-114 367.5,-114 367.5,-134"/>
<text text-anchor="middle" x="319" y="-120.5" font-family="Helvetica,sans-Serif" font-size="10.00">isValidGroupName</text>
</a>
</g>
</g>
<!-- Node3&#45;&gt;Node5 -->
<g id="edge4_Node000003_Node000005" class="edge">
<title>Node3&#45;&gt;Node5</title>
<g id="a_edge4_Node000003_Node000005"><a xlink:title=" ">
<path fill="none" stroke="#63b8ff" d="M215.27,-96.48C231.55,-100.85 250.65,-105.96 267.94,-110.59"/>
<polygon fill="#63b8ff" stroke="#63b8ff" points="266.96,-113.95 277.52,-113.16 268.77,-107.19 266.96,-113.95"/>
</a>
</g>
</g>
<!-- Node6 -->
<g id="Node000006" class="node">
<title>Node6</title>
<g id="a_Node000006"><a xlink:href="validation_8cpp.html#a56a7f8014e1247ef1241f603bf8b98b9" target="_top" xlink:title=" ">
<polygon fill="white" stroke="#666666" points="354.38,-96 283.62,-96 283.62,-76 354.38,-76 354.38,-96"/>
<text text-anchor="middle" x="319" y="-82.5" font-family="Helvetica,sans-Serif" font-size="10.00">isValidName</text>
</a>
</g>
</g>
<!-- Node3&#45;&gt;Node6 -->
<g id="edge5_Node000003_Node000006" class="edge">
<title>Node3&#45;&gt;Node6</title>
<g id="a_edge5_Node000003_Node000006"><a xlink:title=" ">
<path fill="none" stroke="#63b8ff" d="M234.65,-86C247.02,-86 259.9,-86 271.74,-86"/>
<polygon fill="#63b8ff" stroke="#63b8ff" points="271.66,-89.5 281.66,-86 271.66,-82.5 271.66,-89.5"/>
</a>
</g>
</g>
<!-- Node7 -->
<g id="Node000007" class="node">
<title>Node7</title>
<g id="a_Node000007"><a xlink:href="validation_8cpp.html#a61544b32391e0579f222c45b1a0af56a" target="_top" xlink:title=" ">
<polygon fill="white" stroke="#666666" points="351,-58 287,-58 287,-38 351,-38 351,-58"/>
<text text-anchor="middle" x="319" y="-44.5" font-family="Helvetica,sans-Serif" font-size="10.00">isValidYear</text>
</a>
</g>
</g>
<!-- Node3&#45;&gt;Node7 -->
<g id="edge6_Node000003_Node000007" class="edge">
<title>Node3&#45;&gt;Node7</title>
<g id="a_edge6_Node000003_Node000007"><a xlink:title=" ">
<path fill="none" stroke="#63b8ff" d="M215.27,-75.52C233.97,-70.51 256.38,-64.5 275.5,-59.38"/>
<polygon fill="#63b8ff" stroke="#63b8ff" points="276.39,-62.77 285.15,-56.8 274.58,-56.01 276.39,-62.77"/>
</a>
</g>
</g>
<!-- Node9 -->
<g id="Node000009" class="node">
<title>Node9</title>
<g id="a_Node000009"><a xlink:href="crypto__utils_8cpp.html#a016d5dccebf13f0174419222835f5f80" target="_top" xlink:title=" ">
<polygon fill="white" stroke="#666666" points="351,-20 287,-20 287,0 351,0 351,-20"/>
<text text-anchor="middle" x="319" y="-6.5" font-family="Helvetica,sans-Serif" font-size="10.00">encryptFile</text>
</a>
</g>
</g>
<!-- Node8&#45;&gt;Node9 -->
<g id="edge8_Node000008_Node000009" class="edge">
<title>Node8&#45;&gt;Node9</title>
<g id="a_edge8_Node000008_Node000009"><a xlink:title=" ">
<path fill="none" stroke="#63b8ff" d="M206.91,-24.88C226.94,-22.19 253.35,-18.66 275.39,-15.71"/>
<polygon fill="#63b8ff" stroke="#63b8ff" points="275.84,-19.18 285.29,-14.38 274.91,-12.24 275.84,-19.18"/>
</a>
</g>
</g>
</g>
</svg>
</svg>

<style type='text/css'>
<![CDATA[
[data-mouse-over-selected='false'] { opacity: 0.7; }
[data-mouse-over-selected='true']  { opacity: 1.0; }
]]>
</style>
<script type="application/ecmascript"><![CDATA[
document.addEventListener('DOMContentLoaded', (event) => {
  highlightEdges();
  highlightAdjacentNodes();
});
]]></script>
</svg>
