<?xml version="1.0" encoding="UTF-8" standalone="no"?>
<!DOCTYPE svg PUBLIC "-//W3C//DTD SVG 1.1//EN"
 "http://www.w3.org/Graphics/SVG/1.1/DTD/svg11.dtd">
<!-- Generated by graphviz version 12.1.0 (20240811.2233)
 -->
<!-- Title: deleteStudent Pages: 1 -->
<svg width="304pt" height="66pt"
 viewBox="0.00 0.00 304.25 66.00" xmlns="http://www.w3.org/2000/svg" xmlns:xlink="http://www.w3.org/1999/xlink">

<svg id="main" version="1.1" xmlns="http://www.w3.org/2000/svg" xmlns:xlink="http://www.w3.org/1999/xlink" xml:space="preserve">

<style type="text/css"><![CDATA[
.node, .edge {opacity: 0.7;}
.node.selected, .edge.selected {opacity: 1;}
.edge:hover path { stroke: red; }
.edge:hover polygon { stroke: red; fill: red; }
]]></style>
<script type="application/ecmascript" xlink:href="svg.min.js"/>
<svg id="graph" class="graph">
<g id="graph0" class="graph" transform="scale(1 1) rotate(0) translate(4 62)">
<title>deleteStudent</title>
<!-- Node1 -->
<g id="Node000001" class="node">
<title>Node1</title>
<g id="a_Node000001"><a xlink:title=" ">
<polygon fill="#999999" stroke="#666666" points="76,-39 0,-39 0,-19 76,-19 76,-39"/>
<text text-anchor="middle" x="38" y="-25.5" font-family="Helvetica,sans-Serif" font-size="10.00">deleteStudent</text>
</a>
</g>
</g>
<!-- Node2 -->
<g id="Node000002" class="node">
<title>Node2</title>
<g id="a_Node000002"><a xlink:href="validation_8cpp.html#a22d7c3e857afba4903a76181f91ea9fb" target="_top" xlink:title=" ">
<polygon fill="white" stroke="#666666" points="196.25,-58 112,-58 112,-38 196.25,-38 196.25,-58"/>
<text text-anchor="middle" x="154.12" y="-44.5" font-family="Helvetica,sans-Serif" font-size="10.00">clearInputBuffer</text>
</a>
</g>
</g>
<!-- Node1&#45;&gt;Node2 -->
<g id="edge1_Node000001_Node000002" class="edge">
<title>Node1&#45;&gt;Node2</title>
<g id="a_edge1_Node000001_Node000002"><a xlink:title=" ">
<path fill="none" stroke="#63b8ff" d="M76.37,-35.22C84.06,-36.5 92.29,-37.87 100.4,-39.22"/>
<polygon fill="#63b8ff" stroke="#63b8ff" points="99.79,-42.67 110.23,-40.86 100.94,-35.76 99.79,-42.67"/>
</a>
</g>
</g>
<!-- Node3 -->
<g id="Node000003" class="node">
<title>Node3</title>
<g id="a_Node000003"><a xlink:href="file__operations_8cpp.html#a3218cc673e0643b611aa88e43c12bfb0" target="_top" xlink:title=" ">
<polygon fill="white" stroke="#666666" points="185.75,-20 122.5,-20 122.5,0 185.75,0 185.75,-20"/>
<text text-anchor="middle" x="154.12" y="-6.5" font-family="Helvetica,sans-Serif" font-size="10.00">saveToFile</text>
</a>
</g>
</g>
<!-- Node1&#45;&gt;Node3 -->
<g id="edge2_Node000001_Node000003" class="edge">
<title>Node1&#45;&gt;Node3</title>
<g id="a_edge2_Node000001_Node000003"><a xlink:title=" ">
<path fill="none" stroke="#63b8ff" d="M76.37,-22.78C87.49,-20.93 99.74,-18.89 111.13,-16.99"/>
<polygon fill="#63b8ff" stroke="#63b8ff" points="111.37,-20.5 120.66,-15.4 110.22,-13.59 111.37,-20.5"/>
</a>
</g>
</g>
<!-- Node4 -->
<g id="Node000004" class="node">
<title>Node4</title>
<g id="a_Node000004"><a xlink:href="crypto__utils_8cpp.html#a016d5dccebf13f0174419222835f5f80" target="_top" xlink:title=" ">
<polygon fill="white" stroke="#666666" points="296.25,-20 232.25,-20 232.25,0 296.25,0 296.25,-20"/>
<text text-anchor="middle" x="264.25" y="-6.5" font-family="Helvetica,sans-Serif" font-size="10.00">encryptFile</text>
</a>
</g>
</g>
<!-- Node3&#45;&gt;Node4 -->
<g id="edge3_Node000003_Node000004" class="edge">
<title>Node3&#45;&gt;Node4</title>
<g id="a_edge3_Node000003_Node000004"><a xlink:title=" ">
<path fill="none" stroke="#63b8ff" d="M186.11,-10C196.87,-10 209.14,-10 220.68,-10"/>
<polygon fill="#63b8ff" stroke="#63b8ff" points="220.37,-13.5 230.37,-10 220.37,-6.5 220.37,-13.5"/>
</a>
</g>
</g>
</g>
</svg>
</svg>

<style type='text/css'>
<![CDATA[
[data-mouse-over-selected='false'] { opacity: 0.7; }
[data-mouse-over-selected='true']  { opacity: 1.0; }
]]>
</style>
<script type="application/ecmascript"><![CDATA[
document.addEventListener('DOMContentLoaded', (event) => {
  highlightEdges();
  highlightAdjacentNodes();
});
]]></script>
</svg>
