<?xml version="1.0" encoding="UTF-8" standalone="no"?>
<!DOCTYPE svg PUBLIC "-//W3C//DTD SVG 1.1//EN"
 "http://www.w3.org/Graphics/SVG/1.1/DTD/svg11.dtd">
<!-- Generated by graphviz version 12.1.0 (20240811.2233)
 -->
<!-- Title: src/student.cpp Pages: 1 -->
<svg width="319pt" height="196pt"
 viewBox="0.00 0.00 319.38 196.00" xmlns="http://www.w3.org/2000/svg" xmlns:xlink="http://www.w3.org/1999/xlink">

<svg id="main" version="1.1" xmlns="http://www.w3.org/2000/svg" xmlns:xlink="http://www.w3.org/1999/xlink" xml:space="preserve">

<style type="text/css"><![CDATA[
.node, .edge {opacity: 0.7;}
.node.selected, .edge.selected {opacity: 1;}
.edge:hover path { stroke: red; }
.edge:hover polygon { stroke: red; fill: red; }
]]></style>
<script type="application/ecmascript" xlink:href="svg.min.js"/>
<svg id="graph" class="graph">
<g id="graph0" class="graph" transform="scale(1 1) rotate(0) translate(4 192)">
<title>src/student.cpp</title>
<!-- Node1 -->
<g id="Node000001" class="node">
<title>Node1</title>
<g id="a_Node000001"><a xlink:title=" ">
<polygon fill="#999999" stroke="#666666" points="275.25,-188 191.75,-188 191.75,-168 275.25,-168 275.25,-188"/>
<text text-anchor="middle" x="233.5" y="-174.5" font-family="Helvetica,sans-Serif" font-size="10.00">src/student.cpp</text>
</a>
</g>
</g>
<!-- Node2 -->
<g id="Node000002" class="node">
<title>Node2</title>
<g id="a_Node000002"><a xlink:href="student_8h.html" target="_top" xlink:title=" ">
<polygon fill="white" stroke="#666666" points="137.75,-132 81.25,-132 81.25,-112 137.75,-112 137.75,-132"/>
<text text-anchor="middle" x="109.5" y="-118.5" font-family="Helvetica,sans-Serif" font-size="10.00">student.h</text>
</a>
</g>
</g>
<!-- Node1&#45;&gt;Node2 -->
<g id="edge1_Node000001_Node000002" class="edge">
<title>Node1&#45;&gt;Node2</title>
<g id="a_edge1_Node000001_Node000002"><a xlink:title=" ">
<path fill="none" stroke="#63b8ff" d="M211.9,-167.59C192.55,-159.17 163.9,-146.69 141.82,-137.07"/>
<polygon fill="#63b8ff" stroke="#63b8ff" points="143.22,-133.87 132.66,-133.08 140.43,-140.29 143.22,-133.87"/>
</a>
</g>
</g>
<!-- Node7 -->
<g id="Node000007" class="node">
<title>Node7</title>
<g id="a_Node000007"><a xlink:title=" ">
<polygon fill="#e0e0e0" stroke="#999999" points="255.25,-20 201.75,-20 201.75,0 255.25,0 255.25,-20"/>
<text text-anchor="middle" x="228.5" y="-6.5" font-family="Helvetica,sans-Serif" font-size="10.00">iostream</text>
</a>
</g>
</g>
<!-- Node1&#45;&gt;Node7 -->
<g id="edge9_Node000001_Node000007" class="edge">
<title>Node1&#45;&gt;Node7</title>
<g id="a_edge9_Node000001_Node000007"><a xlink:title=" ">
<path fill="none" stroke="#63b8ff" d="M233.22,-167.6C232.43,-141.46 230.2,-67.48 229.11,-31.36"/>
<polygon fill="#63b8ff" stroke="#63b8ff" points="232.63,-31.7 228.83,-21.81 225.63,-31.91 232.63,-31.7"/>
</a>
</g>
</g>
<!-- Node8 -->
<g id="Node000008" class="node">
<title>Node8</title>
<g id="a_Node000008"><a xlink:title=" ">
<polygon fill="#e0e0e0" stroke="#999999" points="311.38,-132 261.62,-132 261.62,-112 311.38,-112 311.38,-132"/>
<text text-anchor="middle" x="286.5" y="-118.5" font-family="Helvetica,sans-Serif" font-size="10.00">iomanip</text>
</a>
</g>
</g>
<!-- Node1&#45;&gt;Node8 -->
<g id="edge10_Node000001_Node000008" class="edge">
<title>Node1&#45;&gt;Node8</title>
<g id="a_edge10_Node000001_Node000008"><a xlink:title=" ">
<path fill="none" stroke="#63b8ff" d="M242.73,-167.59C250.1,-160.08 260.63,-149.35 269.52,-140.3"/>
<polygon fill="#63b8ff" stroke="#63b8ff" points="271.81,-142.97 276.31,-133.38 266.81,-138.06 271.81,-142.97"/>
</a>
</g>
</g>
<!-- Node3 -->
<g id="Node000003" class="node">
<title>Node3</title>
<g id="a_Node000003"><a xlink:title=" ">
<polygon fill="#e0e0e0" stroke="#999999" points="179.5,-20 139.5,-20 139.5,0 179.5,0 179.5,-20"/>
<text text-anchor="middle" x="159.5" y="-6.5" font-family="Helvetica,sans-Serif" font-size="10.00">string</text>
</a>
</g>
</g>
<!-- Node2&#45;&gt;Node3 -->
<g id="edge2_Node000002_Node000003" class="edge">
<title>Node2&#45;&gt;Node3</title>
<g id="a_edge2_Node000002_Node000003"><a xlink:title=" ">
<path fill="none" stroke="#63b8ff" d="M111.21,-111.84C113.84,-98.94 119.51,-74.9 128.5,-56 132.91,-46.72 139.14,-37.24 144.85,-29.39"/>
<polygon fill="#63b8ff" stroke="#63b8ff" points="147.46,-31.74 150.73,-21.66 141.89,-27.5 147.46,-31.74"/>
</a>
</g>
</g>
<!-- Node4 -->
<g id="Node000004" class="node">
<title>Node4</title>
<g id="a_Node000004"><a xlink:title=" ">
<polygon fill="#e0e0e0" stroke="#999999" points="43,-76 0,-76 0,-56 43,-56 43,-76"/>
<text text-anchor="middle" x="21.5" y="-62.5" font-family="Helvetica,sans-Serif" font-size="10.00">vector</text>
</a>
</g>
</g>
<!-- Node2&#45;&gt;Node4 -->
<g id="edge3_Node000002_Node000004" class="edge">
<title>Node2&#45;&gt;Node4</title>
<g id="a_edge3_Node000002_Node000004"><a xlink:title=" ">
<path fill="none" stroke="#63b8ff" d="M94.17,-111.59C81,-103.51 61.77,-91.71 46.39,-82.27"/>
<polygon fill="#63b8ff" stroke="#63b8ff" points="48.59,-79.52 38.24,-77.27 44.93,-85.48 48.59,-79.52"/>
</a>
</g>
</g>
<!-- Node5 -->
<g id="Node000005" class="node">
<title>Node5</title>
<g id="a_Node000005"><a xlink:title=" ">
<polygon fill="#e0e0e0" stroke="#999999" points="113.12,-20 61.88,-20 61.88,0 113.12,0 113.12,-20"/>
<text text-anchor="middle" x="87.5" y="-6.5" font-family="Helvetica,sans-Serif" font-size="10.00">memory</text>
</a>
</g>
</g>
<!-- Node2&#45;&gt;Node5 -->
<g id="edge4_Node000002_Node000005" class="edge">
<title>Node2&#45;&gt;Node5</title>
<g id="a_edge4_Node000002_Node000005"><a xlink:title=" ">
<path fill="none" stroke="#63b8ff" d="M106.11,-111.82C102.92,-102.82 98.22,-88.64 95.5,-76 92.34,-61.33 90.31,-44.5 89.09,-31.65"/>
<polygon fill="#63b8ff" stroke="#63b8ff" points="92.59,-31.52 88.25,-21.85 85.62,-32.11 92.59,-31.52"/>
</a>
</g>
</g>
<!-- Node6 -->
<g id="Node000006" class="node">
<title>Node6</title>
<g id="a_Node000006"><a xlink:href="normative_8h.html" target="_top" xlink:title=" ">
<polygon fill="white" stroke="#666666" points="205,-76 138,-76 138,-56 205,-56 205,-76"/>
<text text-anchor="middle" x="171.5" y="-62.5" font-family="Helvetica,sans-Serif" font-size="10.00">normative.h</text>
</a>
</g>
</g>
<!-- Node2&#45;&gt;Node6 -->
<g id="edge5_Node000002_Node000006" class="edge">
<title>Node2&#45;&gt;Node6</title>
<g id="a_edge5_Node000002_Node000006"><a xlink:title=" ">
<path fill="none" stroke="#63b8ff" d="M120.3,-111.59C129.1,-103.93 141.75,-92.91 152.27,-83.75"/>
<polygon fill="#63b8ff" stroke="#63b8ff" points="154.44,-86.5 159.68,-77.29 149.84,-81.22 154.44,-86.5"/>
</a>
</g>
</g>
<!-- Node6&#45;&gt;Node3 -->
<g id="edge6_Node000006_Node000003" class="edge">
<title>Node6&#45;&gt;Node3</title>
<g id="a_edge6_Node000006_Node000003"><a xlink:title=" ">
<path fill="none" stroke="#63b8ff" d="M169.41,-55.59C167.93,-48.93 165.89,-39.75 164.04,-31.44"/>
<polygon fill="#63b8ff" stroke="#63b8ff" points="167.48,-30.78 161.89,-21.78 160.65,-32.3 167.48,-30.78"/>
</a>
</g>
</g>
<!-- Node6&#45;&gt;Node5 -->
<g id="edge7_Node000006_Node000005" class="edge">
<title>Node6&#45;&gt;Node5</title>
<g id="a_edge7_Node000006_Node000005"><a xlink:title=" ">
<path fill="none" stroke="#63b8ff" d="M156.87,-55.59C144.42,-47.59 126.28,-35.93 111.68,-26.54"/>
<polygon fill="#63b8ff" stroke="#63b8ff" points="113.82,-23.76 103.52,-21.3 110.04,-29.65 113.82,-23.76"/>
</a>
</g>
</g>
<!-- Node6&#45;&gt;Node7 -->
<g id="edge8_Node000006_Node000007" class="edge">
<title>Node6&#45;&gt;Node7</title>
<g id="a_edge8_Node000006_Node000007"><a xlink:title=" ">
<path fill="none" stroke="#63b8ff" d="M181.43,-55.59C189.44,-48.01 200.92,-37.13 210.53,-28.02"/>
<polygon fill="#63b8ff" stroke="#63b8ff" points="212.73,-30.76 217.59,-21.34 207.92,-25.68 212.73,-30.76"/>
</a>
</g>
</g>
</g>
</svg>
</svg>

<style type='text/css'>
<![CDATA[
[data-mouse-over-selected='false'] { opacity: 0.7; }
[data-mouse-over-selected='true']  { opacity: 1.0; }
]]>
</style>
<script type="application/ecmascript"><![CDATA[
document.addEventListener('DOMContentLoaded', (event) => {
  highlightEdges();
  highlightAdjacentNodes();
});
]]></script>
</svg>
