<?xml version="1.0" encoding="UTF-8" standalone="no"?>
<!DOCTYPE svg PUBLIC "-//W3C//DTD SVG 1.1//EN"
 "http://www.w3.org/Graphics/SVG/1.1/DTD/svg11.dtd">
<!-- Generated by graphviz version 12.1.0 (20240811.2233)
 -->
<!-- Title: src/student_manager.cpp Pages: 1 -->
<svg width="621pt" height="252pt"
 viewBox="0.00 0.00 620.62 252.00" xmlns="http://www.w3.org/2000/svg" xmlns:xlink="http://www.w3.org/1999/xlink">
<g id="graph0" class="graph" transform="scale(1 1) rotate(0) translate(4 248)">
<title>src/student_manager.cpp</title>
<!-- Node1 -->
<g id="Node000001" class="node">
<title>Node1</title>
<g id="a_Node000001"><a xlink:title=" ">
<polygon fill="#999999" stroke="#666666" points="432.88,-244 306.62,-244 306.62,-224 432.88,-224 432.88,-244"/>
<text text-anchor="middle" x="369.75" y="-230.5" font-family="Helvetica,sans-Serif" font-size="10.00">src/student_manager.cpp</text>
</a>
</g>
</g>
<!-- Node2 -->
<g id="Node000002" class="node">
<title>Node2</title>
<g id="a_Node000002"><a xlink:href="student__manager_8h.html" target="_top" xlink:title=" ">
<polygon fill="white" stroke="#666666" points="380.38,-188 281.12,-188 281.12,-168 380.38,-168 380.38,-188"/>
<text text-anchor="middle" x="330.75" y="-174.5" font-family="Helvetica,sans-Serif" font-size="10.00">student_manager.h</text>
</a>
</g>
</g>
<!-- Node1&#45;&gt;Node2 -->
<g id="edge1_Node000001_Node000002" class="edge">
<title>Node1&#45;&gt;Node2</title>
<g id="a_edge1_Node000001_Node000002"><a xlink:title=" ">
<path fill="none" stroke="#63b8ff" d="M362.96,-223.59C357.76,-216.39 350.42,-206.23 344.06,-197.43"/>
<polygon fill="#63b8ff" stroke="#63b8ff" points="347.04,-195.58 338.35,-189.53 341.37,-199.68 347.04,-195.58"/>
</a>
</g>
</g>
<!-- Node8 -->
<g id="Node000008" class="node">
<title>Node8</title>
<g id="a_Node000008"><a xlink:title=" ">
<polygon fill="#e0e0e0" stroke="#999999" points="421.5,-20 368,-20 368,0 421.5,0 421.5,-20"/>
<text text-anchor="middle" x="394.75" y="-6.5" font-family="Helvetica,sans-Serif" font-size="10.00">iostream</text>
</a>
</g>
</g>
<!-- Node1&#45;&gt;Node8 -->
<g id="edge21_Node000001_Node000008" class="edge">
<title>Node1&#45;&gt;Node8</title>
<g id="a_edge21_Node000001_Node000008"><a xlink:title=" ">
<path fill="none" stroke="#63b8ff" d="M375.17,-223.72C380.02,-214.87 386.8,-201.01 389.75,-188 402.31,-132.69 399.36,-65.16 396.74,-31.76"/>
<polygon fill="#63b8ff" stroke="#63b8ff" points="400.23,-31.54 395.88,-21.88 393.26,-32.15 400.23,-31.54"/>
</a>
</g>
</g>
<!-- Node9 -->
<g id="Node000009" class="node">
<title>Node9</title>
<g id="a_Node000009"><a xlink:href="validation_8h.html" target="_top" xlink:title=" ">
<polygon fill="white" stroke="#666666" points="65.5,-132 0,-132 0,-112 65.5,-112 65.5,-132"/>
<text text-anchor="middle" x="32.75" y="-118.5" font-family="Helvetica,sans-Serif" font-size="10.00">validation.h</text>
</a>
</g>
</g>
<!-- Node1&#45;&gt;Node9 -->
<g id="edge12_Node000001_Node000009" class="edge">
<title>Node1&#45;&gt;Node9</title>
<g id="a_edge12_Node000001_Node000009"><a xlink:title=" ">
<path fill="none" stroke="#63b8ff" d="M306.22,-229.6C230.66,-224.49 110.04,-212.68 72.75,-188 56.71,-177.38 46,-157.9 39.73,-143.02"/>
<polygon fill="#63b8ff" stroke="#63b8ff" points="43.02,-141.84 36.18,-133.75 36.49,-144.34 43.02,-141.84"/>
</a>
</g>
</g>
<!-- Node10 -->
<g id="Node000010" class="node">
<title>Node10</title>
<g id="a_Node000010"><a xlink:href="file__operations_8h.html" target="_top" xlink:title=" ">
<polygon fill="white" stroke="#666666" points="263.38,-188 176.12,-188 176.12,-168 263.38,-168 263.38,-188"/>
<text text-anchor="middle" x="219.75" y="-174.5" font-family="Helvetica,sans-Serif" font-size="10.00">file_operations.h</text>
</a>
</g>
</g>
<!-- Node1&#45;&gt;Node10 -->
<g id="edge14_Node000001_Node000010" class="edge">
<title>Node1&#45;&gt;Node10</title>
<g id="a_edge14_Node000001_Node000010"><a xlink:title=" ">
<path fill="none" stroke="#63b8ff" d="M343.62,-223.59C319.57,-214.94 283.65,-202 256.67,-192.29"/>
<polygon fill="#63b8ff" stroke="#63b8ff" points="258.1,-189.09 247.51,-188.99 255.73,-195.67 258.1,-189.09"/>
</a>
</g>
</g>
<!-- Node11 -->
<g id="Node000011" class="node">
<title>Node11</title>
<g id="a_Node000011"><a xlink:href="txt__importer_8h.html" target="_top" xlink:title=" ">
<polygon fill="white" stroke="#666666" points="157.75,-188 81.75,-188 81.75,-168 157.75,-168 157.75,-188"/>
<text text-anchor="middle" x="119.75" y="-174.5" font-family="Helvetica,sans-Serif" font-size="10.00">txt_importer.h</text>
</a>
</g>
</g>
<!-- Node1&#45;&gt;Node11 -->
<g id="edge17_Node000001_Node000011" class="edge">
<title>Node1&#45;&gt;Node11</title>
<g id="a_edge17_Node000001_Node000011"><a xlink:title=" ">
<path fill="none" stroke="#63b8ff" d="M325.92,-223.53C282.15,-214.08 215,-199.57 169.32,-189.71"/>
<polygon fill="#63b8ff" stroke="#63b8ff" points="170.19,-186.31 159.68,-187.62 168.71,-193.16 170.19,-186.31"/>
</a>
</g>
</g>
<!-- Node12 -->
<g id="Node000012" class="node">
<title>Node12</title>
<g id="a_Node000012"><a xlink:title=" ">
<polygon fill="#e0e0e0" stroke="#999999" points="486.62,-188 436.88,-188 436.88,-168 486.62,-168 486.62,-188"/>
<text text-anchor="middle" x="461.75" y="-174.5" font-family="Helvetica,sans-Serif" font-size="10.00">iomanip</text>
</a>
</g>
</g>
<!-- Node1&#45;&gt;Node12 -->
<g id="edge22_Node000001_Node000012" class="edge">
<title>Node1&#45;&gt;Node12</title>
<g id="a_edge22_Node000001_Node000012"><a xlink:title=" ">
<path fill="none" stroke="#63b8ff" d="M385.78,-223.59C399.54,-215.51 419.65,-203.71 435.73,-194.27"/>
<polygon fill="#63b8ff" stroke="#63b8ff" points="437.44,-197.33 444.29,-189.25 433.9,-191.29 437.44,-197.33"/>
</a>
</g>
</g>
<!-- Node13 -->
<g id="Node000013" class="node">
<title>Node13</title>
<g id="a_Node000013"><a xlink:title=" ">
<polygon fill="#e0e0e0" stroke="#999999" points="539.12,-188 504.38,-188 504.38,-168 539.12,-168 539.12,-188"/>
<text text-anchor="middle" x="521.75" y="-174.5" font-family="Helvetica,sans-Serif" font-size="10.00">map</text>
</a>
</g>
</g>
<!-- Node1&#45;&gt;Node13 -->
<g id="edge23_Node000001_Node000013" class="edge">
<title>Node1&#45;&gt;Node13</title>
<g id="a_edge23_Node000001_Node000013"><a xlink:title=" ">
<path fill="none" stroke="#63b8ff" d="M396.23,-223.59C423.44,-213.93 465.65,-198.93 493.5,-189.04"/>
<polygon fill="#63b8ff" stroke="#63b8ff" points="494.43,-192.42 502.68,-185.77 492.09,-185.82 494.43,-192.42"/>
</a>
</g>
</g>
<!-- Node14 -->
<g id="Node000014" class="node">
<title>Node14</title>
<g id="a_Node000014"><a xlink:title=" ">
<polygon fill="#e0e0e0" stroke="#999999" points="612.62,-188 556.88,-188 556.88,-168 612.62,-168 612.62,-188"/>
<text text-anchor="middle" x="584.75" y="-174.5" font-family="Helvetica,sans-Serif" font-size="10.00">algorithm</text>
</a>
</g>
</g>
<!-- Node1&#45;&gt;Node14 -->
<g id="edge24_Node000001_Node000014" class="edge">
<title>Node1&#45;&gt;Node14</title>
<g id="a_edge24_Node000001_Node000014"><a xlink:title=" ">
<path fill="none" stroke="#63b8ff" d="M407.2,-223.59C445.96,-213.86 506.25,-198.72 545.62,-188.83"/>
<polygon fill="#63b8ff" stroke="#63b8ff" points="546.31,-192.26 555.16,-186.43 544.61,-185.47 546.31,-192.26"/>
</a>
</g>
</g>
<!-- Node3 -->
<g id="Node000003" class="node">
<title>Node3</title>
<g id="a_Node000003"><a xlink:title=" ">
<polygon fill="#e0e0e0" stroke="#999999" points="180.25,-76 137.25,-76 137.25,-56 180.25,-56 180.25,-76"/>
<text text-anchor="middle" x="158.75" y="-62.5" font-family="Helvetica,sans-Serif" font-size="10.00">vector</text>
</a>
</g>
</g>
<!-- Node2&#45;&gt;Node3 -->
<g id="edge2_Node000002_Node000003" class="edge">
<title>Node2&#45;&gt;Node3</title>
<g id="a_edge2_Node000002_Node000003"><a xlink:title=" ">
<path fill="none" stroke="#63b8ff" d="M301.55,-167.53C279.9,-159.77 250.2,-147.55 226.75,-132 206.65,-118.67 187.12,-99.09 174.18,-84.91"/>
<polygon fill="#63b8ff" stroke="#63b8ff" points="176.96,-82.77 167.7,-77.62 171.73,-87.42 176.96,-82.77"/>
</a>
</g>
</g>
<!-- Node4 -->
<g id="Node000004" class="node">
<title>Node4</title>
<g id="a_Node000004"><a xlink:title=" ">
<polygon fill="#e0e0e0" stroke="#999999" points="228.75,-20 188.75,-20 188.75,0 228.75,0 228.75,-20"/>
<text text-anchor="middle" x="208.75" y="-6.5" font-family="Helvetica,sans-Serif" font-size="10.00">string</text>
</a>
</g>
</g>
<!-- Node2&#45;&gt;Node4 -->
<g id="edge3_Node000002_Node000004" class="edge">
<title>Node2&#45;&gt;Node4</title>
<g id="a_edge3_Node000002_Node000004"><a xlink:title=" ">
<path fill="none" stroke="#63b8ff" d="M327.5,-167.71C322.7,-154.66 312.98,-130.44 300.75,-112 279.26,-79.6 247.58,-47.29 227.56,-28.23"/>
<polygon fill="#63b8ff" stroke="#63b8ff" points="230.06,-25.78 220.37,-21.49 225.27,-30.88 230.06,-25.78"/>
</a>
</g>
</g>
<!-- Node5 -->
<g id="Node000005" class="node">
<title>Node5</title>
<g id="a_Node000005"><a xlink:href="student_8h.html" target="_top" xlink:title=" ">
<polygon fill="white" stroke="#666666" points="292,-132 235.5,-132 235.5,-112 292,-112 292,-132"/>
<text text-anchor="middle" x="263.75" y="-118.5" font-family="Helvetica,sans-Serif" font-size="10.00">student.h</text>
</a>
</g>
</g>
<!-- Node2&#45;&gt;Node5 -->
<g id="edge4_Node000002_Node000005" class="edge">
<title>Node2&#45;&gt;Node5</title>
<g id="a_edge4_Node000002_Node000005"><a xlink:title=" ">
<path fill="none" stroke="#63b8ff" d="M319.08,-167.59C309.47,-159.85 295.62,-148.69 284.18,-139.47"/>
<polygon fill="#63b8ff" stroke="#63b8ff" points="286.45,-136.8 276.47,-133.25 282.05,-142.25 286.45,-136.8"/>
</a>
</g>
</g>
<!-- Node5&#45;&gt;Node3 -->
<g id="edge6_Node000005_Node000003" class="edge">
<title>Node5&#45;&gt;Node3</title>
<g id="a_edge6_Node000005_Node000003"><a xlink:title=" ">
<path fill="none" stroke="#63b8ff" d="M245.46,-111.59C229.45,-103.36 205.92,-91.26 187.41,-81.74"/>
<polygon fill="#63b8ff" stroke="#63b8ff" points="189.02,-78.63 178.53,-77.17 185.82,-84.86 189.02,-78.63"/>
</a>
</g>
</g>
<!-- Node5&#45;&gt;Node4 -->
<g id="edge5_Node000005_Node000004" class="edge">
<title>Node5&#45;&gt;Node4</title>
<g id="a_edge5_Node000005_Node000004"><a xlink:title=" ">
<path fill="none" stroke="#63b8ff" d="M256.37,-111.78C249.58,-102.97 239.56,-89.14 232.75,-76 225.2,-61.45 218.89,-43.97 214.63,-30.8"/>
<polygon fill="#63b8ff" stroke="#63b8ff" points="218.08,-30.09 211.78,-21.58 211.39,-32.17 218.08,-30.09"/>
</a>
</g>
</g>
<!-- Node6 -->
<g id="Node000006" class="node">
<title>Node6</title>
<g id="a_Node000006"><a xlink:title=" ">
<polygon fill="#e0e0e0" stroke="#999999" points="323.38,-20 272.12,-20 272.12,0 323.38,0 323.38,-20"/>
<text text-anchor="middle" x="297.75" y="-6.5" font-family="Helvetica,sans-Serif" font-size="10.00">memory</text>
</a>
</g>
</g>
<!-- Node5&#45;&gt;Node6 -->
<g id="edge7_Node000005_Node000006" class="edge">
<title>Node5&#45;&gt;Node6</title>
<g id="a_edge7_Node000005_Node000006"><a xlink:title=" ">
<path fill="none" stroke="#63b8ff" d="M266.65,-111.62C272.12,-93.92 284.08,-55.24 291.47,-31.32"/>
<polygon fill="#63b8ff" stroke="#63b8ff" points="294.8,-32.39 294.41,-21.8 288.11,-30.32 294.8,-32.39"/>
</a>
</g>
</g>
<!-- Node7 -->
<g id="Node000007" class="node">
<title>Node7</title>
<g id="a_Node000007"><a xlink:href="normative_8h.html" target="_top" xlink:title=" ">
<polygon fill="white" stroke="#666666" points="380.25,-76 313.25,-76 313.25,-56 380.25,-56 380.25,-76"/>
<text text-anchor="middle" x="346.75" y="-62.5" font-family="Helvetica,sans-Serif" font-size="10.00">normative.h</text>
</a>
</g>
</g>
<!-- Node5&#45;&gt;Node7 -->
<g id="edge8_Node000005_Node000007" class="edge">
<title>Node5&#45;&gt;Node7</title>
<g id="a_edge8_Node000005_Node000007"><a xlink:title=" ">
<path fill="none" stroke="#63b8ff" d="M278.21,-111.59C290.51,-103.59 308.43,-91.93 322.86,-82.54"/>
<polygon fill="#63b8ff" stroke="#63b8ff" points="324.44,-85.69 330.91,-77.3 320.62,-79.82 324.44,-85.69"/>
</a>
</g>
</g>
<!-- Node7&#45;&gt;Node4 -->
<g id="edge9_Node000007_Node000004" class="edge">
<title>Node7&#45;&gt;Node4</title>
<g id="a_edge9_Node000007_Node000004"><a xlink:title=" ">
<path fill="none" stroke="#63b8ff" d="M322.71,-55.59C299.57,-46.54 264.48,-32.81 239.36,-22.98"/>
<polygon fill="#63b8ff" stroke="#63b8ff" points="240.92,-19.83 230.34,-19.45 238.37,-26.35 240.92,-19.83"/>
</a>
</g>
</g>
<!-- Node7&#45;&gt;Node6 -->
<g id="edge10_Node000007_Node000006" class="edge">
<title>Node7&#45;&gt;Node6</title>
<g id="a_edge10_Node000007_Node000006"><a xlink:title=" ">
<path fill="none" stroke="#63b8ff" d="M338.21,-55.59C331.47,-48.16 321.86,-37.58 313.71,-28.58"/>
<polygon fill="#63b8ff" stroke="#63b8ff" points="316.52,-26.47 307.2,-21.42 311.33,-31.18 316.52,-26.47"/>
</a>
</g>
</g>
<!-- Node7&#45;&gt;Node8 -->
<g id="edge11_Node000007_Node000008" class="edge">
<title>Node7&#45;&gt;Node8</title>
<g id="a_edge11_Node000007_Node000008"><a xlink:title=" ">
<path fill="none" stroke="#63b8ff" d="M355.11,-55.59C361.65,-48.24 370.93,-37.8 378.87,-28.87"/>
<polygon fill="#63b8ff" stroke="#63b8ff" points="381.45,-31.23 385.48,-21.43 376.22,-26.58 381.45,-31.23"/>
</a>
</g>
</g>
<!-- Node9&#45;&gt;Node4 -->
<g id="edge13_Node000009_Node000004" class="edge">
<title>Node9&#45;&gt;Node4</title>
<g id="a_edge13_Node000009_Node000004"><a xlink:title=" ">
<path fill="none" stroke="#63b8ff" d="M37.17,-111.64C44.24,-97.61 59.42,-71.14 79.75,-56 109.04,-34.18 149.78,-22.33 177.58,-16.35"/>
<polygon fill="#63b8ff" stroke="#63b8ff" points="178.04,-19.83 187.15,-14.43 176.66,-12.96 178.04,-19.83"/>
</a>
</g>
</g>
<!-- Node10&#45;&gt;Node3 -->
<g id="edge15_Node000010_Node000003" class="edge">
<title>Node10&#45;&gt;Node3</title>
<g id="a_edge15_Node000010_Node000003"><a xlink:title=" ">
<path fill="none" stroke="#63b8ff" d="M214.29,-167.74C208.97,-158.67 200.7,-144.45 193.75,-132 185.25,-116.76 175.89,-99.35 168.99,-86.39"/>
<polygon fill="#63b8ff" stroke="#63b8ff" points="172.13,-84.84 164.36,-77.64 165.95,-88.12 172.13,-84.84"/>
</a>
</g>
</g>
<!-- Node10&#45;&gt;Node5 -->
<g id="edge16_Node000010_Node000005" class="edge">
<title>Node10&#45;&gt;Node5</title>
<g id="a_edge16_Node000010_Node000005"><a xlink:title=" ">
<path fill="none" stroke="#63b8ff" d="M227.41,-167.59C233.34,-160.32 241.74,-150.02 248.96,-141.15"/>
<polygon fill="#63b8ff" stroke="#63b8ff" points="251.61,-143.43 255.22,-133.47 246.19,-139.01 251.61,-143.43"/>
</a>
</g>
</g>
<!-- Node11&#45;&gt;Node3 -->
<g id="edge18_Node000011_Node000003" class="edge">
<title>Node11&#45;&gt;Node3</title>
<g id="a_edge18_Node000011_Node000003"><a xlink:title=" ">
<path fill="none" stroke="#63b8ff" d="M123.08,-167.62C129.38,-149.84 143.19,-110.88 151.66,-87"/>
<polygon fill="#63b8ff" stroke="#63b8ff" points="154.88,-88.38 154.93,-77.78 148.29,-86.04 154.88,-88.38"/>
</a>
</g>
</g>
<!-- Node11&#45;&gt;Node4 -->
<g id="edge19_Node000011_Node000004" class="edge">
<title>Node11&#45;&gt;Node4</title>
<g id="a_edge19_Node000011_Node000004"><a xlink:title=" ">
<path fill="none" stroke="#63b8ff" d="M117.67,-167.59C113.44,-145.95 106.03,-91.73 128.75,-56 139.94,-38.4 160.59,-27.04 178.1,-20.13"/>
<polygon fill="#63b8ff" stroke="#63b8ff" points="178.85,-23.59 187.07,-16.91 176.48,-17 178.85,-23.59"/>
</a>
</g>
</g>
<!-- Node11&#45;&gt;Node5 -->
<g id="edge20_Node000011_Node000005" class="edge">
<title>Node11&#45;&gt;Node5</title>
<g id="a_edge20_Node000011_Node000005"><a xlink:title=" ">
<path fill="none" stroke="#63b8ff" d="M144.83,-167.59C167.82,-158.97 202.1,-146.12 227.96,-136.42"/>
<polygon fill="#63b8ff" stroke="#63b8ff" points="228.92,-139.8 237.05,-133.01 226.46,-133.25 228.92,-139.8"/>
</a>
</g>
</g>
</g>
</svg>
