<?xml version="1.0" encoding="UTF-8" standalone="no"?>
<!DOCTYPE svg PUBLIC "-//W3C//DTD SVG 1.1//EN"
 "http://www.w3.org/Graphics/SVG/1.1/DTD/svg11.dtd">
<!-- Generated by graphviz version 12.1.0 (20240811.2233)
 -->
<!-- Title: include/student.h Pages: 1 -->
<svg width="586pt" height="140pt"
 viewBox="0.00 0.00 585.88 140.00" xmlns="http://www.w3.org/2000/svg" xmlns:xlink="http://www.w3.org/1999/xlink">
<g id="graph0" class="graph" transform="scale(1 1) rotate(0) translate(4 136)">
<title>include/student.h</title>
<!-- Node1 -->
<g id="Node000001" class="node">
<title>Node1</title>
<g id="a_Node000001"><a xlink:title=" ">
<polygon fill="#999999" stroke="#666666" points="396.25,-132 306,-132 306,-112 396.25,-112 396.25,-132"/>
<text text-anchor="middle" x="351.12" y="-118.5" font-family="Helvetica,sans-Serif" font-size="10.00">include/student.h</text>
</a>
</g>
</g>
<!-- Node2 -->
<g id="Node000002" class="node">
<title>Node2</title>
<g id="a_Node000002"><a xlink:href="file__operations_8h.html" target="_top" xlink:title=" ">
<polygon fill="white" stroke="#666666" points="197.62,-76 76.62,-76 76.62,-56 197.62,-56 197.62,-76"/>
<text text-anchor="middle" x="137.12" y="-62.5" font-family="Helvetica,sans-Serif" font-size="10.00">include/file_operations.h</text>
</a>
</g>
</g>
<!-- Node1&#45;&gt;Node2 -->
<g id="edge1_Node000001_Node000002" class="edge">
<title>Node1&#45;&gt;Node2</title>
<g id="a_edge1_Node000001_Node000002"><a xlink:title=" ">
<path fill="none" stroke="#63b8ff" d="M302.83,-108.81C264.03,-99.02 210.32,-85.47 174.69,-76.48"/>
<polygon fill="#63b8ff" stroke="#63b8ff" points="301.83,-112.17 312.38,-111.22 303.54,-105.38 301.83,-112.17"/>
</a>
</g>
</g>
<!-- Node6 -->
<g id="Node000006" class="node">
<title>Node6</title>
<g id="a_Node000006"><a xlink:href="student__manager_8h.html" target="_top" xlink:title=" ">
<polygon fill="white" stroke="#666666" points="348.62,-76 215.62,-76 215.62,-56 348.62,-56 348.62,-76"/>
<text text-anchor="middle" x="282.12" y="-62.5" font-family="Helvetica,sans-Serif" font-size="10.00">include/student_manager.h</text>
</a>
</g>
</g>
<!-- Node1&#45;&gt;Node6 -->
<g id="edge5_Node000001_Node000006" class="edge">
<title>Node1&#45;&gt;Node6</title>
<g id="a_edge5_Node000001_Node000006"><a xlink:title=" ">
<path fill="none" stroke="#63b8ff" d="M330.27,-104.68C318.4,-95.39 303.96,-84.09 294.01,-76.3"/>
<polygon fill="#63b8ff" stroke="#63b8ff" points="327.88,-107.25 337.91,-110.66 332.2,-101.74 327.88,-107.25"/>
</a>
</g>
</g>
<!-- Node7 -->
<g id="Node000007" class="node">
<title>Node7</title>
<g id="a_Node000007"><a xlink:href="txt__importer_8h.html" target="_top" xlink:title=" ">
<polygon fill="white" stroke="#666666" points="476,-76 366.25,-76 366.25,-56 476,-56 476,-76"/>
<text text-anchor="middle" x="421.12" y="-62.5" font-family="Helvetica,sans-Serif" font-size="10.00">include/txt_importer.h</text>
</a>
</g>
</g>
<!-- Node1&#45;&gt;Node7 -->
<g id="edge8_Node000001_Node000007" class="edge">
<title>Node1&#45;&gt;Node7</title>
<g id="a_edge8_Node000001_Node000007"><a xlink:title=" ">
<path fill="none" stroke="#63b8ff" d="M372.28,-104.68C384.32,-95.39 398.98,-84.09 409.07,-76.3"/>
<polygon fill="#63b8ff" stroke="#63b8ff" points="370.3,-101.79 364.52,-110.67 374.57,-107.33 370.3,-101.79"/>
</a>
</g>
</g>
<!-- Node9 -->
<g id="Node000009" class="node">
<title>Node9</title>
<g id="a_Node000009"><a xlink:href="student_8cpp.html" target="_top" xlink:title=" ">
<polygon fill="white" stroke="#666666" points="577.88,-76 494.38,-76 494.38,-56 577.88,-56 577.88,-76"/>
<text text-anchor="middle" x="536.12" y="-62.5" font-family="Helvetica,sans-Serif" font-size="10.00">src/student.cpp</text>
</a>
</g>
</g>
<!-- Node1&#45;&gt;Node9 -->
<g id="edge11_Node000001_Node000009" class="edge">
<title>Node1&#45;&gt;Node9</title>
<g id="a_edge11_Node000001_Node000009"><a xlink:title=" ">
<path fill="none" stroke="#63b8ff" d="M394.18,-108.43C427.61,-98.67 473.24,-85.35 503.65,-76.48"/>
<polygon fill="#63b8ff" stroke="#63b8ff" points="393.42,-105.01 384.8,-111.17 395.38,-111.73 393.42,-105.01"/>
</a>
</g>
</g>
<!-- Node3 -->
<g id="Node000003" class="node">
<title>Node3</title>
<g id="a_Node000003"><a xlink:href="file__operations_8cpp.html" target="_top" xlink:title=" ">
<polygon fill="white" stroke="#666666" points="114.25,-20 0,-20 0,0 114.25,0 114.25,-20"/>
<text text-anchor="middle" x="57.12" y="-6.5" font-family="Helvetica,sans-Serif" font-size="10.00">src/file_operations.cpp</text>
</a>
</g>
</g>
<!-- Node2&#45;&gt;Node3 -->
<g id="edge2_Node000002_Node000003" class="edge">
<title>Node2&#45;&gt;Node3</title>
<g id="a_edge2_Node000002_Node000003"><a xlink:title=" ">
<path fill="none" stroke="#63b8ff" d="M113.82,-49.27C100,-39.94 82.94,-28.43 71.17,-20.48"/>
<polygon fill="#63b8ff" stroke="#63b8ff" points="111.69,-52.05 121.94,-54.75 115.61,-46.25 111.69,-52.05"/>
</a>
</g>
</g>
<!-- Node4 -->
<g id="Node000004" class="node">
<title>Node4</title>
<g id="a_Node000004"><a xlink:href="main_8cpp.html" target="_top" xlink:title=" ">
<polygon fill="white" stroke="#666666" points="204.25,-20 132,-20 132,0 204.25,0 204.25,-20"/>
<text text-anchor="middle" x="168.12" y="-6.5" font-family="Helvetica,sans-Serif" font-size="10.00">src/main.cpp</text>
</a>
</g>
</g>
<!-- Node2&#45;&gt;Node4 -->
<g id="edge3_Node000002_Node000004" class="edge">
<title>Node2&#45;&gt;Node4</title>
<g id="a_edge3_Node000002_Node000004"><a xlink:title=" ">
<path fill="none" stroke="#63b8ff" d="M148.11,-45.87C153.09,-37.19 158.76,-27.32 162.79,-20.3"/>
<polygon fill="#63b8ff" stroke="#63b8ff" points="145.22,-43.87 143.28,-54.28 151.29,-47.35 145.22,-43.87"/>
</a>
</g>
</g>
<!-- Node5 -->
<g id="Node000005" class="node">
<title>Node5</title>
<g id="a_Node000005"><a xlink:href="student__manager_8cpp.html" target="_top" xlink:title=" ">
<polygon fill="white" stroke="#666666" points="348.25,-20 222,-20 222,0 348.25,0 348.25,-20"/>
<text text-anchor="middle" x="285.12" y="-6.5" font-family="Helvetica,sans-Serif" font-size="10.00">src/student_manager.cpp</text>
</a>
</g>
</g>
<!-- Node2&#45;&gt;Node5 -->
<g id="edge4_Node000002_Node000005" class="edge">
<title>Node2&#45;&gt;Node5</title>
<g id="a_edge4_Node000002_Node000005"><a xlink:title=" ">
<path fill="none" stroke="#63b8ff" d="M173.68,-51.66C200.21,-41.98 235.45,-29.12 259.14,-20.48"/>
<polygon fill="#63b8ff" stroke="#63b8ff" points="172.52,-48.36 164.33,-55.08 174.92,-54.94 172.52,-48.36"/>
</a>
</g>
</g>
<!-- Node6&#45;&gt;Node4 -->
<g id="edge6_Node000006_Node000004" class="edge">
<title>Node6&#45;&gt;Node4</title>
<g id="a_edge6_Node000006_Node000004"><a xlink:title=" ">
<path fill="none" stroke="#63b8ff" d="M252.03,-50.75C231.84,-41.18 205.81,-28.85 188.14,-20.48"/>
<polygon fill="#63b8ff" stroke="#63b8ff" points="250.36,-53.83 260.9,-54.95 253.36,-47.5 250.36,-53.83"/>
</a>
</g>
</g>
<!-- Node6&#45;&gt;Node5 -->
<g id="edge7_Node000006_Node000005" class="edge">
<title>Node6&#45;&gt;Node5</title>
<g id="a_edge7_Node000006_Node000005"><a xlink:title=" ">
<path fill="none" stroke="#63b8ff" d="M283.28,-44.13C283.74,-35.9 284.24,-26.85 284.61,-20.3"/>
<polygon fill="#63b8ff" stroke="#63b8ff" points="279.79,-43.9 282.73,-54.08 286.78,-44.29 279.79,-43.9"/>
</a>
</g>
</g>
<!-- Node7&#45;&gt;Node5 -->
<g id="edge9_Node000007_Node000005" class="edge">
<title>Node7&#45;&gt;Node5</title>
<g id="a_edge9_Node000007_Node000005"><a xlink:title=" ">
<path fill="none" stroke="#63b8ff" d="M386.88,-51.4C362.58,-41.75 330.57,-29.05 309,-20.48"/>
<polygon fill="#63b8ff" stroke="#63b8ff" points="385.44,-54.6 396.03,-55.04 388.03,-48.09 385.44,-54.6"/>
</a>
</g>
</g>
<!-- Node8 -->
<g id="Node000008" class="node">
<title>Node8</title>
<g id="a_Node000008"><a xlink:href="txt__importer_8cpp.html" target="_top" xlink:title=" ">
<polygon fill="white" stroke="#666666" points="472.62,-20 369.62,-20 369.62,0 472.62,0 472.62,-20"/>
<text text-anchor="middle" x="421.12" y="-6.5" font-family="Helvetica,sans-Serif" font-size="10.00">src/txt_importer.cpp</text>
</a>
</g>
</g>
<!-- Node7&#45;&gt;Node8 -->
<g id="edge10_Node000007_Node000008" class="edge">
<title>Node7&#45;&gt;Node8</title>
<g id="a_edge10_Node000007_Node000008"><a xlink:title=" ">
<path fill="none" stroke="#63b8ff" d="M421.12,-44.13C421.12,-35.9 421.12,-26.85 421.12,-20.3"/>
<polygon fill="#63b8ff" stroke="#63b8ff" points="417.63,-44.08 421.13,-54.08 424.63,-44.08 417.63,-44.08"/>
</a>
</g>
</g>
</g>
</svg>
