<?xml version="1.0" encoding="UTF-8" standalone="no"?>
<!DOCTYPE svg PUBLIC "-//W3C//DTD SVG 1.1//EN"
 "http://www.w3.org/Graphics/SVG/1.1/DTD/svg11.dtd">
<!-- Generated by graphviz version 12.1.0 (20240811.2233)
 -->
<!-- Title: editStudent Pages: 1 -->
<svg width="307pt" height="218pt"
 viewBox="0.00 0.00 306.50 218.00" xmlns="http://www.w3.org/2000/svg" xmlns:xlink="http://www.w3.org/1999/xlink">

<svg id="main" version="1.1" xmlns="http://www.w3.org/2000/svg" xmlns:xlink="http://www.w3.org/1999/xlink" xml:space="preserve">

<style type="text/css"><![CDATA[
.node, .edge {opacity: 0.7;}
.node.selected, .edge.selected {opacity: 1;}
.edge:hover path { stroke: red; }
.edge:hover polygon { stroke: red; fill: red; }
]]></style>
<script type="application/ecmascript" xlink:href="svg.min.js"/>
<svg id="graph" class="graph">
<g id="graph0" class="graph" transform="scale(1 1) rotate(0) translate(4 214)">
<title>editStudent</title>
<!-- Node1 -->
<g id="Node000001" class="node">
<title>Node1</title>
<g id="a_Node000001"><a xlink:title=" ">
<polygon fill="#999999" stroke="#666666" points="65.5,-115 0,-115 0,-95 65.5,-95 65.5,-115"/>
<text text-anchor="middle" x="32.75" y="-101.5" font-family="Helvetica,sans-Serif" font-size="10.00">editStudent</text>
</a>
</g>
</g>
<!-- Node2 -->
<g id="Node000002" class="node">
<title>Node2</title>
<g id="a_Node000002"><a xlink:href="validation_8cpp.html#a22d7c3e857afba4903a76181f91ea9fb" target="_top" xlink:title=" ">
<polygon fill="white" stroke="#666666" points="192.12,-210 107.88,-210 107.88,-190 192.12,-190 192.12,-210"/>
<text text-anchor="middle" x="150" y="-196.5" font-family="Helvetica,sans-Serif" font-size="10.00">clearInputBuffer</text>
</a>
</g>
</g>
<!-- Node1&#45;&gt;Node2 -->
<g id="edge1_Node000001_Node000002" class="edge">
<title>Node1&#45;&gt;Node2</title>
<g id="a_edge1_Node000001_Node000002"><a xlink:title=" ">
<path fill="none" stroke="#63b8ff" d="M40.67,-115.48C51.78,-131.57 75.02,-162.43 101.5,-181 103.3,-182.26 105.2,-183.46 107.15,-184.59"/>
<polygon fill="#63b8ff" stroke="#63b8ff" points="105.42,-187.63 115.92,-189.02 108.57,-181.39 105.42,-187.63"/>
</a>
</g>
</g>
<!-- Node3 -->
<g id="Node000003" class="node">
<title>Node3</title>
<g id="a_Node000003"><a xlink:href="validation_8cpp.html#a5af6e666c07b7851889ae4f3ec81ff77" target="_top" xlink:title=" ">
<polygon fill="white" stroke="#666666" points="182.75,-172 117.25,-172 117.25,-152 182.75,-152 182.75,-172"/>
<text text-anchor="middle" x="150" y="-158.5" font-family="Helvetica,sans-Serif" font-size="10.00">isValidDate</text>
</a>
</g>
</g>
<!-- Node1&#45;&gt;Node3 -->
<g id="edge2_Node000001_Node000003" class="edge">
<title>Node1&#45;&gt;Node3</title>
<g id="a_edge2_Node000001_Node000003"><a xlink:title=" ">
<path fill="none" stroke="#63b8ff" d="M50.97,-115.48C64.46,-123.5 83.86,-134.57 101.5,-143 104.43,-144.4 107.49,-145.79 110.59,-147.14"/>
<polygon fill="#63b8ff" stroke="#63b8ff" points="109.14,-150.32 119.71,-150.96 111.84,-143.87 109.14,-150.32"/>
</a>
</g>
</g>
<!-- Node4 -->
<g id="Node000004" class="node">
<title>Node4</title>
<g id="a_Node000004"><a xlink:href="validation_8cpp.html#a2c5bd10f6a2cf42d366fcb1c79442d16" target="_top" xlink:title=" ">
<polygon fill="white" stroke="#666666" points="198.5,-134 101.5,-134 101.5,-114 198.5,-114 198.5,-134"/>
<text text-anchor="middle" x="150" y="-120.5" font-family="Helvetica,sans-Serif" font-size="10.00">isValidGroupName</text>
</a>
</g>
</g>
<!-- Node1&#45;&gt;Node4 -->
<g id="edge3_Node000001_Node000004" class="edge">
<title>Node1&#45;&gt;Node4</title>
<g id="a_edge3_Node000001_Node000004"><a xlink:title=" ">
<path fill="none" stroke="#63b8ff" d="M65.85,-110.29C73.36,-111.53 81.6,-112.89 89.87,-114.25"/>
<polygon fill="#63b8ff" stroke="#63b8ff" points="89.19,-117.69 99.63,-115.86 90.33,-110.78 89.19,-117.69"/>
</a>
</g>
</g>
<!-- Node5 -->
<g id="Node000005" class="node">
<title>Node5</title>
<g id="a_Node000005"><a xlink:href="validation_8cpp.html#a56a7f8014e1247ef1241f603bf8b98b9" target="_top" xlink:title=" ">
<polygon fill="white" stroke="#666666" points="185.38,-96 114.62,-96 114.62,-76 185.38,-76 185.38,-96"/>
<text text-anchor="middle" x="150" y="-82.5" font-family="Helvetica,sans-Serif" font-size="10.00">isValidName</text>
</a>
</g>
</g>
<!-- Node1&#45;&gt;Node5 -->
<g id="edge4_Node000001_Node000005" class="edge">
<title>Node1&#45;&gt;Node5</title>
<g id="a_edge4_Node000001_Node000005"><a xlink:title=" ">
<path fill="none" stroke="#63b8ff" d="M65.85,-99.71C77.38,-97.81 90.61,-95.63 103.08,-93.57"/>
<polygon fill="#63b8ff" stroke="#63b8ff" points="103.45,-97.06 112.75,-91.98 102.31,-90.15 103.45,-97.06"/>
</a>
</g>
</g>
<!-- Node6 -->
<g id="Node000006" class="node">
<title>Node6</title>
<g id="a_Node000006"><a xlink:href="validation_8cpp.html#a61544b32391e0579f222c45b1a0af56a" target="_top" xlink:title=" ">
<polygon fill="white" stroke="#666666" points="182,-58 118,-58 118,-38 182,-38 182,-58"/>
<text text-anchor="middle" x="150" y="-44.5" font-family="Helvetica,sans-Serif" font-size="10.00">isValidYear</text>
</a>
</g>
</g>
<!-- Node1&#45;&gt;Node6 -->
<g id="edge5_Node000001_Node000006" class="edge">
<title>Node1&#45;&gt;Node6</title>
<g id="a_edge5_Node000001_Node000006"><a xlink:title=" ">
<path fill="none" stroke="#63b8ff" d="M50.97,-94.52C64.46,-86.5 83.86,-75.43 101.5,-67 104.43,-65.6 107.49,-64.21 110.59,-62.86"/>
<polygon fill="#63b8ff" stroke="#63b8ff" points="111.84,-66.13 119.71,-59.04 109.14,-59.68 111.84,-66.13"/>
</a>
</g>
</g>
<!-- Node7 -->
<g id="Node000007" class="node">
<title>Node7</title>
<g id="a_Node000007"><a xlink:href="file__operations_8cpp.html#a3218cc673e0643b611aa88e43c12bfb0" target="_top" xlink:title=" ">
<polygon fill="white" stroke="#666666" points="181.62,-20 118.38,-20 118.38,0 181.62,0 181.62,-20"/>
<text text-anchor="middle" x="150" y="-6.5" font-family="Helvetica,sans-Serif" font-size="10.00">saveToFile</text>
</a>
</g>
</g>
<!-- Node1&#45;&gt;Node7 -->
<g id="edge6_Node000001_Node000007" class="edge">
<title>Node1&#45;&gt;Node7</title>
<g id="a_edge6_Node000001_Node000007"><a xlink:title=" ">
<path fill="none" stroke="#63b8ff" d="M40.67,-94.52C51.78,-78.43 75.02,-47.57 101.5,-29 103.57,-27.55 105.76,-26.19 108.03,-24.91"/>
<polygon fill="#63b8ff" stroke="#63b8ff" points="109.49,-28.09 116.92,-20.53 106.4,-21.81 109.49,-28.09"/>
</a>
</g>
</g>
<!-- Node8 -->
<g id="Node000008" class="node">
<title>Node8</title>
<g id="a_Node000008"><a xlink:href="crypto__utils_8cpp.html#a016d5dccebf13f0174419222835f5f80" target="_top" xlink:title=" ">
<polygon fill="white" stroke="#666666" points="298.5,-20 234.5,-20 234.5,0 298.5,0 298.5,-20"/>
<text text-anchor="middle" x="266.5" y="-6.5" font-family="Helvetica,sans-Serif" font-size="10.00">encryptFile</text>
</a>
</g>
</g>
<!-- Node7&#45;&gt;Node8 -->
<g id="edge7_Node000007_Node000008" class="edge">
<title>Node7&#45;&gt;Node8</title>
<g id="a_edge7_Node000007_Node000008"><a xlink:title=" ">
<path fill="none" stroke="#63b8ff" d="M181.99,-10C194.48,-10 209.12,-10 222.61,-10"/>
<polygon fill="#63b8ff" stroke="#63b8ff" points="222.58,-13.5 232.58,-10 222.58,-6.5 222.58,-13.5"/>
</a>
</g>
</g>
</g>
</svg>
</svg>

<style type='text/css'>
<![CDATA[
[data-mouse-over-selected='false'] { opacity: 0.7; }
[data-mouse-over-selected='true']  { opacity: 1.0; }
]]>
</style>
<script type="application/ecmascript"><![CDATA[
document.addEventListener('DOMContentLoaded', (event) => {
  highlightEdges();
  highlightAdjacentNodes();
});
]]></script>
</svg>
