<?xml version="1.0" encoding="UTF-8" standalone="no"?>
<!DOCTYPE svg PUBLIC "-//W3C//DTD SVG 1.1//EN"
 "http://www.w3.org/Graphics/SVG/1.1/DTD/svg11.dtd">
<!-- Generated by graphviz version 12.1.0 (20240811.2233)
 -->
<!-- Title: src/txt_importer.cpp Pages: 1 -->
<svg width="559pt" height="252pt"
 viewBox="0.00 0.00 558.62 252.00" xmlns="http://www.w3.org/2000/svg" xmlns:xlink="http://www.w3.org/1999/xlink">
<g id="graph0" class="graph" transform="scale(1 1) rotate(0) translate(4 248)">
<title>src/txt_importer.cpp</title>
<!-- Node1 -->
<g id="Node000001" class="node">
<title>Node1</title>
<g id="a_Node000001"><a xlink:title=" ">
<polygon fill="#999999" stroke="#666666" points="358.25,-244 255.25,-244 255.25,-224 358.25,-224 358.25,-244"/>
<text text-anchor="middle" x="306.75" y="-230.5" font-family="Helvetica,sans-Serif" font-size="10.00">src/txt_importer.cpp</text>
</a>
</g>
</g>
<!-- Node2 -->
<g id="Node000002" class="node">
<title>Node2</title>
<g id="a_Node000002"><a xlink:href="txt__importer_8h.html" target="_top" xlink:title=" ">
<polygon fill="white" stroke="#666666" points="225.75,-188 149.75,-188 149.75,-168 225.75,-168 225.75,-188"/>
<text text-anchor="middle" x="187.75" y="-174.5" font-family="Helvetica,sans-Serif" font-size="10.00">txt_importer.h</text>
</a>
</g>
</g>
<!-- Node1&#45;&gt;Node2 -->
<g id="edge1_Node000001_Node000002" class="edge">
<title>Node1&#45;&gt;Node2</title>
<g id="a_edge1_Node000001_Node000002"><a xlink:title=" ">
<path fill="none" stroke="#63b8ff" d="M286.02,-223.59C267.54,-215.21 240.21,-202.8 219.06,-193.21"/>
<polygon fill="#63b8ff" stroke="#63b8ff" points="220.57,-190.05 210.02,-189.1 217.68,-196.42 220.57,-190.05"/>
</a>
</g>
</g>
<!-- Node7 -->
<g id="Node000007" class="node">
<title>Node7</title>
<g id="a_Node000007"><a xlink:href="normative_8h.html" target="_top" xlink:title=" ">
<polygon fill="white" stroke="#666666" points="68.25,-76 1.25,-76 1.25,-56 68.25,-56 68.25,-76"/>
<text text-anchor="middle" x="34.75" y="-62.5" font-family="Helvetica,sans-Serif" font-size="10.00">normative.h</text>
</a>
</g>
</g>
<!-- Node1&#45;&gt;Node7 -->
<g id="edge14_Node000001_Node000007" class="edge">
<title>Node1&#45;&gt;Node7</title>
<g id="a_edge14_Node000001_Node000007"><a xlink:title=" ">
<path fill="none" stroke="#63b8ff" d="M254.98,-226.91C220.55,-221.03 175.45,-209.66 140.75,-188 98.27,-161.48 63.3,-112.76 46.16,-85.94"/>
<polygon fill="#63b8ff" stroke="#63b8ff" points="49.16,-84.15 40.91,-77.5 43.22,-87.84 49.16,-84.15"/>
</a>
</g>
</g>
<!-- Node9 -->
<g id="Node000009" class="node">
<title>Node9</title>
<g id="a_Node000009"><a xlink:href="validation_8h.html" target="_top" xlink:title=" ">
<polygon fill="white" stroke="#666666" points="328.5,-132 263,-132 263,-112 328.5,-112 328.5,-132"/>
<text text-anchor="middle" x="295.75" y="-118.5" font-family="Helvetica,sans-Serif" font-size="10.00">validation.h</text>
</a>
</g>
</g>
<!-- Node1&#45;&gt;Node9 -->
<g id="edge12_Node000001_Node000009" class="edge">
<title>Node1&#45;&gt;Node9</title>
<g id="a_edge12_Node000001_Node000009"><a xlink:title=" ">
<path fill="none" stroke="#63b8ff" d="M297.1,-223.68C289.11,-215.24 278.33,-202 273.75,-188 268.65,-172.43 275.38,-154.84 282.7,-141.88"/>
<polygon fill="#63b8ff" stroke="#63b8ff" points="285.59,-143.85 287.93,-133.52 279.66,-140.14 285.59,-143.85"/>
</a>
</g>
</g>
<!-- Node10 -->
<g id="Node000010" class="node">
<title>Node10</title>
<g id="a_Node000010"><a xlink:title=" ">
<polygon fill="#e0e0e0" stroke="#999999" points="331.25,-188 282.25,-188 282.25,-168 331.25,-168 331.25,-188"/>
<text text-anchor="middle" x="306.75" y="-174.5" font-family="Helvetica,sans-Serif" font-size="10.00">fstream</text>
</a>
</g>
</g>
<!-- Node1&#45;&gt;Node10 -->
<g id="edge15_Node000001_Node000010" class="edge">
<title>Node1&#45;&gt;Node10</title>
<g id="a_edge15_Node000001_Node000010"><a xlink:title=" ">
<path fill="none" stroke="#63b8ff" d="M306.75,-223.59C306.75,-217.01 306.75,-207.96 306.75,-199.73"/>
<polygon fill="#63b8ff" stroke="#63b8ff" points="310.25,-199.81 306.75,-189.81 303.25,-199.81 310.25,-199.81"/>
</a>
</g>
</g>
<!-- Node11 -->
<g id="Node000011" class="node">
<title>Node11</title>
<g id="a_Node000011"><a xlink:title=" ">
<polygon fill="#e0e0e0" stroke="#999999" points="400.38,-188 349.12,-188 349.12,-168 400.38,-168 400.38,-188"/>
<text text-anchor="middle" x="374.75" y="-174.5" font-family="Helvetica,sans-Serif" font-size="10.00">sstream</text>
</a>
</g>
</g>
<!-- Node1&#45;&gt;Node11 -->
<g id="edge16_Node000001_Node000011" class="edge">
<title>Node1&#45;&gt;Node11</title>
<g id="a_edge16_Node000001_Node000011"><a xlink:title=" ">
<path fill="none" stroke="#63b8ff" d="M318.59,-223.59C328.44,-215.77 342.68,-204.46 354.36,-195.19"/>
<polygon fill="#63b8ff" stroke="#63b8ff" points="356.2,-198.2 361.86,-189.24 351.85,-192.72 356.2,-198.2"/>
</a>
</g>
</g>
<!-- Node12 -->
<g id="Node000012" class="node">
<title>Node12</title>
<g id="a_Node000012"><a xlink:title=" ">
<polygon fill="#e0e0e0" stroke="#999999" points="477.12,-188 418.38,-188 418.38,-168 477.12,-168 477.12,-188"/>
<text text-anchor="middle" x="447.75" y="-174.5" font-family="Helvetica,sans-Serif" font-size="10.00">stdexcept</text>
</a>
</g>
</g>
<!-- Node1&#45;&gt;Node12 -->
<g id="edge17_Node000001_Node000012" class="edge">
<title>Node1&#45;&gt;Node12</title>
<g id="a_edge17_Node000001_Node000012"><a xlink:title=" ">
<path fill="none" stroke="#63b8ff" d="M331.31,-223.59C353.72,-215.01 387.09,-202.23 412.37,-192.55"/>
<polygon fill="#63b8ff" stroke="#63b8ff" points="413.5,-195.87 421.58,-189.02 410.99,-189.33 413.5,-195.87"/>
</a>
</g>
</g>
<!-- Node13 -->
<g id="Node000013" class="node">
<title>Node13</title>
<g id="a_Node000013"><a xlink:title=" ">
<polygon fill="#e0e0e0" stroke="#999999" points="550.62,-188 494.88,-188 494.88,-168 550.62,-168 550.62,-188"/>
<text text-anchor="middle" x="522.75" y="-174.5" font-family="Helvetica,sans-Serif" font-size="10.00">algorithm</text>
</a>
</g>
</g>
<!-- Node1&#45;&gt;Node13 -->
<g id="edge18_Node000001_Node000013" class="edge">
<title>Node1&#45;&gt;Node13</title>
<g id="a_edge18_Node000001_Node000013"><a xlink:title=" ">
<path fill="none" stroke="#63b8ff" d="M344.37,-223.59C383.32,-213.86 443.89,-198.72 483.44,-188.83"/>
<polygon fill="#63b8ff" stroke="#63b8ff" points="484.18,-192.25 493.03,-186.43 482.48,-185.46 484.18,-192.25"/>
</a>
</g>
</g>
<!-- Node3 -->
<g id="Node000003" class="node">
<title>Node3</title>
<g id="a_Node000003"><a xlink:title=" ">
<polygon fill="#e0e0e0" stroke="#999999" points="206.25,-76 163.25,-76 163.25,-56 206.25,-56 206.25,-76"/>
<text text-anchor="middle" x="184.75" y="-62.5" font-family="Helvetica,sans-Serif" font-size="10.00">vector</text>
</a>
</g>
</g>
<!-- Node2&#45;&gt;Node3 -->
<g id="edge2_Node000002_Node000003" class="edge">
<title>Node2&#45;&gt;Node3</title>
<g id="a_edge2_Node000002_Node000003"><a xlink:title=" ">
<path fill="none" stroke="#63b8ff" d="M187.49,-167.62C187.01,-150.01 185.97,-111.59 185.31,-87.65"/>
<polygon fill="#63b8ff" stroke="#63b8ff" points="188.82,-87.77 185.05,-77.87 181.82,-87.96 188.82,-87.77"/>
</a>
</g>
</g>
<!-- Node4 -->
<g id="Node000004" class="node">
<title>Node4</title>
<g id="a_Node000004"><a xlink:title=" ">
<polygon fill="#e0e0e0" stroke="#999999" points="217.75,-20 177.75,-20 177.75,0 217.75,0 217.75,-20"/>
<text text-anchor="middle" x="197.75" y="-6.5" font-family="Helvetica,sans-Serif" font-size="10.00">string</text>
</a>
</g>
</g>
<!-- Node2&#45;&gt;Node4 -->
<g id="edge3_Node000002_Node000004" class="edge">
<title>Node2&#45;&gt;Node4</title>
<g id="a_edge3_Node000002_Node000004"><a xlink:title=" ">
<path fill="none" stroke="#63b8ff" d="M192.65,-167.64C202.66,-147.38 223.82,-97.92 215.75,-56 214.1,-47.44 210.84,-38.44 207.54,-30.76"/>
<polygon fill="#63b8ff" stroke="#63b8ff" points="210.73,-29.31 203.34,-21.71 204.38,-32.25 210.73,-29.31"/>
</a>
</g>
</g>
<!-- Node5 -->
<g id="Node000005" class="node">
<title>Node5</title>
<g id="a_Node000005"><a xlink:href="student_8h.html" target="_top" xlink:title=" ">
<polygon fill="white" stroke="#666666" points="160,-132 103.5,-132 103.5,-112 160,-112 160,-132"/>
<text text-anchor="middle" x="131.75" y="-118.5" font-family="Helvetica,sans-Serif" font-size="10.00">student.h</text>
</a>
</g>
</g>
<!-- Node2&#45;&gt;Node5 -->
<g id="edge4_Node000002_Node000005" class="edge">
<title>Node2&#45;&gt;Node5</title>
<g id="a_edge4_Node000002_Node000005"><a xlink:title=" ">
<path fill="none" stroke="#63b8ff" d="M178,-167.59C170.13,-160.01 158.85,-149.13 149.4,-140.02"/>
<polygon fill="#63b8ff" stroke="#63b8ff" points="152.11,-137.77 142.48,-133.35 147.25,-142.81 152.11,-137.77"/>
</a>
</g>
</g>
<!-- Node5&#45;&gt;Node3 -->
<g id="edge6_Node000005_Node000003" class="edge">
<title>Node5&#45;&gt;Node3</title>
<g id="a_edge6_Node000005_Node000003"><a xlink:title=" ">
<path fill="none" stroke="#63b8ff" d="M140.98,-111.59C148.35,-104.08 158.88,-93.35 167.77,-84.3"/>
<polygon fill="#63b8ff" stroke="#63b8ff" points="170.06,-86.97 174.56,-77.38 165.06,-82.06 170.06,-86.97"/>
</a>
</g>
</g>
<!-- Node5&#45;&gt;Node4 -->
<g id="edge5_Node000005_Node000004" class="edge">
<title>Node5&#45;&gt;Node4</title>
<g id="a_edge5_Node000005_Node000004"><a xlink:title=" ">
<path fill="none" stroke="#63b8ff" d="M133.75,-111.63C136.83,-98.48 143.59,-74.15 154.75,-56 161.07,-45.73 170.05,-35.86 178.18,-27.99"/>
<polygon fill="#63b8ff" stroke="#63b8ff" points="180.4,-30.7 185.37,-21.35 175.65,-25.56 180.4,-30.7"/>
</a>
</g>
</g>
<!-- Node6 -->
<g id="Node000006" class="node">
<title>Node6</title>
<g id="a_Node000006"><a xlink:title=" ">
<polygon fill="#e0e0e0" stroke="#999999" points="122.38,-20 71.12,-20 71.12,0 122.38,0 122.38,-20"/>
<text text-anchor="middle" x="96.75" y="-6.5" font-family="Helvetica,sans-Serif" font-size="10.00">memory</text>
</a>
</g>
</g>
<!-- Node5&#45;&gt;Node6 -->
<g id="edge7_Node000005_Node000006" class="edge">
<title>Node5&#45;&gt;Node6</title>
<g id="a_edge7_Node000005_Node000006"><a xlink:title=" ">
<path fill="none" stroke="#63b8ff" d="M128.77,-111.62C123.13,-93.92 110.83,-55.24 103.22,-31.32"/>
<polygon fill="#63b8ff" stroke="#63b8ff" points="106.55,-30.27 100.19,-21.8 99.88,-32.39 106.55,-30.27"/>
</a>
</g>
</g>
<!-- Node5&#45;&gt;Node7 -->
<g id="edge8_Node000005_Node000007" class="edge">
<title>Node5&#45;&gt;Node7</title>
<g id="a_edge8_Node000005_Node000007"><a xlink:title=" ">
<path fill="none" stroke="#63b8ff" d="M114.85,-111.59C100.2,-103.44 78.73,-91.48 61.7,-82"/>
<polygon fill="#63b8ff" stroke="#63b8ff" points="63.54,-79.02 53.1,-77.22 60.14,-85.14 63.54,-79.02"/>
</a>
</g>
</g>
<!-- Node7&#45;&gt;Node4 -->
<g id="edge9_Node000007_Node000004" class="edge">
<title>Node7&#45;&gt;Node4</title>
<g id="a_edge9_Node000007_Node000004"><a xlink:title=" ">
<path fill="none" stroke="#63b8ff" d="M63.14,-55.59C92.1,-46 136.89,-31.16 166.75,-21.27"/>
<polygon fill="#63b8ff" stroke="#63b8ff" points="167.58,-24.68 175.97,-18.22 165.37,-18.04 167.58,-24.68"/>
</a>
</g>
</g>
<!-- Node7&#45;&gt;Node6 -->
<g id="edge10_Node000007_Node000006" class="edge">
<title>Node7&#45;&gt;Node6</title>
<g id="a_edge10_Node000007_Node000006"><a xlink:title=" ">
<path fill="none" stroke="#63b8ff" d="M45.55,-55.59C54.35,-47.93 67,-36.91 77.52,-27.75"/>
<polygon fill="#63b8ff" stroke="#63b8ff" points="79.69,-30.5 84.93,-21.29 75.09,-25.22 79.69,-30.5"/>
</a>
</g>
</g>
<!-- Node8 -->
<g id="Node000008" class="node">
<title>Node8</title>
<g id="a_Node000008"><a xlink:title=" ">
<polygon fill="#e0e0e0" stroke="#999999" points="53.5,-20 0,-20 0,0 53.5,0 53.5,-20"/>
<text text-anchor="middle" x="26.75" y="-6.5" font-family="Helvetica,sans-Serif" font-size="10.00">iostream</text>
</a>
</g>
</g>
<!-- Node7&#45;&gt;Node8 -->
<g id="edge11_Node000007_Node000008" class="edge">
<title>Node7&#45;&gt;Node8</title>
<g id="a_edge11_Node000007_Node000008"><a xlink:title=" ">
<path fill="none" stroke="#63b8ff" d="M33.36,-55.59C32.37,-48.93 31.01,-39.75 29.78,-31.44"/>
<polygon fill="#63b8ff" stroke="#63b8ff" points="33.28,-31.17 28.35,-21.8 26.35,-32.2 33.28,-31.17"/>
</a>
</g>
</g>
<!-- Node9&#45;&gt;Node4 -->
<g id="edge13_Node000009_Node000004" class="edge">
<title>Node9&#45;&gt;Node4</title>
<g id="a_edge13_Node000009_Node000004"><a xlink:title=" ">
<path fill="none" stroke="#63b8ff" d="M289.96,-111.69C281.62,-98.61 265.41,-74.36 248.75,-56 239.49,-45.8 228.07,-35.54 218.39,-27.41"/>
<polygon fill="#63b8ff" stroke="#63b8ff" points="220.89,-24.93 210.94,-21.29 216.44,-30.34 220.89,-24.93"/>
</a>
</g>
</g>
</g>
</svg>
