<?xml version="1.0" encoding="UTF-8" standalone="no"?>
<!DOCTYPE svg PUBLIC "-//W3C//DTD SVG 1.1//EN"
 "http://www.w3.org/Graphics/SVG/1.1/DTD/svg11.dtd">
<!-- Generated by graphviz version 12.1.0 (20240811.2233)
 -->
<!-- Title: include/txt_importer.h Pages: 1 -->
<svg width="272pt" height="196pt"
 viewBox="0.00 0.00 271.50 196.00" xmlns="http://www.w3.org/2000/svg" xmlns:xlink="http://www.w3.org/1999/xlink">
<g id="graph0" class="graph" transform="scale(1 1) rotate(0) translate(4 192)">
<title>include/txt_importer.h</title>
<!-- Node1 -->
<g id="Node000001" class="node">
<title>Node1</title>
<g id="a_Node000001"><a xlink:title=" ">
<polygon fill="#999999" stroke="#666666" points="109.75,-188 0,-188 0,-168 109.75,-168 109.75,-188"/>
<text text-anchor="middle" x="54.88" y="-174.5" font-family="Helvetica,sans-Serif" font-size="10.00">include/txt_importer.h</text>
</a>
</g>
</g>
<!-- Node2 -->
<g id="Node000002" class="node">
<title>Node2</title>
<g id="a_Node000002"><a xlink:title=" ">
<polygon fill="#e0e0e0" stroke="#999999" points="79.38,-76 36.38,-76 36.38,-56 79.38,-56 79.38,-76"/>
<text text-anchor="middle" x="57.88" y="-62.5" font-family="Helvetica,sans-Serif" font-size="10.00">vector</text>
</a>
</g>
</g>
<!-- Node1&#45;&gt;Node2 -->
<g id="edge1_Node000001_Node000002" class="edge">
<title>Node1&#45;&gt;Node2</title>
<g id="a_edge1_Node000001_Node000002"><a xlink:title=" ">
<path fill="none" stroke="#63b8ff" d="M55.13,-167.62C55.61,-150.01 56.66,-111.59 57.31,-87.65"/>
<polygon fill="#63b8ff" stroke="#63b8ff" points="60.8,-87.96 57.58,-77.87 53.81,-87.77 60.8,-87.96"/>
</a>
</g>
</g>
<!-- Node3 -->
<g id="Node000003" class="node">
<title>Node3</title>
<g id="a_Node000003"><a xlink:title=" ">
<polygon fill="#e0e0e0" stroke="#999999" points="122.88,-20 82.88,-20 82.88,0 122.88,0 122.88,-20"/>
<text text-anchor="middle" x="102.88" y="-6.5" font-family="Helvetica,sans-Serif" font-size="10.00">string</text>
</a>
</g>
</g>
<!-- Node1&#45;&gt;Node3 -->
<g id="edge2_Node000001_Node000003" class="edge">
<title>Node1&#45;&gt;Node3</title>
<g id="a_edge2_Node000001_Node000003"><a xlink:title=" ">
<path fill="none" stroke="#63b8ff" d="M48.38,-167.54C34.62,-146.24 5.52,-93.46 26.88,-56 36.59,-38.95 55.59,-27.7 72.15,-20.72"/>
<polygon fill="#63b8ff" stroke="#63b8ff" points="73.07,-24.11 81.15,-17.26 70.56,-17.58 73.07,-24.11"/>
</a>
</g>
</g>
<!-- Node4 -->
<g id="Node000004" class="node">
<title>Node4</title>
<g id="a_Node000004"><a xlink:href="student_8h.html" target="_top" xlink:title=" ">
<polygon fill="white" stroke="#666666" points="139.12,-132 82.62,-132 82.62,-112 139.12,-112 139.12,-132"/>
<text text-anchor="middle" x="110.88" y="-118.5" font-family="Helvetica,sans-Serif" font-size="10.00">student.h</text>
</a>
</g>
</g>
<!-- Node1&#45;&gt;Node4 -->
<g id="edge3_Node000001_Node000004" class="edge">
<title>Node1&#45;&gt;Node4</title>
<g id="a_edge3_Node000001_Node000004"><a xlink:title=" ">
<path fill="none" stroke="#63b8ff" d="M64.63,-167.59C72.5,-160.01 83.77,-149.13 93.22,-140.02"/>
<polygon fill="#63b8ff" stroke="#63b8ff" points="95.37,-142.81 100.14,-133.35 90.51,-137.77 95.37,-142.81"/>
</a>
</g>
</g>
<!-- Node4&#45;&gt;Node2 -->
<g id="edge5_Node000004_Node000002" class="edge">
<title>Node4&#45;&gt;Node2</title>
<g id="a_edge5_Node000004_Node000002"><a xlink:title=" ">
<path fill="none" stroke="#63b8ff" d="M101.64,-111.59C94.27,-104.08 83.74,-93.35 74.86,-84.3"/>
<polygon fill="#63b8ff" stroke="#63b8ff" points="77.56,-82.06 68.06,-77.38 72.57,-86.97 77.56,-82.06"/>
</a>
</g>
</g>
<!-- Node4&#45;&gt;Node3 -->
<g id="edge4_Node000004_Node000003" class="edge">
<title>Node4&#45;&gt;Node3</title>
<g id="a_edge4_Node000004_Node000003"><a xlink:title=" ">
<path fill="none" stroke="#63b8ff" d="M110.19,-111.62C108.91,-94.01 106.12,-55.59 104.38,-31.65"/>
<polygon fill="#63b8ff" stroke="#63b8ff" points="107.88,-31.58 103.67,-21.86 100.9,-32.09 107.88,-31.58"/>
</a>
</g>
</g>
<!-- Node5 -->
<g id="Node000005" class="node">
<title>Node5</title>
<g id="a_Node000005"><a xlink:title=" ">
<polygon fill="#e0e0e0" stroke="#999999" points="263.5,-20 212.25,-20 212.25,0 263.5,0 263.5,-20"/>
<text text-anchor="middle" x="237.88" y="-6.5" font-family="Helvetica,sans-Serif" font-size="10.00">memory</text>
</a>
</g>
</g>
<!-- Node4&#45;&gt;Node5 -->
<g id="edge6_Node000004_Node000005" class="edge">
<title>Node4&#45;&gt;Node5</title>
<g id="a_edge6_Node000004_Node000005"><a xlink:title=" ">
<path fill="none" stroke="#63b8ff" d="M139.47,-114.8C162.11,-108.54 193.11,-96.74 212.88,-76 224.62,-63.68 231,-45.25 234.38,-31.16"/>
<polygon fill="#63b8ff" stroke="#63b8ff" points="237.75,-32.14 236.32,-21.64 230.89,-30.74 237.75,-32.14"/>
</a>
</g>
</g>
<!-- Node6 -->
<g id="Node000006" class="node">
<title>Node6</title>
<g id="a_Node000006"><a xlink:href="normative_8h.html" target="_top" xlink:title=" ">
<polygon fill="white" stroke="#666666" points="203.38,-76 136.38,-76 136.38,-56 203.38,-56 203.38,-76"/>
<text text-anchor="middle" x="169.88" y="-62.5" font-family="Helvetica,sans-Serif" font-size="10.00">normative.h</text>
</a>
</g>
</g>
<!-- Node4&#45;&gt;Node6 -->
<g id="edge7_Node000004_Node000006" class="edge">
<title>Node4&#45;&gt;Node6</title>
<g id="a_edge7_Node000004_Node000006"><a xlink:title=" ">
<path fill="none" stroke="#63b8ff" d="M121.15,-111.59C129.44,-104.01 141.32,-93.13 151.28,-84.02"/>
<polygon fill="#63b8ff" stroke="#63b8ff" points="153.59,-86.65 158.6,-77.32 148.86,-81.49 153.59,-86.65"/>
</a>
</g>
</g>
<!-- Node6&#45;&gt;Node3 -->
<g id="edge8_Node000006_Node000003" class="edge">
<title>Node6&#45;&gt;Node3</title>
<g id="a_edge8_Node000006_Node000003"><a xlink:title=" ">
<path fill="none" stroke="#63b8ff" d="M158.2,-55.59C148.6,-47.85 134.75,-36.69 123.31,-27.47"/>
<polygon fill="#63b8ff" stroke="#63b8ff" points="125.57,-24.8 115.59,-21.25 121.18,-30.25 125.57,-24.8"/>
</a>
</g>
</g>
<!-- Node6&#45;&gt;Node5 -->
<g id="edge9_Node000006_Node000005" class="edge">
<title>Node6&#45;&gt;Node5</title>
<g id="a_edge9_Node000006_Node000005"><a xlink:title=" ">
<path fill="none" stroke="#63b8ff" d="M181.72,-55.59C191.57,-47.77 205.81,-36.46 217.48,-27.19"/>
<polygon fill="#63b8ff" stroke="#63b8ff" points="219.33,-30.2 224.98,-21.24 214.97,-24.72 219.33,-30.2"/>
</a>
</g>
</g>
<!-- Node7 -->
<g id="Node000007" class="node">
<title>Node7</title>
<g id="a_Node000007"><a xlink:title=" ">
<polygon fill="#e0e0e0" stroke="#999999" points="194.62,-20 141.12,-20 141.12,0 194.62,0 194.62,-20"/>
<text text-anchor="middle" x="167.88" y="-6.5" font-family="Helvetica,sans-Serif" font-size="10.00">iostream</text>
</a>
</g>
</g>
<!-- Node6&#45;&gt;Node7 -->
<g id="edge10_Node000006_Node000007" class="edge">
<title>Node6&#45;&gt;Node7</title>
<g id="a_edge10_Node000006_Node000007"><a xlink:title=" ">
<path fill="none" stroke="#63b8ff" d="M169.53,-55.59C169.28,-49.01 168.95,-39.96 168.64,-31.73"/>
<polygon fill="#63b8ff" stroke="#63b8ff" points="172.14,-31.67 168.28,-21.81 165.15,-31.93 172.14,-31.67"/>
</a>
</g>
</g>
</g>
</svg>
