<?xml version="1.0" encoding="UTF-8" standalone="no"?>
<!DOCTYPE svg PUBLIC "-//W3C//DTD SVG 1.1//EN"
 "http://www.w3.org/Graphics/SVG/1.1/DTD/svg11.dtd">
<!-- Generated by graphviz version 12.1.0 (20240811.2233)
 -->
<!-- Title: importStudentsFromTxt Pages: 1 -->
<svg width="260pt" height="142pt"
 viewBox="0.00 0.00 259.75 142.00" xmlns="http://www.w3.org/2000/svg" xmlns:xlink="http://www.w3.org/1999/xlink">

<svg id="main" version="1.1" xmlns="http://www.w3.org/2000/svg" xmlns:xlink="http://www.w3.org/1999/xlink" xml:space="preserve">

<style type="text/css"><![CDATA[
.node, .edge {opacity: 0.7;}
.node.selected, .edge.selected {opacity: 1;}
.edge:hover path { stroke: red; }
.edge:hover polygon { stroke: red; fill: red; }
]]></style>
<script type="application/ecmascript" xlink:href="svg.min.js"/>
<svg id="graph" class="graph">
<g id="graph0" class="graph" transform="scale(1 1) rotate(0) translate(4 138)">
<title>importStudentsFromTxt</title>
<!-- Node1 -->
<g id="Node000001" class="node">
<title>Node1</title>
<g id="a_Node000001"><a xlink:title=" ">
<polygon fill="#999999" stroke="#666666" points="118.75,-77 0,-77 0,-57 118.75,-57 118.75,-77"/>
<text text-anchor="middle" x="59.38" y="-63.5" font-family="Helvetica,sans-Serif" font-size="10.00">importStudentsFromTxt</text>
</a>
</g>
</g>
<!-- Node2 -->
<g id="Node000002" class="node">
<title>Node2</title>
<g id="a_Node000002"><a xlink:href="validation_8cpp.html#a5af6e666c07b7851889ae4f3ec81ff77" target="_top" xlink:title=" ">
<polygon fill="white" stroke="#666666" points="236,-134 170.5,-134 170.5,-114 236,-114 236,-134"/>
<text text-anchor="middle" x="203.25" y="-120.5" font-family="Helvetica,sans-Serif" font-size="10.00">isValidDate</text>
</a>
</g>
</g>
<!-- Node1&#45;&gt;Node2 -->
<g id="edge1_Node000001_Node000002" class="edge">
<title>Node1&#45;&gt;Node2</title>
<g id="a_edge1_Node000001_Node000002"><a xlink:title=" ">
<path fill="none" stroke="#63b8ff" d="M86.41,-77.5C105.35,-85.14 131.64,-95.72 154.75,-105 158.32,-106.43 162.04,-107.92 165.76,-109.41"/>
<polygon fill="#63b8ff" stroke="#63b8ff" points="164.12,-112.53 174.71,-113 166.72,-106.03 164.12,-112.53"/>
</a>
</g>
</g>
<!-- Node3 -->
<g id="Node000003" class="node">
<title>Node3</title>
<g id="a_Node000003"><a xlink:href="validation_8cpp.html#a2c5bd10f6a2cf42d366fcb1c79442d16" target="_top" xlink:title=" ">
<polygon fill="white" stroke="#666666" points="251.75,-96 154.75,-96 154.75,-76 251.75,-76 251.75,-96"/>
<text text-anchor="middle" x="203.25" y="-82.5" font-family="Helvetica,sans-Serif" font-size="10.00">isValidGroupName</text>
</a>
</g>
</g>
<!-- Node1&#45;&gt;Node3 -->
<g id="edge2_Node000001_Node000003" class="edge">
<title>Node1&#45;&gt;Node3</title>
<g id="a_edge2_Node000001_Node000003"><a xlink:title=" ">
<path fill="none" stroke="#63b8ff" d="M118.9,-74.84C126.99,-75.92 135.31,-77.04 143.41,-78.12"/>
<polygon fill="#63b8ff" stroke="#63b8ff" points="142.79,-81.57 153.17,-79.43 143.72,-74.63 142.79,-81.57"/>
</a>
</g>
</g>
<!-- Node4 -->
<g id="Node000004" class="node">
<title>Node4</title>
<g id="a_Node000004"><a xlink:href="validation_8cpp.html#a56a7f8014e1247ef1241f603bf8b98b9" target="_top" xlink:title=" ">
<polygon fill="white" stroke="#666666" points="238.62,-58 167.88,-58 167.88,-38 238.62,-38 238.62,-58"/>
<text text-anchor="middle" x="203.25" y="-44.5" font-family="Helvetica,sans-Serif" font-size="10.00">isValidName</text>
</a>
</g>
</g>
<!-- Node1&#45;&gt;Node4 -->
<g id="edge3_Node000001_Node000004" class="edge">
<title>Node1&#45;&gt;Node4</title>
<g id="a_edge3_Node000001_Node000004"><a xlink:title=" ">
<path fill="none" stroke="#63b8ff" d="M118.9,-59.16C131.39,-57.49 144.42,-55.74 156.36,-54.15"/>
<polygon fill="#63b8ff" stroke="#63b8ff" points="156.47,-57.66 165.92,-52.87 155.54,-50.72 156.47,-57.66"/>
</a>
</g>
</g>
<!-- Node5 -->
<g id="Node000005" class="node">
<title>Node5</title>
<g id="a_Node000005"><a xlink:href="validation_8cpp.html#a61544b32391e0579f222c45b1a0af56a" target="_top" xlink:title=" ">
<polygon fill="white" stroke="#666666" points="235.25,-20 171.25,-20 171.25,0 235.25,0 235.25,-20"/>
<text text-anchor="middle" x="203.25" y="-6.5" font-family="Helvetica,sans-Serif" font-size="10.00">isValidYear</text>
</a>
</g>
</g>
<!-- Node1&#45;&gt;Node5 -->
<g id="edge4_Node000001_Node000005" class="edge">
<title>Node1&#45;&gt;Node5</title>
<g id="a_edge4_Node000001_Node000005"><a xlink:title=" ">
<path fill="none" stroke="#63b8ff" d="M86.41,-56.5C105.35,-48.86 131.64,-38.28 154.75,-29 158.32,-27.57 162.04,-26.08 165.76,-24.59"/>
<polygon fill="#63b8ff" stroke="#63b8ff" points="166.72,-27.97 174.71,-21 164.12,-21.47 166.72,-27.97"/>
</a>
</g>
</g>
</g>
</svg>
</svg>

<style type='text/css'>
<![CDATA[
[data-mouse-over-selected='false'] { opacity: 0.7; }
[data-mouse-over-selected='true']  { opacity: 1.0; }
]]>
</style>
<script type="application/ecmascript"><![CDATA[
document.addEventListener('DOMContentLoaded', (event) => {
  highlightEdges();
  highlightAdjacentNodes();
});
]]></script>
</svg>
